<svg width="42" height="40" viewBox="0 0 42 40" fill="none" xmlns="http://www.w3.org/2000/svg">
<path d="M21.8583 0.53217C21.4897 0.223517 20.9536 0.22085 20.5819 0.525821L1.16077 16.4622C0.434817 17.0579 0.856036 18.2352 1.79511 18.2352H4.25433V39C4.25433 39.5523 4.70205 40 5.25433 40H36.2543C36.8066 40 37.2543 39.5523 37.2543 39V18.2352H40.2481C41.1823 18.2352 41.6063 17.0682 40.8901 16.4685L21.8583 0.53217ZM25.928 32.4332C26.0681 33.0582 25.5927 33.6519 24.9522 33.6519H17.0474C16.4068 33.6519 15.9313 33.0579 16.0717 32.4328L17.9796 23.9385C16.6605 23.0316 15.7979 21.6659 15.7979 19.9937C15.7979 17.2386 18.1272 15.0612 20.9991 15.0612C23.8728 15.0612 26.2012 17.322 26.2012 20.0771C26.2012 21.7502 25.3386 23.0199 24.0204 23.924L25.928 32.4332Z" fill="#6A4ED4"/>
</svg>
