<svg width="40" height="40" viewBox="0 0 40 40" fill="none" xmlns="http://www.w3.org/2000/svg">
<path d="M38.6941 7.27405H32.7319V1.30933C32.7319 0.962078 32.5939 0.629045 32.3483 0.383499C32.1027 0.137952 31.7697 5.06596e-06 31.4223 5.06596e-06H30.4074C30.0601 5.06596e-06 29.727 0.137952 29.4814 0.383499C29.2358 0.629045 29.0979 0.962078 29.0979 1.30933V7.27405H23.1357C22.7884 7.27405 22.4553 7.412 22.2097 7.65755C21.9641 7.90309 21.8261 8.23613 21.8261 8.58338V28.0889C21.8261 28.6412 21.3784 29.0889 20.8261 29.0889H8.58858C7.86104 29.0889 7.2681 29.6818 7.2681 30.4092V38.6834C7.2681 39.4108 7.86104 40 8.58858 40H38.6904C39.418 40 40 39.4108 40 38.687V8.58338C40 8.23613 39.862 7.90309 39.6164 7.65755C39.3708 7.412 39.0378 7.27405 38.6904 7.27405H38.6941ZM14.5471 36.363H10.9094V32.726H14.5471V36.363ZM21.8225 36.363H18.1848V32.726H21.8225V36.363ZM29.0979 36.363H25.4602V32.726H29.0979V36.363ZM29.0979 29.0889H25.4602V25.4519H29.0979V29.0889ZM29.0979 21.8149H25.4602V18.1779H29.0979V21.8149ZM29.0979 14.5408H25.4602V10.9038H29.0979V14.5408ZM36.3732 36.363H32.7355V32.726H36.3732V36.363ZM36.3732 29.0889H32.7355V25.4519H36.3732V29.0889ZM36.3732 21.8149H32.7355V18.1779H36.3732V21.8149ZM36.3732 14.5408H32.7355V10.9038H36.3732V14.5408ZM18.1848 1.31297C18.1853 1.14042 18.1516 0.969467 18.0858 0.809954C18.02 0.65044 17.9233 0.505509 17.8012 0.383493C17.6792 0.261478 17.5342 0.164784 17.3747 0.0989711C17.2152 0.0331584 17.0442 -0.000474925 16.8716 5.06596e-06H8.58494C8.23762 5.06596e-06 7.90453 0.137952 7.65894 0.383499C7.41334 0.629045 7.27537 0.962078 7.27537 1.30933V7.27405H1.30957C0.962248 7.27405 0.629155 7.412 0.383563 7.65755C0.137972 7.90309 0 8.23613 0 8.58338V38.7234C0 39.429 0.571116 39.9964 1.27319 39.9964H3.63769V26.4592C3.63769 25.9069 4.0854 25.4592 4.63769 25.4592H17.1848C17.7371 25.4592 18.1848 25.0115 18.1848 24.4592V1.30933V1.31297ZM7.27537 21.8149H3.63769V18.1779H7.27537V21.8149ZM7.27537 14.5408H3.63769V10.9038H7.27537V14.5408ZM14.5507 21.8149H10.9131V18.1779H14.5507V21.8149ZM14.5507 14.5408H10.9131V10.9038H14.5507V14.5408ZM14.5507 7.26678H10.9131V3.63703H14.5507V7.27405V7.26678Z" fill="#6A4ED4"/>
</svg>
