<svg width="49" height="40" viewBox="0 0 49 40" fill="none" xmlns="http://www.w3.org/2000/svg">
<path d="M44.333 20.7299C44.7251 20.3293 45.3698 20.3292 45.7621 20.7296L47.8153 22.826C48.1959 23.2145 48.1962 23.8358 47.816 24.2247L33.1001 39.2798C32.7121 39.6767 32.0751 39.6817 31.681 39.291L25.233 32.8986C24.8425 32.5114 24.8379 31.8816 25.2227 31.4887L27.2861 29.382C27.6702 28.9899 28.2985 28.9806 28.694 29.3613L31.6817 32.2373C32.0772 32.618 32.7058 32.6087 33.0898 32.2163L44.333 20.7299ZM18.4557 31.7977C18.0716 32.1871 18.0716 32.8129 18.4557 33.2023L23.4821 38.2977C24.1055 38.9296 23.6578 40 22.7702 40H1.5C0.947716 40 0.5 39.5523 0.5 39V35C0.5 29.475 9.32876 25 20.2291 25L22.6877 25.1451C23.5458 25.1957 23.9444 26.2337 23.3407 26.8456L18.4557 31.7977ZM20.2291 0C22.8453 0 25.3544 1.05357 27.2043 2.92893C29.0543 4.8043 30.0936 7.34784 30.0936 10C30.0936 12.6522 29.0543 15.1957 27.2043 17.0711C25.3544 18.9464 22.8453 20 20.2291 20C17.6128 20 15.1037 18.9464 13.2538 17.0711C11.4038 15.1957 10.3645 12.6522 10.3645 10C10.3645 7.34784 11.4038 4.8043 13.2538 2.92893C15.1037 1.05357 17.6128 0 20.2291 0Z" fill="#6A4ED4"/>
</svg>
