<svg width="25" height="22" viewBox="0 0 25 22" fill="none" xmlns="http://www.w3.org/2000/svg">
<path d="M1.75728 20.0039L12.0341 2.01943C12.418 1.34761 13.3867 1.34761 13.7706 2.01943L24.0474 20.0039C24.4284 20.6705 23.947 21.5 23.1792 21.5H2.62552C1.8577 21.5 1.37633 20.6705 1.75728 20.0039Z" fill="#070707"/>
<path d="M12.4863 16.344C12.3797 16.344 12.289 16.312 12.2143 16.248C12.1503 16.1733 12.1183 16.0827 12.1183 15.976V8.168C12.1183 8.06133 12.1503 7.976 12.2143 7.912C12.289 7.83733 12.3797 7.8 12.4863 7.8H13.2383C13.345 7.8 13.4303 7.83733 13.4943 7.912C13.5583 7.976 13.5903 8.06133 13.5903 8.168V15.976C13.5903 16.0827 13.5583 16.1733 13.4943 16.248C13.4303 16.312 13.345 16.344 13.2383 16.344H12.4863ZM12.3423 19C12.2357 19 12.145 18.968 12.0703 18.904C12.0063 18.8293 11.9743 18.7387 11.9743 18.632V17.624C11.9743 17.5067 12.0063 17.416 12.0703 17.352C12.145 17.2773 12.2357 17.24 12.3423 17.24H13.3663C13.473 17.24 13.5583 17.2773 13.6223 17.352C13.697 17.416 13.7343 17.5067 13.7343 17.624V18.632C13.7343 18.7387 13.697 18.8293 13.6223 18.904C13.5583 18.968 13.473 19 13.3663 19H12.3423Z" fill="white"/>
</svg>
