<svg width="13" height="15" viewBox="0 0 13 15" fill="none" xmlns="http://www.w3.org/2000/svg">
<path d="M6.321 0C2.82863 0 0 0.394749 0 3.15789V11.0526C0 11.7513 0.308148 12.3711 0.790111 12.8052V14.2105C0.790111 14.6447 1.14567 15 1.58022 15H2.37037C2.80889 15 3.16048 14.6447 3.16048 14.2105V13.4211H9.48148V14.2105C9.48148 14.6447 9.83307 15 10.2716 15H11.0617C11.4963 15 11.8518 14.6447 11.8518 14.2105V12.8053C12.3338 12.3711 12.6419 11.7513 12.6419 11.0527V3.15789C12.642 0.394749 9.81333 0 6.321 0ZM2.76544 11.8421C2.10963 11.8421 1.58026 11.3132 1.58026 10.6579C1.58026 10.0026 2.10963 9.47369 2.76544 9.47369C3.42126 9.47369 3.95063 10.0026 3.95063 10.6579C3.95063 11.3132 3.42122 11.8421 2.76544 11.8421ZM9.87655 11.8421C9.22074 11.8421 8.69137 11.3132 8.69137 10.6579C8.69137 10.0026 9.22074 9.47369 9.87655 9.47369C10.5324 9.47369 11.0617 10.0026 11.0617 10.6579C11.0617 11.3132 10.5323 11.8421 9.87655 11.8421ZM11.0617 7.10527H1.58026V3.15789H11.0617V7.10527Z" fill="#070707" fill-opacity="0.5"/>
</svg>
