<svg width="40" height="40" viewBox="0 0 40 40" fill="none" xmlns="http://www.w3.org/2000/svg">
<g id="filt">

<path id="Vector" d="M13.3333 26.6522C14.6222 26.6522 16.6667 25.9087 16.6667 23.913L10.0269 23.7673C10.0092 23.8136 10.0001 23.8631 10 23.913C10 25.9087 12.0444 26.6522 13.3333 26.6522ZM16.7332 23.7316L13.9728 16.44L19.5296 15.137V28.1174H17.7778C17.6512 28.1174 17.531 28.1706 17.4433 28.2633C17.3557 28.3558 17.3074 28.4801 17.3074 28.6087C17.3074 28.7373 17.3557 28.8616 17.4433 28.9541C17.531 29.0468 17.6512 29.1 17.7778 29.1H22.2222C22.3488 29.1 22.469 29.0468 22.5567 28.9541C22.6443 28.8616 22.6926 28.7373 22.6926 28.6087C22.6926 28.4801 22.6443 28.3558 22.5567 28.2633C22.469 28.1706 22.3488 28.1174 22.2222 28.1174H20.4704V14.915L25.902 13.6397L23.2668 20.6051C23.2668 20.6051 23.2667 20.6051 23.2667 20.6052L23.2667 20.6054L23.3602 20.6408L16.7332 23.7316ZM12.8963 15.9058L9.93342 23.7316L30.0666 20.6012L27.1037 12.7754L27.1036 12.7751C27.0628 12.6682 26.9869 12.5787 26.8881 12.5237C26.7892 12.4685 26.6744 12.452 26.5644 12.4776L26.5642 12.4776L20.4704 13.9064V11.3913C20.4704 11.2627 20.4221 11.1384 20.3345 11.0459C20.2468 10.9532 20.1266 10.9 20 10.9C19.8734 10.9 19.7532 10.9532 19.6655 11.0459C19.5779 11.1384 19.5296 11.2627 19.5296 11.3913V14.1285L13.2299 15.6081L13.2298 15.6081C13.1546 15.6258 13.085 15.6625 13.027 15.7145C12.969 15.7665 12.9243 15.8322 12.8964 15.9056L12.8963 15.9058ZM13.3333 25.7696C13.0143 25.7696 12.3967 25.6847 11.8554 25.4139C11.3215 25.1469 10.8763 24.708 10.8415 24.0006L13.3333 17.4191L15.8251 24.0006C15.7904 24.708 15.3451 25.1469 14.8113 25.4139C14.2699 25.6847 13.6524 25.7696 13.3333 25.7696ZM26.6667 22.6391C26.3476 22.6391 25.7301 22.5542 25.1887 22.2835C24.6549 22.0164 24.2096 21.5776 24.1749 20.8702L26.6667 14.2886L29.1585 20.8702C29.1237 21.5776 28.6785 22.0164 28.1446 22.2835C27.6033 22.5542 26.9857 22.6391 26.6667 22.6391Z" fill="#070707" stroke="#070707" stroke-width="0.2"/>
</g>
</svg>
