<svg width="25" height="21" viewBox="0 0 25 21" fill="none" xmlns="http://www.w3.org/2000/svg">
<path id="Vector" fill-rule="evenodd" clip-rule="evenodd" d="M3.75 20.5C2.75544 20.5 1.80161 20.1049 1.09835 19.4017C0.395088 18.6984 0 17.7446 0 16.75V4.25C0 3.25544 0.395088 2.30161 1.09835 1.59835C1.80161 0.895088 2.75544 0.5 3.75 0.5H21.25C22.2446 0.5 23.1984 0.895088 23.9017 1.59835C24.6049 2.30161 25 3.25544 25 4.25V16.75C25 17.7446 24.6049 18.6984 23.9017 19.4017C23.1984 20.1049 22.2446 20.5 21.25 20.5H3.75ZM7.03125 5.775C6.90392 5.66627 6.75604 5.58423 6.59639 5.53375C6.43675 5.48327 6.26858 5.46538 6.10189 5.48114C5.93519 5.4969 5.77337 5.54599 5.62601 5.62549C5.47865 5.705 5.34876 5.8133 5.24406 5.94396C5.13937 6.07463 5.06198 6.225 5.01651 6.38614C4.97105 6.54729 4.95841 6.71592 4.97937 6.88205C5.00033 7.04817 5.05445 7.20838 5.13851 7.35319C5.22258 7.49799 5.33488 7.62443 5.46875 7.725L10.1562 11.4762C10.8214 12.0088 11.648 12.2989 12.5 12.2989C13.352 12.2989 14.1786 12.0088 14.8438 11.4762L19.5312 7.72625C19.6595 7.62365 19.7662 7.49681 19.8454 7.35297C19.9246 7.20912 19.9746 7.05108 19.9927 6.88789C20.0108 6.72469 19.9966 6.55952 19.9509 6.40181C19.9052 6.24411 19.8288 6.09695 19.7262 5.96875C19.6237 5.84055 19.4968 5.73381 19.353 5.65462C19.2091 5.57544 19.0511 5.52537 18.8879 5.50726C18.7247 5.48915 18.5595 5.50337 18.4018 5.54909C18.2441 5.59482 18.097 5.67115 17.9688 5.77375L13.2812 9.52375C13.0595 9.70125 12.784 9.79797 12.5 9.79797C12.216 9.79797 11.9405 9.70125 11.7188 9.52375L7.03125 5.77375V5.775Z" fill="#FD7949"/>
</svg>
