<svg width="40" height="40" viewBox="0 0 40 40" fill="none" xmlns="http://www.w3.org/2000/svg">
<g id="favorite">

<path id="heart" d="M26.7663 13.4601C26.3753 12.9972 25.9111 12.63 25.4002 12.3795C24.8893 12.129 24.3417 12 23.7887 12C23.2357 12 22.6881 12.129 22.1772 12.3795C21.6663 12.63 21.2021 12.9972 20.8112 13.4601L19.9998 14.4204L19.1884 13.4601C18.3987 12.5255 17.3277 12.0005 16.2109 12.0005C15.0941 12.0005 14.023 12.5255 13.2333 13.4601C12.4436 14.3948 12 15.6623 12 16.9841C12 18.3058 12.4436 19.5734 13.2333 20.508L20 28L26.7663 20.508C27.1574 20.0453 27.4677 19.496 27.6794 18.8913C27.891 18.2867 28 17.6386 28 16.9841C28 16.3296 27.891 15.6815 27.6794 15.0768C27.4677 14.4722 27.1574 13.9228 26.7663 13.4601Z" stroke="#070707" stroke-width="1.2" stroke-linecap="round" stroke-linejoin="round"/>
</g>
</svg>
