<svg width="13" height="13" viewBox="0 0 13 13" fill="none" xmlns="http://www.w3.org/2000/svg">
<rect width="13" height="13" rx="6.5" fill="#FD7949"/>
<path d="M5.91422 10C5.84089 10 5.78089 9.97667 5.73422 9.93C5.68755 9.88333 5.66422 9.82333 5.66422 9.75V5.05C5.66422 4.97667 5.68755 4.91667 5.73422 4.87C5.78089 4.82333 5.84089 4.8 5.91422 4.8H7.09422C7.16089 4.8 7.21755 4.82333 7.26422 4.87C7.31755 4.91667 7.34422 4.97667 7.34422 5.05V9.75C7.34422 9.82333 7.31755 9.88333 7.26422 9.93C7.21755 9.97667 7.16089 10 7.09422 10H5.91422ZM5.90422 4.05C5.83089 4.05 5.77089 4.02667 5.72422 3.98C5.67755 3.93333 5.65422 3.87333 5.65422 3.8V2.91C5.65422 2.83667 5.67755 2.77667 5.72422 2.73C5.77089 2.67667 5.83089 2.65 5.90422 2.65H7.09422C7.16755 2.65 7.22755 2.67667 7.27422 2.73C7.32755 2.77667 7.35422 2.83667 7.35422 2.91V3.8C7.35422 3.87333 7.32755 3.93333 7.27422 3.98C7.22755 4.02667 7.16755 4.05 7.09422 4.05H5.90422Z" fill="white"/>
</svg>
