<svg width="16" height="16" viewBox="0 0 16 16" fill="none" xmlns="http://www.w3.org/2000/svg">
<g id="ep:document-checked">
<path id="Vector" d="M12.586 5L10 2.414V5H12.586ZM13 6H9V2H3V14H13V6ZM2.5 1H10L14 5V14.5C14 14.6326 13.9473 14.7598 13.8536 14.8536C13.7598 14.9473 13.6326 15 13.5 15H2.5C2.36739 15 2.24021 14.9473 2.14645 14.8536C2.05268 14.7598 2 14.6326 2 14.5V1.5C2 1.36739 2.05268 1.24021 2.14645 1.14645C2.24021 1.05268 2.36739 1 2.5 1ZM7.475 10.096L10.303 7.268L11.01 7.975L7.475 11.51L5 9.036L5.707 8.328L7.475 10.096Z" fill="#FD7949"/>
</g>
</svg>
