<svg width="24" height="18" viewBox="-2 0 24 18" fill="none" xmlns="http://www.w3.org/2000/svg">
<g id="icon">
<path id="Vector" d="M10 10.3613C10.6181 10.3613 11.2223 10.1781 11.7362 9.83467C12.2501 9.49129 12.6506 9.00323 12.8871 8.43222C13.1236 7.8612 13.1855 7.23286 13.065 6.62667C12.9444 6.02048 12.6467 5.46366 12.2097 5.02662C11.7727 4.58958 11.2158 4.29195 10.6097 4.17138C10.0035 4.0508 9.37513 4.11268 8.80411 4.34921C8.23309 4.58573 7.74503 4.98627 7.40166 5.50017C7.05828 6.01408 6.875 6.61826 6.875 7.23633C6.87599 8.06483 7.20555 8.85911 7.79139 9.44494C8.37722 10.0308 9.1715 10.3603 10 10.3613ZM10 5.36133C10.3708 5.36133 10.7334 5.4713 11.0417 5.67732C11.35 5.88335 11.5904 6.17619 11.7323 6.5188C11.8742 6.86141 11.9113 7.23841 11.839 7.60212C11.7666 7.96584 11.588 8.29993 11.3258 8.56216C11.0636 8.82438 10.7295 9.00295 10.3658 9.0753C10.0021 9.14765 9.62508 9.11052 9.28247 8.9686C8.93986 8.82669 8.64702 8.58637 8.44099 8.27802C8.23496 7.96968 8.125 7.60717 8.125 7.23633C8.12549 6.7392 8.3232 6.26258 8.67472 5.91105C9.02624 5.55953 9.50287 5.36183 10 5.36133Z" fill="#FD7949"/>
<path id="Vector_2" d="M9.99999 17.8613L15.2725 11.6432C15.3458 11.5498 15.4183 11.4559 15.49 11.3613C16.3906 10.1749 16.8772 8.72584 16.875 7.23633C16.875 5.41296 16.1507 3.66428 14.8614 2.37497C13.572 1.08566 11.8234 0.361328 9.99999 0.361328C8.17663 0.361328 6.42795 1.08566 5.13863 2.37497C3.84932 3.66428 3.12499 5.41296 3.12499 7.23633C3.12281 8.72517 3.60914 10.1736 4.50937 11.3595L4.50999 11.3613C4.50999 11.3613 4.69749 11.6076 4.72562 11.6407L9.99999 17.8613ZM14.4925 10.6082C14.4912 10.6082 14.3462 10.8007 14.3131 10.842L9.99999 15.9288L5.68124 10.8351C5.65374 10.8007 5.50749 10.607 5.50687 10.6063C4.77115 9.63702 4.37355 8.45322 4.37499 7.23633C4.37499 5.74449 4.96763 4.31374 6.02252 3.25885C7.07741 2.20396 8.50815 1.61133 9.99999 1.61133C11.4918 1.61133 12.9226 2.20396 13.9775 3.25885C15.0324 4.31374 15.625 5.74449 15.625 7.23633C15.6263 8.45398 15.2283 9.63846 14.4919 10.6082H14.4925Z" fill="#FD7949"/>
</g>
</svg>
