<svg width="22" height="20" viewBox="0 0 22 20" fill="none" xmlns="http://www.w3.org/2000/svg">
<path id="Vector" d="M4.33333 16.6522C5.62222 16.6522 7.66667 15.9087 7.66667 13.913L1.02685 13.7673C1.00918 13.8136 1.00006 13.8631 1 13.913C1 15.9087 3.04444 16.6522 4.33333 16.6522ZM7.73325 13.7316L4.97281 6.44001L10.5296 5.13703V18.1174H8.77778C8.6512 18.1174 8.53099 18.1706 8.44326 18.2633C8.3557 18.3558 8.30741 18.4801 8.30741 18.6087C8.30741 18.7373 8.3557 18.8616 8.44326 18.9541C8.53099 19.0468 8.6512 19.1 8.77778 19.1H13.2222C13.3488 19.1 13.469 19.0468 13.5567 18.9541C13.6443 18.8616 13.6926 18.7373 13.6926 18.6087C13.6926 18.4801 13.6443 18.3558 13.5567 18.2633C13.469 18.1706 13.3488 18.1174 13.2222 18.1174H11.4704V4.915L16.902 3.63974L14.2668 10.6051C14.2668 10.6051 14.2667 10.6051 14.2667 10.6052L14.2667 10.6054L14.3602 10.6408L7.73325 13.7316ZM3.89629 5.90579L0.93342 13.7316L21.0666 10.6012L18.1037 2.77535L18.1036 2.77509C18.0628 2.66818 17.9869 2.5787 17.8881 2.52366C17.7892 2.46854 17.6744 2.45201 17.5644 2.4776L17.5642 2.47764L11.4704 3.90645V1.3913C11.4704 1.26272 11.4221 1.13838 11.3345 1.04587C11.2468 0.953177 11.1266 0.9 11 0.9C10.8734 0.9 10.7532 0.953176 10.6655 1.04587C10.5779 1.13838 10.5296 1.26272 10.5296 1.3913V4.12848L4.22991 5.60808L4.22985 5.6081C4.15455 5.62584 4.08498 5.66255 4.02698 5.71455C3.96901 5.76652 3.92435 5.83218 3.89637 5.90558L3.89629 5.90579ZM4.33333 15.7696C4.01428 15.7696 3.39673 15.6847 2.85538 15.4139C2.32153 15.1469 1.87631 14.708 1.84154 14.0006L4.33333 7.41906L6.82513 14.0006C6.79036 14.708 6.34513 15.1469 5.81128 15.4139C5.26994 15.6847 4.65238 15.7696 4.33333 15.7696ZM17.6667 12.6391C17.3476 12.6391 16.7301 12.5542 16.1887 12.2835C15.6549 12.0164 15.2096 11.5776 15.1749 10.8702L17.6667 4.28862L20.1585 10.8702C20.1237 11.5776 19.6785 12.0164 19.1446 12.2835C18.6033 12.5542 17.9857 12.6391 17.6667 12.6391Z" fill="#FD7949" stroke="#FD7949" stroke-width="0.2"/>
</svg>
