<svg width="21" height="20" viewBox="0 0 21 20" fill="none" xmlns="http://www.w3.org/2000/svg">
<path id="heart" d="M18.112 2.64266C17.6722 2.12189 17.15 1.70878 16.5752 1.42692C16.0005 1.14507 15.3844 1 14.7623 1C14.1401 1 13.5241 1.14507 12.9493 1.42692C12.3746 1.70878 11.8524 2.12189 11.4126 2.64266L10.4998 3.72294L9.58699 2.64266C8.69858 1.59123 7.49364 1.00054 6.23725 1.00055C4.98085 1.00055 3.77591 1.59123 2.88751 2.64266C1.9991 3.69409 1.5 5.12014 1.5 6.60709C1.5 8.09404 1.9991 9.52008 2.88751 10.5715L10.5 19L18.112 10.5715C18.5521 10.051 18.9011 9.43295 19.1393 8.75272C19.3774 8.0725 19.5 7.3434 19.5 6.60709C19.5 5.87078 19.3774 5.14168 19.1393 4.46145C18.9011 3.78122 18.5521 3.16319 18.112 2.64266Z" stroke="#FD7949" stroke-width="1.2" stroke-linecap="round" stroke-linejoin="round"/>
</svg>
