<svg width="25" height="25" viewBox="0 0 25 25" fill="none" xmlns="http://www.w3.org/2000/svg">
<mask id="path-1-inside-1_501_1843" fill="white">
<path d="M20.9595 19.6426C20.499 18.5517 19.8307 17.5608 18.9918 16.7251C18.1554 15.887 17.1647 15.2188 16.0743 14.7573C16.0645 14.7524 16.0547 14.75 16.045 14.7451C17.566 13.6465 18.5547 11.8569 18.5547 9.83789C18.5547 6.49316 15.8448 3.7832 12.5001 3.7832C9.15533 3.7832 6.44537 6.49316 6.44537 9.83789C6.44537 11.8569 7.43414 13.6465 8.95514 14.7476C8.94537 14.7524 8.93561 14.7549 8.92584 14.7598C7.83209 15.2212 6.85065 15.8828 6.00836 16.7275C5.17025 17.5639 4.50203 18.5546 4.04059 19.645C3.58727 20.7125 3.34279 21.857 3.32037 23.0166C3.31972 23.0427 3.32429 23.0686 3.33382 23.0928C3.34334 23.1171 3.35762 23.1392 3.37582 23.1579C3.39403 23.1765 3.41578 23.1914 3.4398 23.2015C3.46382 23.2116 3.48962 23.2168 3.51569 23.2168H4.98053C5.08795 23.2168 5.1734 23.1313 5.17584 23.0264C5.22467 21.1416 5.98151 19.3765 7.3194 18.0386C8.70367 16.6543 10.5421 15.8926 12.5001 15.8926C14.4581 15.8926 16.2964 16.6543 17.6807 18.0386C19.0186 19.3765 19.7755 21.1416 19.8243 23.0264C19.8267 23.1338 19.9122 23.2168 20.0196 23.2168H21.4844C21.5105 23.2168 21.5363 23.2116 21.5603 23.2015C21.5843 23.1914 21.6061 23.1765 21.6243 23.1579C21.6425 23.1392 21.6568 23.1171 21.6663 23.0928C21.6758 23.0686 21.6804 23.0427 21.6797 23.0166C21.6553 21.8496 21.4136 20.7144 20.9595 19.6426ZM12.5001 14.0371C11.3795 14.0371 10.3248 13.6001 9.53131 12.8066C8.73785 12.0132 8.30084 10.9585 8.30084 9.83789C8.30084 8.71729 8.73785 7.6626 9.53131 6.86914C10.3248 6.07568 11.3795 5.63867 12.5001 5.63867C13.6207 5.63867 14.6754 6.07568 15.4688 6.86914C16.2623 7.6626 16.6993 8.71729 16.6993 9.83789C16.6993 10.9585 16.2623 12.0132 15.4688 12.8066C14.6754 13.6001 13.6207 14.0371 12.5001 14.0371Z"/>
</mask>
<path d="M20.9595 19.6426C20.499 18.5517 19.8307 17.5608 18.9918 16.7251C18.1554 15.887 17.1647 15.2188 16.0743 14.7573C16.0645 14.7524 16.0547 14.75 16.045 14.7451C17.566 13.6465 18.5547 11.8569 18.5547 9.83789C18.5547 6.49316 15.8448 3.7832 12.5001 3.7832C9.15533 3.7832 6.44537 6.49316 6.44537 9.83789C6.44537 11.8569 7.43414 13.6465 8.95514 14.7476C8.94537 14.7524 8.93561 14.7549 8.92584 14.7598C7.83209 15.2212 6.85065 15.8828 6.00836 16.7275C5.17025 17.5639 4.50203 18.5546 4.04059 19.645C3.58727 20.7125 3.34279 21.857 3.32037 23.0166C3.31972 23.0427 3.32429 23.0686 3.33382 23.0928C3.34334 23.1171 3.35762 23.1392 3.37582 23.1579C3.39403 23.1765 3.41578 23.1914 3.4398 23.2015C3.46382 23.2116 3.48962 23.2168 3.51569 23.2168H4.98053C5.08795 23.2168 5.1734 23.1313 5.17584 23.0264C5.22467 21.1416 5.98151 19.3765 7.3194 18.0386C8.70367 16.6543 10.5421 15.8926 12.5001 15.8926C14.4581 15.8926 16.2964 16.6543 17.6807 18.0386C19.0186 19.3765 19.7755 21.1416 19.8243 23.0264C19.8267 23.1338 19.9122 23.2168 20.0196 23.2168H21.4844C21.5105 23.2168 21.5363 23.2116 21.5603 23.2015C21.5843 23.1914 21.6061 23.1765 21.6243 23.1579C21.6425 23.1392 21.6568 23.1171 21.6663 23.0928C21.6758 23.0686 21.6804 23.0427 21.6797 23.0166C21.6553 21.8496 21.4136 20.7144 20.9595 19.6426ZM12.5001 14.0371C11.3795 14.0371 10.3248 13.6001 9.53131 12.8066C8.73785 12.0132 8.30084 10.9585 8.30084 9.83789C8.30084 8.71729 8.73785 7.6626 9.53131 6.86914C10.3248 6.07568 11.3795 5.63867 12.5001 5.63867C13.6207 5.63867 14.6754 6.07568 15.4688 6.86914C16.2623 7.6626 16.6993 8.71729 16.6993 9.83789C16.6993 10.9585 16.2623 12.0132 15.4688 12.8066C14.6754 13.6001 13.6207 14.0371 12.5001 14.0371Z" fill="#070707" stroke="white" stroke-width="0.6" mask="url(#path-1-inside-1_501_1843)"/>
</svg>
