<svg width="21" height="18" viewBox="0 0 21 18" fill="none" xmlns="http://www.w3.org/2000/svg">
<path id="Vector" d="M1.41892 0.731959L2.13851 0L19.1149 17.268L18.3953 18L15.0101 14.5464C13.6216 15.134 12.1013 15.4639 10.5 15.4639C5.87838 15.4639 1.88514 12.732 0 8.76289C0.983108 6.70103 2.52365 4.97938 4.41892 3.79381L1.41892 0.731959ZM10.5 14.433C11.8074 14.433 13.0642 14.1959 14.2196 13.7526L13.0845 12.5876C12.3446 13.1031 11.4628 13.4021 10.5 13.4021C7.96622 13.4021 5.93919 11.3402 5.93919 8.76289C5.93919 7.78351 6.23311 6.8866 6.73986 6.13402L5.16892 4.54639C3.47194 5.55203 2.07717 7.00998 1.13514 8.76289C2.93919 12.1443 6.44595 14.433 10.5 14.433ZM19.8649 8.76289C18.0608 5.38144 14.5541 3.09278 10.5 3.09278C9.33446 3.09278 8.19932 3.28866 7.14527 3.63918L6.35473 2.83505C7.64189 2.3299 9.04054 2.06186 10.5 2.06186C15.1216 2.06186 19.1149 4.79381 21 8.76289C20.079 10.707 18.6525 12.3577 16.875 13.5361L16.1453 12.7835C17.6959 11.7938 18.9831 10.4124 19.8649 8.76289ZM10.5 4.12371C13.0338 4.12371 15.0608 6.18557 15.0608 8.76289C15.0608 9.60825 14.8378 10.3918 14.4527 11.0722L13.7027 10.3093C13.9257 9.83505 14.0473 9.31959 14.0473 8.76289C14.0473 7.80592 13.6736 6.88815 13.0083 6.21147C12.3431 5.53479 11.4408 5.15464 10.5 5.15464C9.9527 5.15464 9.44594 5.27835 8.97973 5.50516L8.22973 4.74227C8.89865 4.35052 9.66892 4.12371 10.5 4.12371ZM6.9527 8.76289C6.9527 9.71985 7.32643 10.6376 7.99168 11.3143C8.65693 11.991 9.5592 12.3711 10.5 12.3711C11.1791 12.3711 11.8074 12.1753 12.3446 11.8557L7.45946 6.8866C7.14527 7.43299 6.9527 8.07217 6.9527 8.76289Z" fill="#FD7949"/>
</svg>
