<svg width="14" height="19" viewBox="0 0 14 19" fill="none" xmlns="http://www.w3.org/2000/svg">
<path id="icon" d="M7.38381 10.7536L7.38977 10.7254C7.50511 10.2453 7.65028 9.64665 7.53693 9.10424C7.46136 8.67634 7.14915 8.5096 6.88267 8.49754C6.56847 8.48348 6.28807 8.66429 6.21847 8.92745C6.08722 9.4096 6.20455 10.0685 6.41932 10.9083C6.14886 11.5592 5.71733 12.5054 5.40114 13.0679C4.8125 13.3752 4.02301 13.8493 3.90568 14.448C3.88182 14.5585 3.90966 14.6991 3.97528 14.8257C4.04886 14.9663 4.16619 15.0748 4.30341 15.127C4.36307 15.1491 4.43466 15.1672 4.51818 15.1672C4.86818 15.1672 5.43494 14.8819 6.19062 13.5721C6.30597 13.5339 6.42528 13.4937 6.54062 13.4536C7.08153 13.2687 7.64233 13.0759 8.14943 12.9895C8.71023 13.2929 9.34858 13.4877 9.7821 13.4877C10.2116 13.4877 10.3807 13.2306 10.4443 13.0759C10.5557 12.8047 10.502 12.4632 10.321 12.2804C10.0585 12.0192 9.42017 11.9509 8.42585 12.0754C7.93665 11.7741 7.61648 11.3643 7.38381 10.7536ZM5.20227 13.8051C4.92585 14.2109 4.71705 14.4138 4.60369 14.5022C4.73693 14.2551 4.99744 13.994 5.20227 13.8051ZM6.94432 9.07411C7.04773 9.2529 7.03381 9.7933 6.95426 10.0665C6.85682 9.66674 6.8429 9.10022 6.90057 9.03393C6.91648 9.03594 6.9304 9.04799 6.94432 9.07411ZM6.9125 11.4949C7.12528 11.8665 7.39375 12.1859 7.69006 12.423C7.26051 12.5214 6.86875 12.6842 6.51875 12.8288C6.43523 12.8629 6.35369 12.8971 6.27415 12.9292C6.53864 12.4451 6.75938 11.8967 6.9125 11.4949ZM10.0068 12.8107C10.0088 12.8147 10.0108 12.8208 9.99886 12.8288H9.99489L9.99091 12.8348C9.975 12.8449 9.81193 12.9413 9.10994 12.6621C9.91733 12.6239 10.0048 12.8087 10.0068 12.8107ZM13.8131 5.01205L9.53352 0.688839C9.4142 0.568304 9.25312 0.5 9.08409 0.5H0.636364C0.284375 0.5 0 0.787277 0 1.14286V17.8571C0 18.2127 0.284375 18.5 0.636364 18.5H13.3636C13.7156 18.5 14 18.2127 14 17.8571V5.46808C14 5.29732 13.9324 5.13259 13.8131 5.01205ZM12.5324 5.76339H8.78977V1.98259L12.5324 5.76339ZM12.5682 17.0536H1.43182V1.94643H7.4375V6.28571C7.4375 6.50949 7.5255 6.7241 7.68213 6.88234C7.83877 7.04057 8.05121 7.12946 8.27273 7.12946H12.5682V17.0536Z" fill="#6A4ED4"/>
</svg>
