<svg width="11" height="15" viewBox="0 0 11 15" fill="none" xmlns="http://www.w3.org/2000/svg">
<path id="Vector" d="M5.80156 8.475L5.80625 8.45312C5.89687 8.07969 6.01094 7.61406 5.92188 7.19219C5.8625 6.85938 5.61719 6.72969 5.40781 6.72031C5.16094 6.70937 4.94063 6.85 4.88594 7.05469C4.78281 7.42969 4.875 7.94219 5.04375 8.59531C4.83125 9.10156 4.49219 9.8375 4.24375 10.275C3.78125 10.5141 3.16094 10.8828 3.06875 11.3484C3.05 11.4344 3.07187 11.5437 3.12344 11.6422C3.18125 11.7516 3.27344 11.8359 3.38125 11.8766C3.42812 11.8937 3.48438 11.9078 3.55 11.9078C3.825 11.9078 4.27031 11.6859 4.86406 10.6672C4.95469 10.6375 5.04844 10.6062 5.13906 10.575C5.56406 10.4312 6.00469 10.2812 6.40312 10.2141C6.84375 10.45 7.34531 10.6016 7.68594 10.6016C8.02344 10.6016 8.15625 10.4016 8.20625 10.2812C8.29375 10.0703 8.25156 9.80469 8.10938 9.6625C7.90312 9.45938 7.40156 9.40625 6.62031 9.50313C6.23594 9.26875 5.98438 8.95 5.80156 8.475ZM4.0875 10.8484C3.87031 11.1641 3.70625 11.3219 3.61719 11.3906C3.72187 11.1984 3.92656 10.9953 4.0875 10.8484ZM5.45625 7.16875C5.5375 7.30781 5.52656 7.72813 5.46406 7.94063C5.3875 7.62969 5.37656 7.18906 5.42188 7.1375C5.43437 7.13906 5.44531 7.14844 5.45625 7.16875ZM5.43125 9.05156C5.59844 9.34062 5.80938 9.58906 6.04219 9.77344C5.70469 9.85 5.39687 9.97656 5.12187 10.0891C5.05625 10.1156 4.99219 10.1422 4.92969 10.1672C5.1375 9.79063 5.31094 9.36406 5.43125 9.05156ZM7.8625 10.075C7.86406 10.0781 7.86562 10.0828 7.85625 10.0891H7.85312L7.85 10.0938C7.8375 10.1016 7.70937 10.1766 7.15781 9.95938C7.79219 9.92969 7.86094 10.0734 7.8625 10.075ZM10.8531 4.00938L7.49063 0.646875C7.39688 0.553125 7.27031 0.5 7.1375 0.5H0.5C0.223437 0.5 0 0.723437 0 1V14C0 14.2766 0.223437 14.5 0.5 14.5H10.5C10.7766 14.5 11 14.2766 11 14V4.36406C11 4.23125 10.9469 4.10313 10.8531 4.00938ZM9.84688 4.59375H6.90625V1.65313L9.84688 4.59375ZM9.875 13.375H1.125V1.625H5.84375V5C5.84375 5.17405 5.91289 5.34097 6.03596 5.46404C6.15903 5.58711 6.32595 5.65625 6.5 5.65625H9.875V13.375Z" fill="white"/>
</svg>
