<svg width="23" height="24" viewBox="0 -1 23 24" fill="none" xmlns="http://www.w3.org/2000/svg">
<path id="Vector" fill-rule="evenodd" clip-rule="evenodd" d="M16.9195 21.9969C15.2607 21.9385 10.5596 21.3172 5.63618 16.6099C0.713911 11.9015 0.0653638 7.40679 0.00315864 5.81933C-0.0889971 3.40014 1.84858 1.05035 4.08681 0.132686C4.35634 0.0213839 4.6515 -0.0209921 4.94332 0.00971599C5.23514 0.0404241 5.5136 0.143161 5.75138 0.307846C7.59449 1.59235 8.86624 3.53564 9.95829 5.06361C10.1986 5.39931 10.3013 5.80782 10.2469 6.21129C10.1925 6.61477 9.98483 6.98501 9.66339 7.25146L7.41594 8.84773C7.30736 8.92272 7.23093 9.03284 7.20084 9.15765C7.17076 9.28246 7.18906 9.41347 7.25236 9.52634C7.76152 10.411 8.66695 11.7285 9.70371 12.72C10.7416 13.7115 12.1838 14.6346 13.1734 15.1766C13.2974 15.2432 13.4435 15.2619 13.5815 15.2287C13.7194 15.1955 13.8389 15.113 13.9152 14.9982L15.3782 12.8687C15.6472 12.527 16.0439 12.2981 16.4854 12.23C16.9269 12.1618 17.3789 12.2596 17.7466 12.503C19.3674 13.576 21.2589 14.7712 22.6435 16.4667C22.8297 16.6957 22.9482 16.9683 22.9865 17.2561C23.0247 17.5439 22.9815 17.8363 22.8612 18.1026C21.8971 20.2541 19.4572 22.0861 16.9195 21.9969Z" fill="#6A4ED4"/>
</svg>
