<svg width="24" height="20" viewBox="-1.5 0 24 20" fill="none" xmlns="http://www.w3.org/2000/svg">
<g id="printer" clip-path="url(#clip0_901_6112)">
<g id="Vector">
<mask id="path-1-outside-1_901_6112" maskUnits="userSpaceOnUse" x="3.90234" y="-0.333252" width="14" height="10" fill="black">
<rect fill="white" x="3.90234" y="-0.333252" width="14" height="10"/>
<path d="M5.90234 7.50008V2.66675C5.90234 2.11446 6.35006 1.66675 6.90234 1.66675H14.9023C15.4546 1.66675 15.9023 2.11446 15.9023 2.66675V7.50008"/>
</mask>
<path d="M5.90234 7.50008V2.66675C5.90234 2.11446 6.35006 1.66675 6.90234 1.66675H14.9023C15.4546 1.66675 15.9023 2.11446 15.9023 2.66675V7.50008" fill="#070707"/>
<path d="M3.90234 7.50008C3.90234 8.60465 4.79777 9.50008 5.90234 9.50008C7.00691 9.50008 7.90234 8.60465 7.90234 7.50008H3.90234ZM13.9023 7.50008C13.9023 8.60465 14.7978 9.50008 15.9023 9.50008C17.0069 9.50008 17.9023 8.60465 17.9023 7.50008H13.9023ZM7.90234 7.50008V2.66675H3.90234V7.50008H7.90234ZM6.90234 3.66675H14.9023V-0.333252H6.90234V3.66675ZM13.9023 2.66675V7.50008H17.9023V2.66675H13.9023ZM14.9023 3.66675C14.3501 3.66675 13.9023 3.21903 13.9023 2.66675H17.9023C17.9023 1.00989 16.5592 -0.333252 14.9023 -0.333252V3.66675ZM7.90234 2.66675C7.90234 3.21903 7.45463 3.66675 6.90234 3.66675V-0.333252C5.24549 -0.333252 3.90234 1.0099 3.90234 2.66675H7.90234Z" fill="white" mask="url(#path-1-outside-1_901_6112)"/>
</g>
<g id="Vector_2">
<path d="M5.90365 15H4.23698C3.79495 15 3.37103 14.8244 3.05847 14.5118C2.74591 14.1993 2.57031 13.7754 2.57031 13.3333V9.16667C2.57031 8.72464 2.74591 8.30072 3.05847 7.98816C3.37103 7.6756 3.79495 7.5 4.23698 7.5H17.5703C18.0123 7.5 18.4363 7.6756 18.7488 7.98816C19.0614 8.30072 19.237 8.72464 19.237 9.16667V13.3333C19.237 13.7754 19.0614 14.1993 18.7488 14.5118C18.4363 14.8244 18.0123 15 17.5703 15H15.9036" fill="#070707"/>
<path d="M5.90365 15H4.23698C3.79495 15 3.37103 14.8244 3.05847 14.5118C2.74591 14.1993 2.57031 13.7754 2.57031 13.3333V9.16667C2.57031 8.72464 2.74591 8.30072 3.05847 7.98816C3.37103 7.6756 3.79495 7.5 4.23698 7.5H17.5703C18.0123 7.5 18.4363 7.6756 18.7488 7.98816C19.0614 8.30072 19.237 8.72464 19.237 9.16667V13.3333C19.237 13.7754 19.0614 14.1993 18.7488 14.5118C18.4363 14.8244 18.0123 15 17.5703 15H15.9036" stroke="#070707" stroke-width="2" stroke-linecap="round" stroke-linejoin="round"/>
</g>
<path id="Vector_3" d="M14.9023 10.6667H6.90234C5.79778 10.6667 4.90234 11.5622 4.90234 12.6667V17.3334C4.90234 18.438 5.79777 19.3334 6.90234 19.3334H14.9023C16.0069 19.3334 16.9023 18.438 16.9023 17.3334V12.6667C16.9023 11.5622 16.0069 10.6667 14.9023 10.6667Z" fill="#070707" stroke="white" stroke-width="2" stroke-linecap="round" stroke-linejoin="round"/>
</g>
<defs>
<clipPath id="clip0_901_6112">
<rect width="20" height="20" fill="white" transform="translate(0.902344)"/>
</clipPath>
</defs>
</svg>
