<svg width="24" height="20" viewBox="-1.5 0 24 20" fill="none" xmlns="http://www.w3.org/2000/svg">
<g id="share">
<path id="Vector" d="M15.9023 6.66675C17.2831 6.66675 18.4023 5.54746 18.4023 4.16675C18.4023 2.78604 17.2831 1.66675 15.9023 1.66675C14.5216 1.66675 13.4023 2.78604 13.4023 4.16675C13.4023 5.54746 14.5216 6.66675 15.9023 6.66675Z" fill="#070707"/>
<path id="Vector_2" d="M5.90234 12.5C7.28306 12.5 8.40234 11.3807 8.40234 10C8.40234 8.61929 7.28306 7.5 5.90234 7.5C4.52163 7.5 3.40234 8.61929 3.40234 10C3.40234 11.3807 4.52163 12.5 5.90234 12.5Z" fill="#070707"/>
<path id="Vector_3" d="M15.9023 18.3333C17.2831 18.3333 18.4023 17.214 18.4023 15.8333C18.4023 14.4525 17.2831 13.3333 15.9023 13.3333C14.5216 13.3333 13.4023 14.4525 13.4023 15.8333C13.4023 17.214 14.5216 18.3333 15.9023 18.3333Z" fill="#070707"/>
<path id="Vector_4" d="M8.06055 11.2583L13.7522 14.575" stroke="#070707" stroke-width="1.5" stroke-linecap="round" stroke-linejoin="round"/>
<path id="Vector_5" d="M13.7439 5.42505L8.06055 8.74172" stroke="#070707" stroke-width="1.5" stroke-linecap="round" stroke-linejoin="round"/>
</g>
</svg>
