<svg width="32" height="33" viewBox="0 0 32 33" fill="none" xmlns="http://www.w3.org/2000/svg">
<path id="vk" d="M20.912 0.499512H11.089C2.125 0.499512 0 2.62451 0 11.5885V21.4115C0 30.3755 2.125 32.5005 11.089 32.5005H20.912C29.876 32.5005 32.001 30.3755 32.001 21.4115V11.5885C32.001 2.62451 29.855 0.499512 20.912 0.499512ZM25.834 23.3275H23.511C22.631 23.3275 22.36 22.6295 20.777 21.0255C19.402 19.6925 18.793 19.5155 18.454 19.5155C17.975 19.5155 17.839 19.6505 17.839 20.3075V22.4065C17.839 22.9695 17.662 23.3075 16.172 23.3075C13.708 23.3075 10.974 21.8175 9.057 19.0415C6.166 14.9735 5.375 11.9265 5.375 11.2965C5.375 10.9575 5.51 10.6405 6.161 10.6405H8.489C9.078 10.6405 9.302 10.9115 9.531 11.5415C10.682 14.8645 12.599 17.7755 13.39 17.7755C13.682 17.7755 13.817 17.6405 13.817 16.8955V13.4635C13.728 11.8805 12.895 11.7445 12.895 11.1825C12.895 10.9115 13.119 10.6405 13.478 10.6405H17.139C17.634 10.6405 17.816 10.9115 17.816 11.4945V16.1245C17.816 16.6245 18.04 16.8015 18.175 16.8015C18.467 16.8015 18.717 16.6245 19.258 16.0825C20.93 14.2075 22.128 11.3165 22.128 11.3165C22.284 10.9775 22.555 10.6605 23.144 10.6605H25.472C26.17 10.6605 26.326 11.0195 26.17 11.5195C25.878 12.8735 23.029 16.8945 23.029 16.8945C22.784 17.3005 22.69 17.4775 23.029 17.9305C23.279 18.2695 24.092 18.9725 24.633 19.6025C25.628 20.7325 26.393 21.6805 26.597 22.3365C26.826 22.9875 26.488 23.3265 25.831 23.3265L25.834 23.3275Z" fill="#487BFF"/>
</svg>
