<svg width="37" height="37" viewBox="0 0 37 37" fill="none" xmlns="http://www.w3.org/2000/svg">
<g id="google">
<path id="Vector" d="M33.6194 15.4803H32.3776V15.4163H18.5026V21.583H27.2153C25.9442 25.1728 22.5287 27.7497 18.5026 27.7497C13.3943 27.7497 9.2526 23.608 9.2526 18.4997C9.2526 13.3914 13.3943 9.24967 18.5026 9.24967C20.8606 9.24967 23.0058 10.1392 24.6392 11.5922L28.9998 7.23163C26.2464 4.66553 22.5634 3.08301 18.5026 3.08301C9.98875 3.08301 3.08594 9.98582 3.08594 18.4997C3.08594 27.0135 9.98875 33.9163 18.5026 33.9163C27.0165 33.9163 33.9193 27.0135 33.9193 18.4997C33.9193 17.466 33.8129 16.457 33.6194 15.4803Z" fill="#FFC107"/>
<path id="Vector_2" d="M4.85938 11.324L9.92452 15.0386C11.2951 11.6454 14.6143 9.24967 18.4985 9.24967C20.8565 9.24967 23.0017 10.1392 24.6351 11.5922L28.9957 7.23163C26.2423 4.66553 22.5592 3.08301 18.4985 3.08301C12.577 3.08301 7.44167 6.42611 4.85938 11.324Z" fill="#FF3D00"/>
<path id="Vector_3" d="M18.4981 33.9167C22.4803 33.9167 26.0985 32.3928 28.8342 29.9145L24.0628 25.8769C22.4629 27.0936 20.508 27.7516 18.4981 27.75C14.4883 27.75 11.0835 25.1932 9.80081 21.625L4.77344 25.4984C7.3249 30.4911 12.5064 33.9167 18.4981 33.9167Z" fill="#4CAF50"/>
<path id="Vector_4" d="M33.6168 15.4805H32.375V15.4165H18.5V21.5832H27.2127C26.6047 23.2917 25.5095 24.7846 24.0623 25.8775L24.0646 25.8759L28.8361 29.9136C28.4985 30.2204 33.9167 26.2082 33.9167 18.4998C33.9167 17.4661 33.8103 16.4571 33.6168 15.4805Z" fill="#1976D2"/>
</g>
</svg>
