<svg width="40" height="40" viewBox="0 0 40 40" fill="none" xmlns="http://www.w3.org/2000/svg">
<path id="VK" d="M26.1392 0H13.8608C2.65617 0 0 2.65617 0 13.8608V26.1392C0 37.3438 2.65617 40 13.8608 40H26.1392C37.3438 40 40 37.3438 40 26.1392V13.8608C40 2.65617 37.3176 0 26.1392 0ZM32.2915 28.5341H29.3878C28.2879 28.5341 27.9491 27.6616 25.9704 25.6567C24.2517 23.9905 23.4905 23.7693 23.0668 23.7693C22.468 23.7693 22.2981 23.938 22.2981 24.7592V27.3829C22.2981 28.0866 22.0768 28.5091 20.2144 28.5091C17.1345 28.5091 13.7171 26.6467 11.3209 23.1768C7.70726 18.0919 6.71854 14.2833 6.71854 13.4958C6.71854 13.0721 6.88728 12.6759 7.70101 12.6759H10.6109C11.3471 12.6759 11.6271 13.0146 11.9134 13.8021C13.3521 17.9557 15.7483 21.5943 16.737 21.5943C17.102 21.5943 17.2707 21.4256 17.2707 20.4944V16.2045C17.1595 14.2258 16.1182 14.0558 16.1182 13.3533C16.1182 13.0146 16.3982 12.6759 16.847 12.6759H21.4231C22.0418 12.6759 22.2693 13.0146 22.2693 13.7433V19.5306C22.2693 20.1556 22.5493 20.3769 22.718 20.3769C23.083 20.3769 23.3955 20.1556 24.0717 19.4781C26.1617 17.1345 27.6591 13.5208 27.6591 13.5208C27.8541 13.0971 28.1929 12.7009 28.9291 12.7009H31.839C32.7115 12.7009 32.9065 13.1496 32.7115 13.7746C32.3465 15.467 28.7854 20.4931 28.7854 20.4931C28.4791 21.0006 28.3616 21.2218 28.7854 21.7881C29.0978 22.2118 30.1141 23.0905 30.7903 23.878C32.034 25.2905 32.9902 26.4754 33.2452 27.2954C33.5315 28.1091 33.109 28.5329 32.2877 28.5329L32.2915 28.5341Z" fill="#4162D8"/>
</svg>
