<svg width="40" height="40" viewBox="0 0 40 40" fill="none" xmlns="http://www.w3.org/2000/svg">
<g id="whatsapp-icon" clip-path="url(#clip0_616_9569)">
<path id="Vector" d="M0.441742 19.7554C0.440785 23.1885 1.34482 26.5406 3.06382 29.4952L0.277344 39.5902L10.689 36.8814C13.5688 38.4369 16.7953 39.252 20.0741 39.2522H20.0827C30.9067 39.2522 39.7177 30.5127 39.7223 19.7708C39.7244 14.5655 37.6833 9.67085 33.9749 5.98836C30.2671 2.30619 25.336 0.277278 20.0819 0.274902C9.2567 0.274902 0.446371 9.01392 0.441902 19.7554" fill="url(#paint0_linear_616_9569)"/>
<path id="Vector_2" d="M15.0008 11.313C14.62 10.4731 14.2192 10.4562 13.8571 10.4414C13.5605 10.4288 13.2215 10.4297 12.8828 10.4297C12.5438 10.4297 11.993 10.5562 11.5274 11.0607C11.0613 11.5656 9.74805 12.7857 9.74805 15.2672C9.74805 17.7489 11.5697 20.1472 11.8236 20.484C12.0779 20.8202 15.3403 26.0757 20.5072 28.0975C24.8014 29.7776 25.6752 29.4435 26.6072 29.3592C27.5393 29.2753 29.6149 28.1394 30.0383 26.9616C30.4621 25.784 30.4621 24.7745 30.3351 24.5635C30.208 24.3534 29.869 24.2272 29.3606 23.975C28.8521 23.7227 26.3529 22.5025 25.887 22.3341C25.421 22.1659 25.0821 22.082 24.7431 22.587C24.4041 23.0913 23.4306 24.2272 23.1339 24.5635C22.8375 24.9007 22.5408 24.9427 22.0326 24.6904C21.5239 24.4373 19.8868 23.9053 17.9445 22.1872C16.4333 20.8502 15.4131 19.1991 15.1165 18.6941C14.82 18.1898 15.0848 17.9165 15.3397 17.6651C15.5681 17.4391 15.8482 17.0761 16.1026 16.7817C16.3561 16.4872 16.4407 16.277 16.6102 15.9406C16.7798 15.6039 16.6949 15.3093 16.568 15.057C16.4407 14.8048 15.4528 12.3102 15.0008 11.313Z" fill="white"/>
</g>
<defs>
<linearGradient id="paint0_linear_616_9569" x1="1972.53" y1="3931.8" x2="1972.53" y2="0.274902" gradientUnits="userSpaceOnUse">
<stop stop-color="#1FAF38"/>
<stop offset="1" stop-color="#60D669"/>
</linearGradient>
<clipPath id="clip0_616_9569">
<rect width="40" height="40" fill="white"/>
</clipPath>
</defs>
</svg>
