<svg width="37" height="40" viewBox="0 0 37 40" fill="none" xmlns="http://www.w3.org/2000/svg">
<path id="Vector" fill-rule="evenodd" clip-rule="evenodd" d="M27.9025 1.03057C21.71 -0.343525 15.2882 -0.343525 9.09565 1.03057L8.4284 1.17711C6.68651 1.5637 5.08668 2.42207 3.80664 3.65687C2.52659 4.89166 1.61643 6.45454 1.17728 8.17189C-0.392426 14.3119 -0.392426 20.7439 1.17728 26.8839C1.59608 28.5217 2.44368 30.0205 3.63414 31.2283C4.82461 32.4361 6.31562 33.31 7.95602 33.7614L8.87126 39.1853C8.90048 39.3575 8.97568 39.5188 9.08902 39.6524C9.20237 39.786 9.34972 39.887 9.51573 39.9448C9.68174 40.0027 9.86034 40.0153 10.0329 39.9814C10.2055 39.9475 10.3658 39.8682 10.4971 39.7519L15.8724 34.9787C19.9076 35.2231 23.9573 34.9028 27.9025 34.0271L28.5717 33.8806C30.3136 33.494 31.9134 32.6356 33.1935 31.4009C34.4735 30.1661 35.3837 28.6032 35.8228 26.8858C37.3924 20.7458 37.3924 14.3139 35.8228 8.17384C35.3835 6.45625 34.4731 4.8932 33.1927 3.65838C31.9123 2.42356 30.312 1.56534 28.5698 1.17907L27.9025 1.03057ZM10.7569 8.01362C10.3911 7.96077 10.018 8.03386 9.69991 8.22073H9.67235C8.93425 8.65058 8.26897 9.19179 7.70211 9.82875C7.22972 10.37 6.97385 10.917 6.90693 11.4446C6.86756 11.7572 6.89512 12.0737 6.98763 12.3727L7.02305 12.3922C7.55449 13.9416 8.24732 15.4324 9.09368 16.8352C10.185 18.8057 11.528 20.628 13.0893 22.2572L13.1365 22.3236L13.2113 22.3783L13.2566 22.4311L13.3117 22.478C14.9586 24.0325 16.7987 25.372 18.7874 26.4638C21.0608 27.6928 22.4405 28.2731 23.2692 28.5153V28.5271C23.5113 28.6013 23.7317 28.6345 23.9541 28.6345C24.6599 28.5828 25.3278 28.298 25.8516 27.8256C26.4913 27.2629 27.0325 26.6006 27.4537 25.864V25.8503C27.8494 25.1078 27.7155 24.4084 27.1447 23.9336C25.9982 22.9391 24.7584 22.0559 23.4424 21.2959C22.5606 20.8211 21.665 21.1083 21.3029 21.589L20.5294 22.5581C20.1318 23.0387 19.4114 22.9723 19.4114 22.9723L19.3917 22.984C14.0163 21.6222 12.5815 16.2198 12.5815 16.2198C12.5815 16.2198 12.5145 15.4851 13.0125 15.11L13.9809 14.3363C14.4454 13.9611 14.7682 13.0741 14.2702 12.1988C13.5097 10.8912 12.6217 9.66087 11.619 8.52553C11.4003 8.25834 11.0936 8.07635 10.7529 8.01167L10.7569 8.01362ZM19.8385 5.6651C19.5775 5.6651 19.3272 5.76803 19.1426 5.95123C18.958 6.13444 18.8544 6.38293 18.8544 6.64202C18.8544 6.90112 18.958 7.1496 19.1426 7.33281C19.3272 7.51602 19.5775 7.61895 19.8385 7.61895C22.3284 7.61895 24.395 8.42589 26.0307 9.97333C26.8711 10.8193 27.5266 11.8217 27.9557 12.9197C28.3867 14.0198 28.5835 15.194 28.5324 16.3702C28.5269 16.4985 28.547 16.6266 28.5915 16.7472C28.6359 16.8678 28.7038 16.9785 28.7914 17.073C28.9682 17.2639 29.2142 17.3773 29.4752 17.3882C29.7362 17.3991 29.9908 17.3066 30.1832 17.1311C30.3755 16.9555 30.4897 16.7114 30.5006 16.4523C30.5617 15.0054 30.3197 13.5617 29.7901 12.2124C29.2581 10.8567 28.4516 9.62383 27.4203 8.59001L27.4006 8.57047C25.3713 6.64593 22.8027 5.6651 19.8385 5.6651ZM19.7716 8.87722C19.5106 8.87722 19.2602 8.98015 19.0757 9.16336C18.8911 9.34657 18.7874 9.59505 18.7874 9.85415C18.7874 10.1132 18.8911 10.3617 19.0757 10.5449C19.2602 10.7281 19.5106 10.8311 19.7716 10.8311H19.805C21.6001 10.9581 22.907 11.552 23.8223 12.527C24.7611 13.5313 25.2473 14.7798 25.2099 16.3233C25.2039 16.5824 25.3018 16.8333 25.4822 17.0207C25.6625 17.2081 25.9104 17.3168 26.1714 17.3227C26.4324 17.3287 26.6851 17.2315 26.8739 17.0525C27.0627 16.8735 27.1722 16.6274 27.1782 16.3683C27.2254 14.3421 26.568 12.5934 25.265 11.1984V11.1945C23.9325 9.77599 22.104 9.02572 19.9034 8.87918L19.87 8.87527L19.7716 8.87722ZM19.7342 12.1499C19.6025 12.1384 19.4698 12.1533 19.344 12.1938C19.2182 12.2343 19.102 12.2995 19.0022 12.3856C18.9024 12.4717 18.8211 12.5769 18.7631 12.6948C18.7052 12.8128 18.6717 12.9412 18.6649 13.0722C18.658 13.2033 18.6778 13.3344 18.7231 13.4577C18.7684 13.581 18.8382 13.694 18.9285 13.7899C19.0187 13.8858 19.1275 13.9627 19.2484 14.016C19.3692 14.0692 19.4996 14.0977 19.6318 14.0999C20.4546 14.1428 20.9801 14.389 21.3108 14.7192C21.6434 15.0514 21.8914 15.5848 21.9367 16.4191C21.9391 16.5502 21.9681 16.6794 22.022 16.7992C22.0758 16.9189 22.1534 17.0267 22.2501 17.116C22.3468 17.2053 22.4606 17.2744 22.5848 17.3192C22.709 17.3639 22.8409 17.3834 22.9728 17.3765C23.1047 17.3695 23.2339 17.3363 23.3526 17.2787C23.4713 17.2212 23.5771 17.1405 23.6637 17.0415C23.7503 16.9425 23.8159 16.8272 23.8567 16.7025C23.8975 16.5777 23.9126 16.4461 23.901 16.3155C23.838 15.1432 23.468 14.1077 22.7102 13.3457C21.9485 12.5837 20.9112 12.2124 19.7342 12.1499Z" fill="#7C519E"/>
</svg>
