<svg width="52" height="36" viewBox="0 0 52 36" fill="none" xmlns="http://www.w3.org/2000/svg">
<path id="YT" d="M50.9112 5.9915C50.6168 4.93173 50.0433 3.97226 49.2517 3.2151C48.4378 2.43465 47.4402 1.87638 46.3531 1.59298C42.2846 0.510841 25.9848 0.510841 25.9848 0.510841C19.1896 0.432823 12.3961 0.775964 5.64258 1.53833C4.55547 1.84267 3.55975 2.41341 2.74397 3.1998C1.94241 3.97806 1.36182 4.93778 1.05853 5.98932C0.329961 9.95005 -0.0240268 13.9717 0.00133705 18C-0.0246595 22.0247 0.32846 26.045 1.05853 30.0107C1.35532 31.0578 1.93374 32.0132 2.73747 32.7849C3.54119 33.5566 4.54206 34.114 5.64258 34.4092C9.76519 35.4891 25.9848 35.4891 25.9848 35.4891C32.7887 35.5673 39.5909 35.2241 46.3531 34.4616C47.4402 34.1782 48.4378 33.62 49.2517 32.8395C50.043 32.0825 50.6158 31.1229 50.909 30.0631C51.6566 26.1039 52.0201 22.0806 51.9943 18.0503C52.0506 14.0029 51.6875 9.96277 50.9112 5.9915ZM20.8029 25.4853V10.5168L34.3644 18.0022L20.8029 25.4853Z" fill="#FF0000"/>
</svg>
