<svg width="41" height="40" viewBox="0 0 41 40" fill="none" xmlns="http://www.w3.org/2000/svg">
<g id="Group">
<path id="Vector" d="M15.875 13.0625C15.875 14.2891 16.3623 15.4655 17.2296 16.3329C18.097 17.2002 19.2734 17.6875 20.5 17.6875C21.7266 17.6875 22.903 17.2002 23.7704 16.3329C24.6377 15.4655 25.125 14.2891 25.125 13.0625C25.125 11.8359 24.6377 10.6595 23.7704 9.79213C22.903 8.92478 21.7266 8.4375 20.5 8.4375C19.2734 8.4375 18.097 8.92478 17.2296 9.79213C16.3623 10.6595 15.875 11.8359 15.875 13.0625Z" stroke="#FD7949" stroke-width="3" stroke-linecap="round" stroke-linejoin="round"/>
<path id="Vector_2" d="M39 20C39 38.5 39 38.5 20.5 38.5C2 38.5 2 38.5 2 20C2 1.5 2 1.5 20.5 1.5C39 1.5 39 1.5 39 20Z" stroke="#FD7949" stroke-width="3" stroke-linecap="round" stroke-linejoin="round"/>
<path id="Vector_3" d="M14.7188 22.3125C17.8013 23.8549 23.1987 23.8549 26.2812 22.3125M14.7188 31.5625L20.5 24.625M20.5 24.625L26.2812 31.5625M20.5 24.625V23.4688" stroke="#FD7949" stroke-width="3" stroke-linecap="round" stroke-linejoin="round"/>
</g>
</svg>
