<svg width="20" height="24" viewBox="0 0 20 24" fill="none" xmlns="http://www.w3.org/2000/svg">
<path id="icon" d="M17.0505 7.125L12.9435 2.92275V7.125H17.0505ZM17.708 8.75H11.3553V2.25H1.82643V21.75H17.708V8.75ZM1.03236 0.625H12.9435L19.2961 7.125V22.5625C19.2961 22.778 19.2124 22.9847 19.0635 23.137C18.9146 23.2894 18.7126 23.375 18.502 23.375H1.03236C0.821755 23.375 0.619779 23.2894 0.470861 23.137C0.321943 22.9847 0.238281 22.778 0.238281 22.5625V1.4375C0.238281 1.22201 0.321943 1.01535 0.470861 0.862976C0.619779 0.710602 0.821755 0.625 1.03236 0.625ZM8.93341 15.406L13.4247 10.8105L14.5475 11.9594L8.93341 17.7038L5.00274 13.6835L6.12556 12.533L8.93341 15.406Z" fill="#FD7949"/>
</svg>
