<svg width="19" height="24" viewBox="0 0 19 24" fill="none" xmlns="http://www.w3.org/2000/svg">
<path id="icon" d="M18.5131 2.99355L9.88535 0.0533203C9.78125 0.0177734 9.6416 0 9.50195 0C9.3623 0 9.22266 0.0177734 9.11855 0.0533203L0.49082 2.99355C0.280078 3.06465 0.107422 3.3084 0.107422 3.53184V15.7803C0.107422 16.0037 0.252149 16.2982 0.427344 16.4379L9.17949 23.2578C9.26836 23.3264 9.38262 23.3619 9.49941 23.3619C9.61621 23.3619 9.73301 23.3264 9.81934 23.2578L18.5715 16.4379C18.7467 16.3008 18.8914 16.0062 18.8914 15.7803V3.53184C18.8965 3.3084 18.7238 3.06719 18.5131 2.99355ZM17.0684 15.2928L9.50195 21.1885L1.93555 15.2928V4.43574L9.50195 1.85605L17.0684 4.43574V15.2928ZM6.73184 12.1062L4.76406 14.074C4.72626 14.1122 4.70505 14.1638 4.70505 14.2175C4.70505 14.2712 4.72626 14.3228 4.76406 14.3609L5.62734 15.2242C5.70605 15.3029 5.83555 15.3029 5.91426 15.2242L7.88203 13.2564C9.29629 14.1477 11.1854 13.9775 12.4168 12.7461C13.8463 11.3166 13.8463 9.00098 12.4168 7.57148C10.9873 6.14199 8.67168 6.14199 7.24219 7.57148C6.01074 8.80293 5.84062 10.6945 6.73184 12.1062ZM8.39238 8.72168C9.18711 7.92695 10.4744 7.92695 11.2666 8.72168C12.0613 9.51641 12.0613 10.8037 11.2666 11.5959C10.4719 12.3906 9.18457 12.3906 8.39238 11.5959C7.60019 10.8012 7.59766 9.51641 8.39238 8.72168Z" fill="#FD7949" fill-opacity="0.55"/>
</svg>
