<svg width="16" height="19" viewBox="0 0 16 19" fill="none" xmlns="http://www.w3.org/2000/svg">
<path id="Vector" d="M15 18.5863H1C0.734784 18.5863 0.48043 18.4809 0.292893 18.2934C0.105357 18.1059 0 17.8515 0 17.5863V7.94329C0.0154008 7.69821 0.119563 7.46713 0.293 7.29329L7.293 0.293287C7.38587 0.20031 7.49616 0.126551 7.61756 0.0762267C7.73896 0.0259024 7.86908 0 8.0005 0C8.13192 0 8.26204 0.0259024 8.38344 0.0762267C8.50484 0.126551 8.61513 0.20031 8.708 0.293287L15.708 7.29329C15.801 7.38601 15.8746 7.49623 15.9247 7.61757C15.9748 7.73892 16.0004 7.869 16 8.00029V17.5863C16 17.8515 15.8946 18.1059 15.7071 18.2934C15.5196 18.4809 15.2652 18.5863 15 18.5863ZM8 2.41429L2 8.41429V16.5863H14V8.41429L8 2.41429ZM8 14.5853C7.77317 14.3868 7.54246 14.1927 7.308 14.0033L7.261 13.9653C6.104 13.0213 4.661 11.8463 4.661 10.3853C4.66108 10.1457 4.70899 9.90849 4.80194 9.68764C4.89489 9.46679 5.03099 9.26671 5.20228 9.09916C5.37356 8.9316 5.57658 8.79992 5.79942 8.71185C6.02226 8.62378 6.26044 8.58109 6.5 8.58629C6.7829 8.58552 7.06278 8.64455 7.32128 8.7595C7.57978 8.87444 7.81107 9.04272 8 9.25329C8.18897 9.04276 8.42027 8.87453 8.67876 8.75958C8.93725 8.64464 9.21711 8.58559 9.5 8.58629C9.73931 8.58163 9.97714 8.62475 10.1996 8.71313C10.422 8.8015 10.6246 8.93335 10.7955 9.10096C10.9663 9.26857 11.1021 9.46858 11.1947 9.68927C11.2874 9.90997 11.335 10.1469 11.335 10.3863C11.335 11.8523 9.883 13.0353 8.717 13.9863L8.66 14.0333C8.423 14.2273 8.199 14.4103 7.999 14.5873L8 14.5853Z" fill="#FD7949"/>
</svg>
