<svg width="20" height="17" viewBox="0 0 20 17" fill="none" xmlns="http://www.w3.org/2000/svg">
<path id="Vector" d="M18 16.4999H2C1.4863 16.5153 0.987436 16.3265 0.6126 15.9749C0.237763 15.6233 0.0174916 15.1376 0 14.6239V2.37492C0.0174896 1.86138 0.237795 1.3757 0.612661 1.02426C0.987528 0.672826 1.4864 0.484281 2 0.499925H18C18.5136 0.484281 19.0125 0.672826 19.3873 1.02426C19.7622 1.3757 19.9825 1.86138 20 2.37492V14.6249C19.9823 15.1384 19.7619 15.6239 19.3871 15.9753C19.0123 16.3267 18.5135 16.5153 18 16.4999ZM2 2.49992V14.4889L18 14.4999V2.51092L2 2.49992ZM11.43 12.4999H4C4.07353 11.672 4.46534 10.9048 5.093 10.3599C5.79183 9.66664 6.73081 9.26913 7.715 9.24992C8.699 9.26993 9.638 9.66692 10.337 10.3599C10.9645 10.905 11.3563 11.672 11.43 12.4999ZM16 11.4999H13V9.49992H16V11.4999ZM7.715 8.49992C7.44987 8.50914 7.18569 8.46371 6.93887 8.36646C6.69205 8.26921 6.46787 8.12222 6.28029 7.93464C6.0927 7.74705 5.94571 7.52288 5.84847 7.27606C5.75122 7.02924 5.70579 6.76505 5.715 6.49992C5.70594 6.23484 5.75147 5.97071 5.84877 5.72396C5.94607 5.47721 6.09306 5.2531 6.28062 5.06554C6.46817 4.87799 6.69229 4.73099 6.93904 4.63369C7.18579 4.53639 7.44991 4.49086 7.715 4.49992C7.98009 4.49086 8.24421 4.53639 8.49096 4.63369C8.73771 4.73099 8.96183 4.87799 9.14938 5.06554C9.33694 5.2531 9.48393 5.47721 9.58123 5.72396C9.67853 5.97071 9.72406 6.23484 9.715 6.49992C9.72421 6.76505 9.67878 7.02924 9.58153 7.27606C9.48429 7.52288 9.3373 7.74705 9.14971 7.93464C8.96213 8.12222 8.73795 8.26921 8.49113 8.36646C8.24431 8.46371 7.98013 8.50914 7.715 8.49992ZM16 7.49992H12V5.49992H16V7.49992Z" fill="#FD7949"/>
</svg>
