<svg width="20" height="20" viewBox="0 0 20 20" fill="none" xmlns="http://www.w3.org/2000/svg">
<path id="Vector" d="M10.0001 20C8.48811 20.0043 6.99527 19.6622 5.63605 19C5.13861 18.758 4.66199 18.4754 4.21105 18.155L4.07405 18.055C2.83389 17.1396 1.81995 15.9522 1.11005 14.584C0.375786 13.1679 -0.00504214 11.5952 5.04096e-05 10C5.04096e-05 4.477 4.47705 0 10.0001 0C15.5231 0 20 4.477 20 10C20.0051 11.5944 19.6246 13.1664 18.8911 14.582C18.1822 15.9494 17.1696 17.1364 15.9311 18.052C15.4641 18.394 14.9681 18.695 14.449 18.952L14.3691 18.992C13.009 19.6577 11.5143 20.0026 10.0001 20ZM10.0001 15C9.26509 14.9986 8.54401 15.2002 7.91635 15.5825C7.28869 15.9649 6.77885 16.5132 6.44305 17.167C7.5488 17.7147 8.76609 17.9996 10.0001 17.9996C11.234 17.9996 12.4513 17.7147 13.5571 17.167V17.162C13.2208 16.5089 12.7108 15.9615 12.0831 15.58C11.4554 15.1985 10.7346 14.9978 10.0001 15ZM10.0001 13C11.0642 13.0012 12.109 13.2847 13.0278 13.8216C13.9466 14.3585 14.7065 15.1295 15.2301 16.056L15.2441 16.043L15.258 16.031L15.241 16.046L15.2311 16.054C16.466 14.9871 17.345 13.5681 17.7504 11.9873C18.1557 10.4065 18.0679 8.73956 17.4987 7.21011C16.9295 5.68065 15.9062 4.36185 14.566 3.43062C13.2259 2.4994 11.633 2.00032 10.0011 2.00032C8.36912 2.00032 6.77622 2.4994 5.43606 3.43062C4.0959 4.36185 3.07258 5.68065 2.5034 7.21011C1.93422 8.73956 1.84641 10.4065 2.25174 11.9873C2.65706 13.5681 3.53615 14.9871 4.77105 16.054C5.29489 15.1279 6.05494 14.3574 6.97371 13.8209C7.89249 13.2844 8.93711 13.0011 10.0011 13H10.0001ZM10.0001 12C8.93918 12 7.92177 11.5786 7.17162 10.8284C6.42148 10.0783 6.00005 9.06087 6.00005 8C6.00005 6.93913 6.42148 5.92172 7.17162 5.17157C7.92177 4.42143 8.93918 4 10.0001 4C11.0609 4 12.0783 4.42143 12.8285 5.17157C13.5786 5.92172 14.0001 6.93913 14.0001 8C14.0001 9.06087 13.5786 10.0783 12.8285 10.8284C12.0783 11.5786 11.0609 12 10.0001 12ZM10.0001 6C9.46962 6 8.96091 6.21071 8.58584 6.58579C8.21076 6.96086 8.00005 7.46957 8.00005 8C8.00005 8.53043 8.21076 9.03914 8.58584 9.41421C8.96091 9.78929 9.46962 10 10.0001 10C10.5305 10 11.0392 9.78929 11.4143 9.41421C11.7893 9.03914 12.0001 8.53043 12.0001 8C12.0001 7.46957 11.7893 6.96086 11.4143 6.58579C11.0392 6.21071 10.5305 6 10.0001 6Z" fill="#FD7949"/>
</svg>
