<svg width="19" height="15" viewBox="0 0 19 15" fill="none" xmlns="http://www.w3.org/2000/svg">
<path id="Vector" d="M4.22222 5.375C3.63837 5.375 3.16667 4.90019 3.16667 4.3125C3.16667 3.7248 3.63837 3.25 4.22222 3.25C4.80608 3.25 5.27778 3.7248 5.27778 4.3125C5.27778 4.90019 4.80608 5.375 4.22222 5.375ZM6.59722 4.3125C6.59722 3.8709 6.95017 3.51562 7.38889 3.51562H14.7778C15.2165 3.51562 15.5694 3.8709 15.5694 4.3125C15.5694 4.7541 15.2165 5.10937 14.7778 5.10937H7.38889C6.95017 5.10937 6.59722 4.7541 6.59722 4.3125ZM6.59722 7.5C6.59722 7.0584 6.95017 6.70312 7.38889 6.70312H14.7778C15.2165 6.70312 15.5694 7.0584 15.5694 7.5C15.5694 7.9416 15.2165 8.29687 14.7778 8.29687H7.38889C6.95017 8.29687 6.59722 7.9416 6.59722 7.5ZM6.59722 10.6875C6.59722 10.2459 6.95017 9.89062 7.38889 9.89062H14.7778C15.2165 9.89062 15.5694 10.2459 15.5694 10.6875C15.5694 11.1291 15.2165 11.4844 14.7778 11.4844H7.38889C6.95017 11.4844 6.59722 11.1291 6.59722 10.6875ZM4.22222 6.4375C4.80608 6.4375 5.27778 6.9123 5.27778 7.5C5.27778 8.08769 4.80608 8.5625 4.22222 8.5625C3.63837 8.5625 3.16667 8.08769 3.16667 7.5C3.16667 6.9123 3.63837 6.4375 4.22222 6.4375ZM4.22222 11.75C3.63837 11.75 3.16667 11.2752 3.16667 10.6875C3.16667 10.0998 3.63837 9.625 4.22222 9.625C4.80608 9.625 5.27778 10.0998 5.27778 10.6875C5.27778 11.2752 4.80608 11.75 4.22222 11.75ZM0 2.1875C0 1.01377 0.945052 0.0625 2.11111 0.0625H16.8889C18.0533 0.0625 19 1.01377 19 2.1875V12.8125C19 13.9846 18.0533 14.9375 16.8889 14.9375H2.11111C0.945052 14.9375 0 13.9846 0 12.8125V2.1875ZM1.58333 2.1875V12.8125C1.58333 13.1047 1.81951 13.3437 2.11111 13.3437H16.8889C17.1792 13.3437 17.4167 13.1047 17.4167 12.8125V2.1875C17.4167 1.89398 17.1792 1.65625 16.8889 1.65625H2.11111C1.81951 1.65625 1.58333 1.89398 1.58333 2.1875Z" fill="#FD7949"/>
</svg>
