<svg width="26" height="26" viewBox="0 0 26 26" fill="none" xmlns="http://www.w3.org/2000/svg">
<path id="Vector" fill-rule="evenodd" clip-rule="evenodd" d="M26 8.18082C26 12.6996 22.3211 16.3629 17.7842 16.3629C16.9574 16.3629 15.0724 16.1731 14.156 15.4114L13.0094 16.5527C12.3347 17.2248 12.5167 17.4224 12.817 17.7474C12.9418 17.8839 13.0874 18.0412 13.2005 18.2661C13.2005 18.2661 14.156 19.5973 13.2005 20.9298C12.6272 21.6903 11.1767 22.5439 9.34375 20.7188L8.53125 21.5312C8.53125 21.5312 9.95186 22.6419 8.99768 23.9744C8.42439 24.7349 6.89563 25.4954 5.55795 24.1642L4.22159 25.4954C3.30381 26.4093 2.18323 25.8763 1.73864 25.4954L0.590766 24.354C-0.47911 23.288 0.144876 22.1336 0.590766 21.689L10.5251 11.7961C10.5251 11.7961 9.56966 10.2751 9.56966 8.18212C9.56966 3.66337 13.2486 0 17.7855 0C22.3224 0 26 3.66337 26 8.18082ZM17.7855 11.0356C18.5438 11.037 19.2715 10.7372 19.8088 10.2021C20.3461 9.66698 20.6489 8.94041 20.6506 8.18212C20.6499 7.80655 20.5753 7.43478 20.4309 7.08805C20.2866 6.74133 20.0753 6.42643 19.8093 6.16134C19.5432 5.89625 19.2276 5.68616 18.8803 5.54306C18.5331 5.39997 18.1611 5.32667 17.7855 5.32735C17.4099 5.32667 17.0379 5.39997 16.6906 5.54306C16.3434 5.68616 16.0277 5.89625 15.7617 6.16134C15.4956 6.42643 15.2844 6.74133 15.14 7.08805C14.9957 7.43478 14.921 7.80655 14.9203 8.18212C14.9221 8.94041 15.2249 9.66698 15.7621 10.2021C16.2994 10.7372 17.0272 11.037 17.7855 11.0356Z" fill="#FD7949"/>
</svg>
