<svg width="27" height="30" viewBox="0 0 27 30" fill="none" xmlns="http://www.w3.org/2000/svg">
<path id="icon" fill-rule="evenodd" clip-rule="evenodd" d="M7.84805 1.02159C8.05091 0.78632 8.32562 0.619191 8.63279 0.544169C8.93997 0.469148 9.26382 0.490088 9.55793 0.603986L9.71842 0.676487L26.2172 9.37661C26.4974 9.52405 26.7216 9.754 26.8574 10.0331C26.9931 10.3121 27.0333 10.6257 26.9721 10.9284C26.9109 11.2311 26.7515 11.507 26.517 11.716C26.2825 11.9251 25.9852 12.0565 25.6683 12.0911L25.4988 12.0998H22.499V16.4411C22.52 16.4866 22.5489 16.5283 22.5845 16.5644C22.6715 16.6615 22.8035 16.7703 22.9744 16.8776L23.1574 16.982C23.8544 17.3503 24.438 17.8904 24.8491 18.5474C25.2602 19.2044 25.4841 19.9549 25.4981 20.7226C25.512 21.4903 25.3155 22.248 24.9285 22.9185C24.5415 23.5891 23.9778 24.1486 23.2946 24.5403C22.6115 24.9321 21.8333 25.142 21.0391 25.1488C20.2448 25.1556 19.4629 24.9591 18.7726 24.5792C18.0824 24.1992 17.5085 23.6494 17.1093 22.9857C16.71 22.3219 16.4996 21.5677 16.4994 20.7999C16.4998 20.4303 16.6462 20.0748 16.9087 19.8061C17.1711 19.5373 17.5298 19.3756 17.9114 19.354C18.293 19.3323 18.6688 19.4523 18.962 19.6895C19.2551 19.9268 19.4436 20.2632 19.4887 20.6302L19.4992 20.7999C19.4993 21.0559 19.5694 21.3073 19.7025 21.5286C19.8357 21.7499 20.027 21.9332 20.2572 22.0598C20.4873 22.1864 20.748 22.2519 21.0128 22.2496C21.2776 22.2472 21.537 22.1772 21.7647 22.0465C21.9924 21.9158 22.1803 21.7292 22.3092 21.5055C22.4381 21.2819 22.5035 21.0293 22.4987 20.7733C22.4939 20.5174 22.4191 20.2672 22.2819 20.0483C22.1447 19.8293 21.95 19.6494 21.7175 19.5268C21.1851 19.2527 20.7076 18.8888 20.3076 18.4523C19.8641 17.9695 19.5864 17.3656 19.5127 16.7239L19.4992 16.4498V12.0998H13.4996V28.05C13.4996 28.4051 13.3647 28.7479 13.1206 29.0133C12.8765 29.2787 12.5401 29.4483 12.1752 29.4899L11.9997 29.5H6.00019C5.63281 29.5 5.27824 29.3696 5.0037 29.1336C4.72917 28.8976 4.55378 28.5724 4.5108 28.2196L4.5003 28.05V12.0998H1.50052C1.23167 12.0999 0.967741 12.0301 0.73634 11.8978C0.504939 11.7655 0.314577 11.5755 0.185175 11.3477C0.0557733 11.1198 -0.00791156 10.8626 0.000785138 10.6028C0.00948184 10.3431 0.0902402 10.0903 0.234609 9.87107L0.348601 9.72172L7.84805 1.02159ZM10.4999 23.146L7.50008 24.596V26.6H10.4999V23.146ZM10.4999 17.3459L7.50008 18.7959V21.3538L10.4999 19.9038V17.3459ZM10.4999 12.0998H7.50008V15.5537L10.4999 14.1037V12.0998ZM7.50008 5.95456L4.70278 9.19971H7.50008V5.95456ZM10.4999 4.39289V9.19971H19.6162L10.4999 4.39289Z" fill="#FD7949"/>
</svg>
