<svg width="53" height="50" viewBox="0 0 53 50" fill="none" xmlns="http://www.w3.org/2000/svg">
<path d="M48.9181 18.5868V2.63158C48.9181 1.93364 48.6318 1.26429 48.1221 0.770772C47.6125 0.277255 46.9212 0 46.2005 0H43.4828C38.1045 5.20789 28.0002 8.12368 21.7414 9.50789V37.8605C28.0002 39.2447 38.1045 42.1605 43.4828 47.3684H46.2005C46.9212 47.3684 47.6125 47.0912 48.1221 46.5977C48.6318 46.1041 48.9181 45.4348 48.9181 44.7368V28.7816C50.0861 28.4908 51.121 27.8322 51.86 26.9093C52.5989 25.9865 53 24.8519 53 23.6842C53 22.5165 52.5989 21.3819 51.86 20.4591C51.121 19.5363 50.0861 18.8776 48.9181 18.5868ZM5.43535 10.5263C3.9938 10.5263 2.6113 11.0808 1.59198 12.0679C0.572651 13.0549 0 14.3936 0 15.7895V31.5789C0 32.9748 0.572651 34.3135 1.59198 35.3006C2.6113 36.2876 3.9938 36.8421 5.43535 36.8421H8.15302L10.8707 50H16.306V10.5263H5.43535Z" fill="#FD7949"/>
</svg>
