<svg width="28" height="28" viewBox="0 0 28 28" fill="none" xmlns="http://www.w3.org/2000/svg">
<path d="M21.8092 3.42122L19.0092 1.94413C16.5508 0.648513 15.3216 0 14 0C12.6784 0 11.4492 0.647106 8.9908 1.94413L8.5414 2.18187L21.0336 9.3549L26.656 6.52733C25.7516 5.49759 24.2928 4.72809 21.8092 3.41841M27.6472 8.38987L22.05 11.2034V15.4743C22.05 15.7541 21.9394 16.0225 21.7425 16.2203C21.5455 16.4182 21.2785 16.5293 21 16.5293C20.7215 16.5293 20.4544 16.4182 20.2575 16.2203C20.0606 16.0225 19.95 15.7541 19.95 15.4743V12.2584L15.05 14.7203V28C16.0552 27.7482 17.199 27.1461 19.0092 26.1909L21.8092 24.7138C24.8206 23.1256 26.327 22.3322 27.1642 20.9043C28 19.4779 28 17.7012 28 14.1519V13.9873C28 11.3244 28 9.65876 27.6472 8.38987ZM12.95 28V14.7203L0.3528 8.38987C1.19209e-07 9.65876 0 11.3244 0 13.9845V14.1491C0 17.7012 -1.78814e-07 19.4779 0.8358 20.9043C1.673 22.3322 3.1794 23.127 6.1908 24.7152L8.9908 26.1909C10.801 27.1461 11.9448 27.7482 12.95 28ZM1.344 6.52874L14 12.8873L18.7754 10.4887L6.335 3.34526L6.1908 3.42122C3.7086 4.7295 2.2484 5.499 1.344 6.53015" fill="#FD7949"/>
</svg>
