<svg width="19" height="16" viewBox="0 0 19 16" fill="none" xmlns="http://www.w3.org/2000/svg">
<path d="M4.22222 5.875C3.63837 5.875 3.16667 5.40019 3.16667 4.8125C3.16667 4.2248 3.63837 3.75 4.22222 3.75C4.80608 3.75 5.27778 4.2248 5.27778 4.8125C5.27778 5.40019 4.80608 5.875 4.22222 5.875ZM6.59722 4.8125C6.59722 4.3709 6.95017 4.01562 7.38889 4.01562H14.7778C15.2165 4.01562 15.5694 4.3709 15.5694 4.8125C15.5694 5.2541 15.2165 5.60937 14.7778 5.60937H7.38889C6.95017 5.60937 6.59722 5.2541 6.59722 4.8125ZM6.59722 8C6.59722 7.5584 6.95017 7.20312 7.38889 7.20312H14.7778C15.2165 7.20312 15.5694 7.5584 15.5694 8C15.5694 8.4416 15.2165 8.79687 14.7778 8.79687H7.38889C6.95017 8.79687 6.59722 8.4416 6.59722 8ZM6.59722 11.1875C6.59722 10.7459 6.95017 10.3906 7.38889 10.3906H14.7778C15.2165 10.3906 15.5694 10.7459 15.5694 11.1875C15.5694 11.6291 15.2165 11.9844 14.7778 11.9844H7.38889C6.95017 11.9844 6.59722 11.6291 6.59722 11.1875ZM4.22222 6.9375C4.80608 6.9375 5.27778 7.4123 5.27778 8C5.27778 8.58769 4.80608 9.0625 4.22222 9.0625C3.63837 9.0625 3.16667 8.58769 3.16667 8C3.16667 7.4123 3.63837 6.9375 4.22222 6.9375ZM4.22222 12.25C3.63837 12.25 3.16667 11.7752 3.16667 11.1875C3.16667 10.5998 3.63837 10.125 4.22222 10.125C4.80608 10.125 5.27778 10.5998 5.27778 11.1875C5.27778 11.7752 4.80608 12.25 4.22222 12.25ZM0 2.6875C0 1.51377 0.945052 0.5625 2.11111 0.5625H16.8889C18.0533 0.5625 19 1.51377 19 2.6875V13.3125C19 14.4846 18.0533 15.4375 16.8889 15.4375H2.11111C0.945052 15.4375 0 14.4846 0 13.3125V2.6875ZM1.58333 2.6875V13.3125C1.58333 13.6047 1.81951 13.8437 2.11111 13.8437H16.8889C17.1792 13.8437 17.4167 13.6047 17.4167 13.3125V2.6875C17.4167 2.39398 17.1792 2.15625 16.8889 2.15625H2.11111C1.81951 2.15625 1.58333 2.39398 1.58333 2.6875Z" fill="#6A4ED4"/>
</svg>
