<svg width="45" height="50" viewBox="0 0 45 50" fill="none" xmlns="http://www.w3.org/2000/svg">
<path d="M21.2338 49.7036C21.9669 50.1005 22.887 50.098 23.6201 49.701C43.5985 38.8195 45.0173 17.5596 44.9998 11.5146C44.998 11.0287 44.8563 10.554 44.5924 10.1485C44.3284 9.74296 43.9536 9.42432 43.5137 9.23155L23.4406 0.215862C23.1212 0.073091 22.7758 -0.000433453 22.4267 1.92229e-06C22.0776 0.000437297 21.7325 0.0748227 21.4134 0.21839L1.47991 9.23408C1.04652 9.42695 0.676951 9.74207 0.41523 10.1419C0.153509 10.5417 0.010668 11.0094 0.00372574 11.4893C-0.081055 17.5039 1.11336 38.8094 21.2338 49.7036ZM12.4297 22.5396C13.4127 21.5428 15.0212 21.5428 16.0043 22.5396L17.0758 23.6261C18.6483 25.2204 21.2211 25.2204 22.7935 23.6261L28.8522 17.4831C29.8353 16.4864 31.4437 16.4864 32.4268 17.4831C33.3908 18.4606 33.3908 20.0312 32.4268 21.0087L24.6203 28.9237C22.043 31.5368 17.8263 31.5368 15.249 28.9237L12.4297 26.0651C11.4656 25.0877 11.4656 23.5171 12.4297 22.5396Z" fill="#FD7949"/>
</svg>
