<svg width="22" height="28" viewBox="0 0 22 28" fill="none" xmlns="http://www.w3.org/2000/svg">
<path d="M10.5 20C11.163 20 11.7989 19.7366 12.2678 19.2678C12.7366 18.7989 13 18.163 13 17.5C13 16.837 12.7366 16.2011 12.2678 15.7322C11.7989 15.2634 11.163 15 10.5 15C9.83696 15 9.20107 15.2634 8.73223 15.7322C8.26339 16.2011 8 16.837 8 17.5C8 18.163 8.26339 18.7989 8.73223 19.2678C9.20107 19.7366 9.83696 20 10.5 20Z" fill="#FD7949"/>
<path fill-rule="evenodd" clip-rule="evenodd" d="M2.5 0H7C8.32608 0 9.59785 0.526784 10.5355 1.46447C11.4732 2.40215 12 3.67392 12 5V7.5C12 8.88133 13.12 10 14.5 10H17C18.3261 10 19.5979 10.5268 20.5355 11.4645C21.4732 12.4021 22 13.6739 22 15V25.5C22 26.88 20.88 28 19.5 28H2.5C1.83696 28 1.20107 27.7366 0.732233 27.2678C0.263392 26.7989 0 26.163 0 25.5V2.5C0 1.11867 1.12 0 2.5 0ZM10.5 22C11.38 22 12.2027 21.7467 12.896 21.3093L14.2933 22.7067C14.4829 22.8833 14.7336 22.9795 14.9927 22.9749C15.2518 22.9703 15.4989 22.8654 15.6822 22.6822C15.8654 22.4989 15.9703 22.2518 15.9749 21.9927C15.9795 21.7336 15.8833 21.4829 15.7067 21.2933L14.3107 19.896C14.842 19.0514 15.0775 18.0541 14.9801 17.061C14.8828 16.068 14.4581 15.1354 13.7729 14.41C13.0878 13.6846 12.1809 13.2075 11.195 13.0537C10.2091 12.9 9.20002 13.0783 8.32649 13.5606C7.45296 14.0429 6.76451 14.8019 6.36939 15.7181C5.97428 16.6344 5.89491 17.656 6.14378 18.6223C6.39264 19.5886 6.95562 20.4448 7.74418 21.0562C8.53275 21.6677 9.50216 21.9997 10.5 22Z" fill="#FD7949"/>
<path d="M13.9993 4.99996C14.0016 3.31802 13.396 1.69191 12.2939 0.421295C14.525 1.00791 16.5602 2.1766 18.1914 3.80781C19.8226 5.43903 20.9913 7.47424 21.5779 9.7053C20.3073 8.60328 18.6812 7.99763 16.9993 7.99996H14.4993C14.3667 7.99996 14.2395 7.94728 14.1457 7.85352C14.052 7.75975 13.9993 7.63257 13.9993 7.49996V4.99996Z" fill="#FD7949"/>
</svg>
