<svg width="43" height="50" viewBox="0 0 43 50" fill="none" xmlns="http://www.w3.org/2000/svg">
<path d="M16.728 4.7619H26.2825C27.5962 4.7619 28.6711 3.69048 28.6711 2.38095C28.6711 1.07143 27.5962 0 26.2825 0L16.728 0C15.4143 0 14.3394 1.07143 14.3394 2.38095C14.3394 3.69048 15.4143 4.7619 16.728 4.7619ZM38.2972 15.2143L40.0886 13.4286C40.5303 12.9856 40.7782 12.3864 40.7782 11.7619C40.7782 11.1374 40.5303 10.5382 40.0886 10.0952L40.0647 10.0714C39.6203 9.63117 39.0192 9.38406 38.3927 9.38406C37.7662 9.38406 37.1651 9.63117 36.7207 10.0714L34.9292 11.8571C31.1249 8.80554 26.3883 7.14212 21.5052 7.14286C10.0399 7.14286 0.294408 16.5714 0.00777521 28C-0.0694719 30.8619 0.429531 33.7103 1.4753 36.3767C2.52107 39.0431 4.09239 41.4736 6.09643 43.5245C8.10046 45.5754 10.4966 47.2051 13.1431 48.3173C15.7897 49.4295 18.6331 50.0017 21.5052 50C25.5523 50.0022 29.5176 48.8648 32.9446 46.7189C36.3715 44.5731 39.1207 41.5059 40.8755 37.8708C42.6303 34.2357 43.3192 30.1804 42.8631 26.172C42.4069 22.1637 40.8242 18.3653 38.2972 15.2143ZM23.8938 28.5714C23.8938 29.8809 22.819 30.9524 21.5052 30.9524C20.1915 30.9524 19.1166 29.8809 19.1166 28.5714V19.0476C19.1166 17.7381 20.1915 16.6667 21.5052 16.6667C22.819 16.6667 23.8938 17.7381 23.8938 19.0476V28.5714Z" fill="#FD7949"/>
</svg>
