<svg width="50" height="55" viewBox="0 0 50 55" fill="none" xmlns="http://www.w3.org/2000/svg">
<path fill-rule="evenodd" clip-rule="evenodd" d="M11.7917 0H38.2083C41.4278 0 43.0361 2.86841e-07 44.3361 0.44824C45.5618 0.878298 46.6709 1.58235 47.5771 2.5057C48.4833 3.42904 49.1622 4.5468 49.5611 5.77212C50 7.09759 50 8.73656 50 12.0172V50.5274C50 52.8868 47.2639 54.1408 45.5333 52.5734C45.0478 52.1292 44.411 51.8826 43.75 51.8826C43.0889 51.8826 42.4522 52.1292 41.9667 52.5734L40.625 53.7888C39.7744 54.5675 38.6585 55 37.5 55C36.3415 55 35.2256 54.5675 34.375 53.7888C33.5244 53.0101 32.4085 52.5776 31.25 52.5776C30.0915 52.5776 28.9756 53.0101 28.125 53.7888C27.2744 54.5675 26.1585 55 25 55C23.8415 55 22.7256 54.5675 21.875 53.7888C21.0244 53.0101 19.9085 52.5776 18.75 52.5776C17.5915 52.5776 16.4756 53.0101 15.625 53.7888C14.7744 54.5675 13.6585 55 12.5 55C11.3415 55 10.2256 54.5675 9.375 53.7888L8.03333 52.5734C7.54782 52.1292 6.91105 51.8826 6.25 51.8826C5.58895 51.8826 4.95218 52.1292 4.46667 52.5734C2.73611 54.1408 0 52.8868 0 50.5274V12.0172C0 8.73656 -4.13921e-08 7.09484 0.438889 5.77487C1.27222 3.26418 3.20278 1.29522 5.66389 0.44824C6.96389 2.86841e-07 8.57222 0 11.7917 0ZM33.5 17.8746C33.6824 17.6724 33.8228 17.4366 33.9131 17.1806C34.0034 16.9247 34.042 16.6536 34.0265 16.383C34.011 16.1123 33.9418 15.8473 33.8229 15.6031C33.704 15.3589 33.5376 15.1402 33.3333 14.9597C33.1291 14.7791 32.8909 14.6401 32.6323 14.5507C32.3738 14.4613 32.1 14.4231 31.8266 14.4385C31.5532 14.4538 31.2855 14.5223 31.0388 14.64C30.7921 14.7578 30.5713 14.9224 30.3889 15.1247L22.025 24.403L19.6083 21.7245C19.239 21.3205 18.7231 21.0776 18.1735 21.0488C17.6238 21.0201 17.085 21.2079 16.6747 21.5712C16.2644 21.9345 16.0161 22.4437 15.9839 22.9877C15.9516 23.5317 16.1382 24.0662 16.5028 24.4745L20.4694 28.8744C20.6649 29.0911 20.9043 29.2645 21.1722 29.3832C21.44 29.502 21.7302 29.5633 22.0236 29.5633C22.3171 29.5633 22.6072 29.502 22.875 29.3832C23.1429 29.2645 23.3823 29.0911 23.5778 28.8744L33.5 17.8746ZM12.5 35.0617C11.9475 35.0617 11.4176 35.279 11.0269 35.6658C10.6362 36.0526 10.4167 36.5772 10.4167 37.1242C10.4167 37.6712 10.6362 38.1958 11.0269 38.5826C11.4176 38.9694 11.9475 39.1866 12.5 39.1866H37.5C38.0525 39.1866 38.5824 38.9694 38.9731 38.5826C39.3638 38.1958 39.5833 37.6712 39.5833 37.1242C39.5833 36.5772 39.3638 36.0526 38.9731 35.6658C38.5824 35.279 38.0525 35.0617 37.5 35.0617H12.5Z" fill="white"/>
</svg>
