<svg width="80" height="16" viewBox="0 0 80 16" fill="none" xmlns="http://www.w3.org/2000/svg">
<path d="M7.52181 2.30205C7.67547 1.99076 7.75229 1.83511 7.85659 1.78538C7.94734 1.74211 8.05277 1.74211 8.14351 1.78538C8.24781 1.83511 8.32464 1.99076 8.4783 2.30205L9.93608 5.25536C9.98144 5.34726 10.0041 5.39321 10.0373 5.42889C10.0666 5.46048 10.1018 5.48607 10.1409 5.50425C10.1851 5.52479 10.2358 5.5322 10.3372 5.54702L13.598 6.02364C13.9414 6.07383 14.1131 6.09893 14.1926 6.1828C14.2617 6.25576 14.2942 6.35603 14.281 6.45569C14.2659 6.57022 14.1416 6.69129 13.893 6.93342L11.5343 9.23078C11.4608 9.3024 11.424 9.33821 11.4003 9.38081C11.3793 9.41854 11.3658 9.45998 11.3607 9.50284C11.3548 9.55125 11.3635 9.60183 11.3808 9.703L11.9373 12.9479C11.996 13.2902 12.0254 13.4613 11.9702 13.5628C11.9222 13.6512 11.8369 13.7132 11.7381 13.7315C11.6245 13.7526 11.4708 13.6717 11.1634 13.5101L8.24829 11.9771C8.15746 11.9293 8.11205 11.9054 8.0642 11.896C8.02184 11.8877 7.97827 11.8877 7.9359 11.896C7.88806 11.9054 7.84264 11.9293 7.75181 11.9771L4.83666 13.5101C4.52932 13.6717 4.37565 13.7526 4.26202 13.7315C4.16316 13.7132 4.07786 13.6512 4.02987 13.5628C3.97471 13.4613 4.00406 13.2902 4.06276 12.9479L4.6193 9.703C4.63665 9.60183 4.64532 9.55125 4.63945 9.50284C4.63426 9.45998 4.62078 9.41854 4.59978 9.38081C4.57606 9.33821 4.53929 9.3024 4.46576 9.23078L2.10708 6.93342C1.85848 6.69129 1.73418 6.57022 1.71906 6.45569C1.7059 6.35603 1.73841 6.25576 1.80754 6.1828C1.887 6.09893 2.05869 6.07383 2.40207 6.02364L5.66291 5.54702C5.76432 5.5322 5.81503 5.52479 5.85919 5.50425C5.89828 5.48607 5.93348 5.46048 5.96283 5.42889C5.99598 5.39321 6.01866 5.34726 6.06402 5.25536L7.52181 2.30205Z" fill="#FACD00"/>
<path d="M23.5218 2.30205C23.6755 1.99076 23.7523 1.83511 23.8566 1.78538C23.9473 1.74211 24.0528 1.74211 24.1435 1.78538C24.2478 1.83511 24.3246 1.99076 24.4783 2.30205L25.9361 5.25536C25.9814 5.34726 26.0041 5.39321 26.0373 5.42889C26.0666 5.46048 26.1018 5.48607 26.1409 5.50425C26.1851 5.52479 26.2358 5.5322 26.3372 5.54702L29.598 6.02364C29.9414 6.07383 30.1131 6.09893 30.1926 6.1828C30.2617 6.25576 30.2942 6.35603 30.281 6.45569C30.2659 6.57022 30.1416 6.69129 29.893 6.93342L27.5343 9.23078C27.4608 9.3024 27.424 9.33821 27.4003 9.38081C27.3793 9.41854 27.3658 9.45998 27.3607 9.50284C27.3548 9.55125 27.3635 9.60183 27.3808 9.703L27.9373 12.9479C27.996 13.2902 28.0254 13.4613 27.9702 13.5628C27.9222 13.6512 27.8369 13.7132 27.7381 13.7315C27.6245 13.7526 27.4708 13.6717 27.1634 13.5101L24.2483 11.9771C24.1575 11.9293 24.112 11.9054 24.0642 11.896C24.0218 11.8877 23.9783 11.8877 23.9359 11.896C23.8881 11.9054 23.8426 11.9293 23.7518 11.9771L20.8367 13.5101C20.5293 13.6717 20.3756 13.7526 20.262 13.7315C20.1632 13.7132 20.0779 13.6512 20.0299 13.5628C19.9747 13.4613 20.0041 13.2902 20.0628 12.9479L20.6193 9.703C20.6366 9.60183 20.6453 9.55125 20.6395 9.50284C20.6343 9.45998 20.6208 9.41854 20.5998 9.38081C20.5761 9.33821 20.5393 9.3024 20.4658 9.23078L18.1071 6.93342C17.8585 6.69129 17.7342 6.57022 17.7191 6.45569C17.7059 6.35603 17.7384 6.25576 17.8075 6.1828C17.887 6.09893 18.0587 6.07383 18.4021 6.02364L21.6629 5.54702C21.7643 5.5322 21.815 5.52479 21.8592 5.50425C21.8983 5.48607 21.9335 5.46048 21.9628 5.42889C21.996 5.39321 22.0187 5.34726 22.064 5.25536L23.5218 2.30205Z" fill="#FACD00"/>
<path d="M39.5218 2.30205C39.6755 1.99076 39.7523 1.83511 39.8566 1.78538C39.9473 1.74211 40.0528 1.74211 40.1435 1.78538C40.2478 1.83511 40.3246 1.99076 40.4783 2.30205L41.9361 5.25536C41.9814 5.34726 42.0041 5.39321 42.0373 5.42889C42.0666 5.46048 42.1018 5.48607 42.1409 5.50425C42.1851 5.52479 42.2358 5.5322 42.3372 5.54702L45.598 6.02364C45.9414 6.07383 46.1131 6.09893 46.1926 6.1828C46.2617 6.25576 46.2942 6.35603 46.281 6.45569C46.2659 6.57022 46.1416 6.69129 45.893 6.93342L43.5343 9.23078C43.4608 9.3024 43.424 9.33821 43.4003 9.38081C43.3793 9.41854 43.3658 9.45998 43.3607 9.50284C43.3548 9.55125 43.3635 9.60183 43.3808 9.703L43.9373 12.9479C43.996 13.2902 44.0254 13.4613 43.9702 13.5628C43.9222 13.6512 43.8369 13.7132 43.7381 13.7315C43.6245 13.7526 43.4708 13.6717 43.1634 13.5101L40.2483 11.9771C40.1575 11.9293 40.112 11.9054 40.0642 11.896C40.0218 11.8877 39.9783 11.8877 39.9359 11.896C39.8881 11.9054 39.8426 11.9293 39.7518 11.9771L36.8367 13.5101C36.5293 13.6717 36.3756 13.7526 36.262 13.7315C36.1632 13.7132 36.0779 13.6512 36.0299 13.5628C35.9747 13.4613 36.0041 13.2902 36.0628 12.9479L36.6193 9.703C36.6366 9.60183 36.6453 9.55125 36.6395 9.50284C36.6343 9.45998 36.6208 9.41854 36.5998 9.38081C36.5761 9.33821 36.5393 9.3024 36.4658 9.23078L34.1071 6.93342C33.8585 6.69129 33.7342 6.57022 33.7191 6.45569C33.7059 6.35603 33.7384 6.25576 33.8075 6.1828C33.887 6.09893 34.0587 6.07383 34.4021 6.02364L37.6629 5.54702C37.7643 5.5322 37.815 5.52479 37.8592 5.50425C37.8983 5.48607 37.9335 5.46048 37.9628 5.42889C37.996 5.39321 38.0187 5.34726 38.064 5.25536L39.5218 2.30205Z" fill="#FACD00"/>
<path d="M55.5218 2.30205C55.6755 1.99076 55.7523 1.83511 55.8566 1.78538C55.9473 1.74211 56.0528 1.74211 56.1435 1.78538C56.2478 1.83511 56.3246 1.99076 56.4783 2.30205L57.9361 5.25536C57.9814 5.34726 58.0041 5.39321 58.0373 5.42889C58.0666 5.46048 58.1018 5.48607 58.1409 5.50425C58.1851 5.52479 58.2358 5.5322 58.3372 5.54702L61.598 6.02364C61.9414 6.07383 62.1131 6.09893 62.1926 6.1828C62.2617 6.25576 62.2942 6.35603 62.281 6.45569C62.2659 6.57022 62.1416 6.69129 61.893 6.93342L59.5343 9.23078C59.4608 9.3024 59.424 9.33821 59.4003 9.38081C59.3793 9.41854 59.3658 9.45998 59.3607 9.50284C59.3548 9.55125 59.3635 9.60183 59.3808 9.703L59.9373 12.9479C59.996 13.2902 60.0254 13.4613 59.9702 13.5628C59.9222 13.6512 59.8369 13.7132 59.7381 13.7315C59.6245 13.7526 59.4708 13.6717 59.1634 13.5101L56.2483 11.9771C56.1575 11.9293 56.112 11.9054 56.0642 11.896C56.0218 11.8877 55.9783 11.8877 55.9359 11.896C55.8881 11.9054 55.8426 11.9293 55.7518 11.9771L52.8367 13.5101C52.5293 13.6717 52.3756 13.7526 52.262 13.7315C52.1632 13.7132 52.0779 13.6512 52.0299 13.5628C51.9747 13.4613 52.0041 13.2902 52.0628 12.9479L52.6193 9.703C52.6366 9.60183 52.6453 9.55125 52.6395 9.50284C52.6343 9.45998 52.6208 9.41854 52.5998 9.38081C52.5761 9.33821 52.5393 9.3024 52.4658 9.23078L50.1071 6.93342C49.8585 6.69129 49.7342 6.57022 49.7191 6.45569C49.7059 6.35603 49.7384 6.25576 49.8075 6.1828C49.887 6.09893 50.0587 6.07383 50.4021 6.02364L53.6629 5.54702C53.7643 5.5322 53.815 5.52479 53.8592 5.50425C53.8983 5.48607 53.9335 5.46048 53.9628 5.42889C53.996 5.39321 54.0187 5.34726 54.064 5.25536L55.5218 2.30205Z" fill="#FACD00"/>
<path d="M71.5218 2.30205C71.6755 1.99076 71.7523 1.83511 71.8566 1.78538C71.9473 1.74211 72.0528 1.74211 72.1435 1.78538C72.2478 1.83511 72.3246 1.99076 72.4783 2.30205L73.9361 5.25536C73.9814 5.34726 74.0041 5.39321 74.0373 5.42889C74.0666 5.46048 74.1018 5.48607 74.1409 5.50425C74.1851 5.52479 74.2358 5.5322 74.3372 5.54702L77.598 6.02364C77.9414 6.07383 78.1131 6.09893 78.1926 6.1828C78.2617 6.25576 78.2942 6.35603 78.281 6.45569C78.2659 6.57022 78.1416 6.69129 77.893 6.93342L75.5343 9.23078C75.4608 9.3024 75.424 9.33821 75.4003 9.38081C75.3793 9.41854 75.3658 9.45998 75.3607 9.50284C75.3548 9.55125 75.3635 9.60183 75.3808 9.703L75.9373 12.9479C75.996 13.2902 76.0254 13.4613 75.9702 13.5628C75.9222 13.6512 75.8369 13.7132 75.7381 13.7315C75.6245 13.7526 75.4708 13.6717 75.1634 13.5101L72.2483 11.9771C72.1575 11.9293 72.112 11.9054 72.0642 11.896C72.0218 11.8877 71.9783 11.8877 71.9359 11.896C71.8881 11.9054 71.8426 11.9293 71.7518 11.9771L68.8367 13.5101C68.5293 13.6717 68.3756 13.7526 68.262 13.7315C68.1632 13.7132 68.0779 13.6512 68.0299 13.5628C67.9747 13.4613 68.0041 13.2902 68.0628 12.9479L68.6193 9.703C68.6366 9.60183 68.6453 9.55125 68.6395 9.50284C68.6343 9.45998 68.6208 9.41854 68.5998 9.38081C68.5761 9.33821 68.5393 9.3024 68.4658 9.23078L66.1071 6.93342C65.8585 6.69129 65.7342 6.57022 65.7191 6.45569C65.7059 6.35603 65.7384 6.25576 65.8075 6.1828C65.887 6.09893 66.0587 6.07383 66.4021 6.02364L69.6629 5.54702C69.7643 5.5322 69.815 5.52479 69.8592 5.50425C69.8983 5.48607 69.9335 5.46048 69.9628 5.42889C69.996 5.39321 70.0187 5.34726 70.064 5.25536L71.5218 2.30205Z" fill="#FACD00"/>
</svg>
