<svg width="107" height="18" viewBox="0 0 107 18" fill="none" xmlns="http://www.w3.org/2000/svg">
<path d="M9.15071 14.5198L13.3007 17.0298C14.0607 17.4898 14.9907 16.8098 14.7907 15.9498L13.6907 11.2298L17.3607 8.04977C18.0307 7.46977 17.6707 6.36977 16.7907 6.29977L11.9607 5.88977L10.0707 1.42977C9.73071 0.619766 8.57071 0.619766 8.23071 1.42977L6.34071 5.87977L1.51071 6.28977C0.630708 6.35977 0.270707 7.45977 0.940707 8.03977L4.61071 11.2198L3.51071 15.9398C3.31071 16.7998 4.24071 17.4798 5.00071 17.0198L9.15071 14.5198Z" fill="#FFC554"/>
<path d="M31.265 14.5198L35.415 17.0298C36.175 17.4898 37.105 16.8098 36.905 15.9498L35.805 11.2298L39.475 8.04977C40.145 7.46977 39.785 6.36977 38.905 6.29977L34.075 5.88977L32.185 1.42977C31.845 0.619766 30.685 0.619766 30.345 1.42977L28.455 5.87977L23.625 6.28977C22.745 6.35977 22.385 7.45977 23.055 8.03977L26.725 11.2198L25.625 15.9398C25.425 16.7998 26.355 17.4798 27.115 17.0198L31.265 14.5198Z" fill="#FFC554"/>
<path d="M53.3782 14.5198L57.5282 17.0298C58.2882 17.4898 59.2182 16.8098 59.0182 15.9498L57.9182 11.2298L61.5882 8.04977C62.2582 7.46977 61.8982 6.36977 61.0182 6.29977L56.1882 5.88977L54.2982 1.42977C53.9582 0.619766 52.7982 0.619766 52.4582 1.42977L50.5682 5.87977L45.7382 6.28977C44.8582 6.35977 44.4982 7.45977 45.1682 8.03977L48.8382 11.2198L47.7382 15.9398C47.5382 16.7998 48.4682 17.4798 49.2282 17.0198L53.3782 14.5198Z" fill="#FFC554"/>
<path d="M75.4925 14.5198L79.6425 17.0298C80.4025 17.4898 81.3325 16.8098 81.1325 15.9498L80.0325 11.2298L83.7025 8.04977C84.3725 7.46977 84.0125 6.36977 83.1325 6.29977L78.3025 5.88977L76.4125 1.42977C76.0725 0.619766 74.9125 0.619766 74.5725 1.42977L72.6825 5.87977L67.8525 6.28977C66.9725 6.35977 66.6125 7.45977 67.2825 8.03977L70.9525 11.2198L69.8525 15.9398C69.6525 16.7998 70.5825 17.4798 71.3425 17.0198L75.4925 14.5198Z" fill="#FFC554"/>
<path d="M97.6068 14.5198L101.757 17.0298C102.517 17.4898 103.447 16.8098 103.247 15.9498L102.147 11.2298L105.817 8.04977C106.487 7.46977 106.127 6.36977 105.247 6.29977L100.417 5.88977L98.5268 1.42977C98.1868 0.619766 97.0268 0.619766 96.6868 1.42977L94.7968 5.87977L89.9668 6.28977C89.0868 6.35977 88.7268 7.45977 89.3968 8.03977L93.0668 11.2198L91.9668 15.9398C91.7668 16.7998 92.6968 17.4798 93.4568 17.0198L97.6068 14.5198Z" fill="#FFC554"/>
</svg>
