<svg width="337" height="95" viewBox="0 0 337 95" fill="none" xmlns="http://www.w3.org/2000/svg">
<path d="M0 58L28.0835 43.5001C56.1665 29.0002 112.334 0 168.5 0C224.666 0 280.834 29.0002 308.916 43.5001L337 58H308.916C280.834 58 224.666 58 168.5 58C112.334 58 56.1665 58 28.0835 58H0Z" fill="url(#paint0_linear_901_9225)"/>
<circle cx="49.5" cy="58" r="4.5" fill="#DEDEDE" stroke="white"/>
<path d="M15.5834 78C15.5034 78 15.4394 77.976 15.3914 77.928C15.3434 77.88 15.3194 77.816 15.3194 77.736V69.876C15.3194 69.788 15.3434 69.72 15.3914 69.672C15.4394 69.624 15.5034 69.6 15.5834 69.6H15.7994C15.8874 69.6 15.9554 69.624 16.0034 69.672C16.0514 69.72 16.0754 69.788 16.0754 69.876V73.38H20.7074V69.876C20.7074 69.788 20.7314 69.72 20.7794 69.672C20.8274 69.624 20.8914 69.6 20.9714 69.6H21.1874C21.2754 69.6 21.3434 69.624 21.3914 69.672C21.4394 69.72 21.4634 69.788 21.4634 69.876V77.736C21.4634 77.816 21.4394 77.88 21.3914 77.928C21.3434 77.976 21.2754 78 21.1874 78H20.9714C20.8914 78 20.8274 77.976 20.7794 77.928C20.7314 77.88 20.7074 77.816 20.7074 77.736V74.1H16.0754V77.736C16.0754 77.816 16.0514 77.88 16.0034 77.928C15.9554 77.976 15.8874 78 15.7994 78H15.5834ZM23.8058 78C23.7418 78 23.6858 77.976 23.6378 77.928C23.5898 77.88 23.5658 77.824 23.5658 77.76V72.024C23.5658 71.944 23.5898 71.88 23.6378 71.832C23.6858 71.784 23.7498 71.76 23.8298 71.76H24.0338C24.1138 71.76 24.1778 71.784 24.2258 71.832C24.2738 71.88 24.2978 71.944 24.2978 72.024V77.412L24.0818 77.064L27.9938 71.94C28.0338 71.892 28.0738 71.852 28.1138 71.82C28.1618 71.78 28.2258 71.76 28.3058 71.76H28.5338C28.5978 71.76 28.6538 71.784 28.7018 71.832C28.7498 71.872 28.7738 71.924 28.7738 71.988V77.736C28.7738 77.816 28.7498 77.88 28.7018 77.928C28.6538 77.976 28.5898 78 28.5098 78H28.3058C28.2258 78 28.1618 77.976 28.1138 77.928C28.0658 77.88 28.0418 77.816 28.0418 77.736V72.708L28.2938 72.648L24.3458 77.82C24.3138 77.86 24.2738 77.9 24.2258 77.94C24.1778 77.98 24.1138 78 24.0338 78H23.8058ZM32.6942 78.12C32.2542 78.12 31.8822 78.064 31.5782 77.952C31.2742 77.84 31.0262 77.696 30.8342 77.52C30.6502 77.344 30.5142 77.16 30.4262 76.968C30.3382 76.776 30.2942 76.596 30.2942 76.428C30.2942 76.356 30.3182 76.3 30.3662 76.26C30.4142 76.212 30.4742 76.188 30.5462 76.188H30.7502C30.8222 76.188 30.8822 76.208 30.9302 76.248C30.9782 76.28 31.0142 76.344 31.0382 76.44C31.1422 76.816 31.3502 77.076 31.6622 77.22C31.9822 77.356 32.3662 77.424 32.8142 77.424C33.1022 77.424 33.3702 77.384 33.6182 77.304C33.8662 77.224 34.0622 77.1 34.2062 76.932C34.3582 76.756 34.4342 76.536 34.4342 76.272C34.4342 75.888 34.3262 75.6 34.1102 75.408C33.8942 75.216 33.5662 75.12 33.1262 75.12H32.4782C32.3982 75.12 32.3342 75.096 32.2862 75.048C32.2382 75 32.2142 74.936 32.2142 74.856V74.688C32.2142 74.608 32.2382 74.544 32.2862 74.496C32.3342 74.448 32.3982 74.424 32.4782 74.424H33.0422C33.4022 74.424 33.6822 74.352 33.8822 74.208C34.0902 74.064 34.1942 73.828 34.1942 73.5C34.1942 73.308 34.1462 73.124 34.0502 72.948C33.9622 72.772 33.8102 72.628 33.5942 72.516C33.3782 72.396 33.0782 72.336 32.6942 72.336C32.1582 72.336 31.7822 72.432 31.5662 72.624C31.3582 72.808 31.2102 73.08 31.1222 73.44C31.0982 73.536 31.0622 73.604 31.0142 73.644C30.9662 73.676 30.9062 73.692 30.8342 73.692H30.6302C30.5582 73.692 30.4982 73.672 30.4502 73.632C30.4022 73.584 30.3782 73.524 30.3782 73.452C30.3782 73.196 30.4262 72.96 30.5222 72.744C30.6262 72.528 30.7742 72.336 30.9662 72.168C31.1662 72 31.4102 71.872 31.6982 71.784C31.9862 71.688 32.3182 71.64 32.6942 71.64C33.2542 71.64 33.6942 71.736 34.0142 71.928C34.3422 72.12 34.5742 72.352 34.7102 72.624C34.8542 72.888 34.9262 73.14 34.9262 73.38C34.9262 73.708 34.8742 73.972 34.7702 74.172C34.6742 74.372 34.4862 74.544 34.2062 74.688C34.5662 74.832 34.8142 75.04 34.9502 75.312C35.0862 75.576 35.1582 75.896 35.1662 76.272C35.1742 76.696 35.0662 77.044 34.8422 77.316C34.6262 77.588 34.3302 77.792 33.9542 77.928C33.5782 78.056 33.1582 78.12 32.6942 78.12ZM36.8844 78C36.8044 78 36.7404 77.976 36.6924 77.928C36.6444 77.88 36.6204 77.816 36.6204 77.736V72.024C36.6204 71.944 36.6444 71.88 36.6924 71.832C36.7404 71.784 36.8044 71.76 36.8844 71.76H37.0884C37.1684 71.76 37.2324 71.784 37.2804 71.832C37.3284 71.88 37.3524 71.944 37.3524 72.024V74.46H38.6364L40.4004 71.94C40.4404 71.876 40.4844 71.832 40.5324 71.808C40.5804 71.776 40.6404 71.76 40.7124 71.76H40.9524C41.0244 71.76 41.0804 71.776 41.1204 71.808C41.1684 71.832 41.1924 71.872 41.1924 71.928C41.1924 71.944 41.1844 71.964 41.1684 71.988C41.1604 72.012 41.1484 72.04 41.1324 72.072L39.2724 74.736L41.3604 77.676C41.4004 77.724 41.4204 77.776 41.4204 77.832C41.4204 77.888 41.4004 77.932 41.3604 77.964C41.3204 77.988 41.2644 78 41.1924 78H40.8804C40.8084 78 40.7484 77.988 40.7004 77.964C40.6524 77.932 40.6084 77.888 40.5684 77.832L38.6724 75.18H37.3524V77.736C37.3524 77.816 37.3284 77.88 37.2804 77.928C37.2324 77.976 37.1684 78 37.0884 78H36.8844ZM44.3708 78.12C43.9868 78.12 43.6308 78.04 43.3027 77.88C42.9828 77.72 42.7228 77.508 42.5228 77.244C42.3228 76.972 42.2228 76.668 42.2228 76.332C42.2228 75.788 42.4428 75.352 42.8828 75.024C43.3228 74.696 43.8948 74.484 44.5988 74.388L46.4948 74.124V73.704C46.4948 73.28 46.3628 72.948 46.0988 72.708C45.8428 72.46 45.4308 72.336 44.8628 72.336C44.4468 72.336 44.1108 72.42 43.8548 72.588C43.5988 72.748 43.4228 72.96 43.3268 73.224C43.2868 73.344 43.2108 73.404 43.0988 73.404H42.9068C42.8108 73.404 42.7428 73.38 42.7028 73.332C42.6628 73.276 42.6428 73.212 42.6428 73.14C42.6428 73.028 42.6828 72.888 42.7628 72.72C42.8508 72.552 42.9828 72.388 43.1588 72.228C43.3348 72.06 43.5628 71.92 43.8428 71.808C44.1228 71.696 44.4628 71.64 44.8628 71.64C45.3348 71.64 45.7228 71.704 46.0268 71.832C46.3388 71.96 46.5788 72.128 46.7468 72.336C46.9228 72.536 47.0468 72.76 47.1188 73.008C47.1908 73.256 47.2268 73.5 47.2268 73.74V77.736C47.2268 77.816 47.2028 77.88 47.1548 77.928C47.1068 77.976 47.0428 78 46.9628 78H46.7588C46.6788 78 46.6148 77.976 46.5668 77.928C46.5188 77.88 46.4948 77.816 46.4948 77.736V77.172C46.3988 77.316 46.2628 77.46 46.0868 77.604C45.9108 77.748 45.6828 77.872 45.4028 77.976C45.1308 78.072 44.7868 78.12 44.3708 78.12ZM44.4908 77.424C44.8588 77.424 45.1948 77.344 45.4988 77.184C45.8028 77.024 46.0428 76.78 46.2188 76.452C46.4028 76.116 46.4948 75.696 46.4948 75.192V74.784L44.9468 75C44.2908 75.088 43.7948 75.24 43.4588 75.456C43.1228 75.672 42.9548 75.944 42.9548 76.272C42.9548 76.536 43.0308 76.752 43.1828 76.92C43.3348 77.088 43.5268 77.216 43.7588 77.304C43.9988 77.384 44.2428 77.424 44.4908 77.424ZM52.9403 78C52.8603 78 52.7963 77.976 52.7483 77.928C52.7003 77.88 52.6763 77.816 52.6763 77.736V75.672H51.1403V75.612C50.4283 75.612 49.9083 75.428 49.5803 75.06C49.2523 74.684 49.0883 74.22 49.0883 73.668C49.0883 73.004 49.2763 72.52 49.6523 72.216C50.0283 71.912 50.6163 71.76 51.4163 71.76H53.1443C53.2243 71.76 53.2883 71.784 53.3363 71.832C53.3843 71.88 53.4083 71.944 53.4083 72.024V77.736C53.4083 77.816 53.3843 77.88 53.3363 77.928C53.2883 77.976 53.2243 78 53.1443 78H52.9403ZM49.1723 78C49.1083 78 49.0523 77.976 49.0043 77.928C48.9563 77.88 48.9323 77.824 48.9323 77.76C48.9323 77.728 48.9363 77.692 48.9443 77.652C48.9603 77.612 48.9883 77.568 49.0283 77.52L50.5043 75.408H51.4043L49.7123 77.82C49.6803 77.86 49.6323 77.9 49.5683 77.94C49.5123 77.98 49.4523 78 49.3883 78H49.1723ZM51.1883 74.976H52.6763V72.456H51.3083C50.7963 72.456 50.4203 72.544 50.1803 72.72C49.9403 72.896 49.8203 73.212 49.8203 73.668C49.8203 74.044 49.9283 74.356 50.1443 74.604C50.3683 74.852 50.7163 74.976 51.1883 74.976ZM63.7928 79.56C63.7128 79.56 63.6488 79.536 63.6008 79.488C63.5528 79.44 63.5287 79.376 63.5287 79.296V78H58.7048C58.6248 78 58.5608 77.976 58.5128 77.928C58.4648 77.88 58.4408 77.816 58.4408 77.736V72.024C58.4408 71.944 58.4648 71.88 58.5128 71.832C58.5608 71.784 58.6248 71.76 58.7048 71.76H58.9088C58.9888 71.76 59.0528 71.784 59.1008 71.832C59.1488 71.88 59.1728 71.944 59.1728 72.024V77.304H62.6768V72.024C62.6768 71.944 62.7008 71.88 62.7488 71.832C62.7968 71.784 62.8608 71.76 62.9408 71.76H63.1448C63.2248 71.76 63.2888 71.784 63.3368 71.832C63.3848 71.88 63.4088 71.944 63.4088 72.024L63.3968 77.304H63.9968C64.0768 77.304 64.1408 77.328 64.1888 77.376C64.2368 77.424 64.2608 77.488 64.2608 77.568V79.296C64.2608 79.376 64.2368 79.44 64.1888 79.488C64.1408 79.536 64.0768 79.56 63.9968 79.56H63.7928ZM67.9638 78.12C67.1878 78.12 66.5718 77.868 66.1158 77.364C65.6598 76.852 65.3998 76.184 65.3358 75.36C65.3278 75.24 65.3238 75.08 65.3238 74.88C65.3238 74.68 65.3278 74.52 65.3358 74.4C65.3758 73.856 65.5038 73.376 65.7198 72.96C65.9358 72.544 66.2318 72.22 66.6078 71.988C66.9918 71.756 67.4438 71.64 67.9638 71.64C68.5238 71.64 68.9998 71.764 69.3918 72.012C69.7838 72.26 70.0838 72.616 70.2918 73.08C70.5078 73.544 70.6158 74.096 70.6158 74.736V74.916C70.6158 74.996 70.5878 75.06 70.5318 75.108C70.4838 75.156 70.4198 75.18 70.3398 75.18H66.0678C66.0678 75.18 66.0678 75.196 66.0678 75.228C66.0678 75.26 66.0678 75.284 66.0678 75.3C66.0838 75.66 66.1678 76.004 66.3198 76.332C66.4718 76.652 66.6878 76.916 66.9678 77.124C67.2478 77.324 67.5798 77.424 67.9638 77.424C68.3078 77.424 68.5918 77.372 68.8158 77.268C69.0478 77.164 69.2318 77.052 69.3678 76.932C69.5038 76.804 69.5918 76.708 69.6318 76.644C69.7038 76.54 69.7598 76.48 69.7998 76.464C69.8398 76.44 69.9038 76.428 69.9918 76.428H70.1838C70.2558 76.428 70.3158 76.452 70.3638 76.5C70.4198 76.54 70.4438 76.596 70.4358 76.668C70.4278 76.78 70.3638 76.92 70.2438 77.088C70.1318 77.248 69.9678 77.408 69.7518 77.568C69.5438 77.728 69.2878 77.86 68.9838 77.964C68.6798 78.068 68.3398 78.12 67.9638 78.12ZM66.0678 74.508H69.8838V74.46C69.8838 74.06 69.8078 73.7 69.6558 73.38C69.5038 73.06 69.2838 72.808 68.9958 72.624C68.7078 72.432 68.3638 72.336 67.9638 72.336C67.5638 72.336 67.2198 72.432 66.9318 72.624C66.6518 72.808 66.4358 73.06 66.2838 73.38C66.1398 73.7 66.0678 74.06 66.0678 74.46V74.508ZM72.4626 78C72.3826 78 72.3186 77.976 72.2706 77.928C72.2226 77.88 72.1986 77.816 72.1986 77.736V72.024C72.1986 71.944 72.2226 71.88 72.2706 71.832C72.3186 71.784 72.3826 71.76 72.4626 71.76H72.6666C72.7466 71.76 72.8106 71.784 72.8586 71.832C72.9066 71.88 72.9306 71.944 72.9306 72.024V74.46H76.6746V72.024C76.6746 71.944 76.6986 71.88 76.7466 71.832C76.7946 71.784 76.8586 71.76 76.9386 71.76H77.1426C77.2226 71.76 77.2866 71.784 77.3346 71.832C77.3826 71.88 77.4066 71.944 77.4066 72.024V77.736C77.4066 77.816 77.3826 77.88 77.3346 77.928C77.2866 77.976 77.2226 78 77.1426 78H76.9386C76.8586 78 76.7946 77.976 76.7466 77.928C76.6986 77.88 76.6746 77.816 76.6746 77.736V75.156H72.9306V77.736C72.9306 77.816 72.9066 77.88 72.8586 77.928C72.8106 77.976 72.7466 78 72.6666 78H72.4626ZM81.027 78.12C80.643 78.12 80.287 78.04 79.959 77.88C79.639 77.72 79.379 77.508 79.179 77.244C78.979 76.972 78.879 76.668 78.879 76.332C78.879 75.788 79.099 75.352 79.539 75.024C79.979 74.696 80.551 74.484 81.255 74.388L83.151 74.124V73.704C83.151 73.28 83.019 72.948 82.755 72.708C82.499 72.46 82.087 72.336 81.519 72.336C81.103 72.336 80.767 72.42 80.511 72.588C80.255 72.748 80.079 72.96 79.983 73.224C79.943 73.344 79.867 73.404 79.755 73.404H79.563C79.467 73.404 79.399 73.38 79.359 73.332C79.319 73.276 79.299 73.212 79.299 73.14C79.299 73.028 79.339 72.888 79.419 72.72C79.507 72.552 79.639 72.388 79.815 72.228C79.991 72.06 80.219 71.92 80.499 71.808C80.779 71.696 81.119 71.64 81.519 71.64C81.991 71.64 82.379 71.704 82.683 71.832C82.995 71.96 83.235 72.128 83.403 72.336C83.579 72.536 83.703 72.76 83.775 73.008C83.847 73.256 83.883 73.5 83.883 73.74V77.736C83.883 77.816 83.859 77.88 83.811 77.928C83.763 77.976 83.699 78 83.619 78H83.415C83.335 78 83.271 77.976 83.223 77.928C83.175 77.88 83.151 77.816 83.151 77.736V77.172C83.055 77.316 82.919 77.46 82.743 77.604C82.567 77.748 82.339 77.872 82.059 77.976C81.787 78.072 81.443 78.12 81.027 78.12ZM81.147 77.424C81.515 77.424 81.851 77.344 82.155 77.184C82.459 77.024 82.699 76.78 82.875 76.452C83.059 76.116 83.151 75.696 83.151 75.192V74.784L81.603 75C80.947 75.088 80.451 75.24 80.115 75.456C79.779 75.672 79.611 75.944 79.611 76.272C79.611 76.536 79.687 76.752 79.839 76.92C79.991 77.088 80.183 77.216 80.415 77.304C80.655 77.384 80.899 77.424 81.147 77.424ZM19.4959 92C19.4079 92 19.3359 91.972 19.2799 91.916C19.2319 91.86 19.2079 91.792 19.2079 91.712V85.496L17.3839 86.9C17.3119 86.948 17.2399 86.968 17.1679 86.96C17.0959 86.944 17.0319 86.9 16.9759 86.828L16.4719 86.18C16.4239 86.108 16.4039 86.032 16.4119 85.952C16.4279 85.872 16.4719 85.808 16.5439 85.76L19.2319 83.684C19.2799 83.644 19.3279 83.62 19.3759 83.612C19.4239 83.604 19.4759 83.6 19.5319 83.6H20.5879C20.6679 83.6 20.7359 83.628 20.7919 83.684C20.8479 83.74 20.8759 83.808 20.8759 83.888V91.712C20.8759 91.792 20.8479 91.86 20.7919 91.916C20.7359 91.972 20.6679 92 20.5879 92H19.4959ZM25.6626 92.12C25.0946 92.12 24.6106 92.036 24.2106 91.868C23.8106 91.7 23.4826 91.468 23.2266 91.172C22.9706 90.876 22.7786 90.536 22.6506 90.152C22.5226 89.76 22.4466 89.344 22.4226 88.904C22.4146 88.688 22.4066 88.452 22.3986 88.196C22.3986 87.932 22.3986 87.668 22.3986 87.404C22.4066 87.14 22.4146 86.896 22.4226 86.672C22.4386 86.232 22.5146 85.82 22.6506 85.436C22.7866 85.044 22.9826 84.704 23.2386 84.416C23.5026 84.128 23.8346 83.9 24.2346 83.732C24.6346 83.564 25.1106 83.48 25.6626 83.48C26.2226 83.48 26.7026 83.564 27.1026 83.732C27.5026 83.9 27.8306 84.128 28.0866 84.416C28.3506 84.704 28.5466 85.044 28.6746 85.436C28.8106 85.82 28.8866 86.232 28.9026 86.672C28.9186 86.896 28.9266 87.14 28.9266 87.404C28.9266 87.668 28.9266 87.932 28.9266 88.196C28.9266 88.452 28.9186 88.688 28.9026 88.904C28.8866 89.344 28.8146 89.76 28.6866 90.152C28.5586 90.536 28.3666 90.876 28.1106 91.172C27.8546 91.468 27.5226 91.7 27.1146 91.868C26.7146 92.036 26.2306 92.12 25.6626 92.12ZM25.6626 90.74C26.1826 90.74 26.5626 90.572 26.8026 90.236C27.0506 89.892 27.1786 89.428 27.1866 88.844C27.2026 88.612 27.2106 88.38 27.2106 88.148C27.2106 87.908 27.2106 87.668 27.2106 87.428C27.2106 87.188 27.2026 86.96 27.1866 86.744C27.1786 86.176 27.0506 85.72 26.8026 85.376C26.5626 85.024 26.1826 84.848 25.6626 84.848C25.1506 84.848 24.7706 85.024 24.5226 85.376C24.2826 85.72 24.1546 86.176 24.1386 86.744C24.1386 86.96 24.1346 87.188 24.1266 87.428C24.1266 87.668 24.1266 87.908 24.1266 88.148C24.1346 88.38 24.1386 88.612 24.1386 88.844C24.1546 89.428 24.2866 89.892 24.5346 90.236C24.7826 90.572 25.1586 90.74 25.6626 90.74ZM33.4115 92C33.3315 92 33.2675 91.976 33.2195 91.928C33.1715 91.88 33.1475 91.82 33.1475 91.748V85.988C33.1475 85.924 33.1715 85.872 33.2195 85.832C33.2755 85.784 33.3315 85.76 33.3875 85.76H34.3955C34.5315 85.76 34.6355 85.828 34.7075 85.964L36.5555 89.324L38.4035 85.964C38.4755 85.828 38.5795 85.76 38.7155 85.76H39.7115C39.7835 85.76 39.8435 85.784 39.8915 85.832C39.9395 85.872 39.9635 85.924 39.9635 85.988V91.748C39.9635 91.82 39.9395 91.88 39.8915 91.928C39.8435 91.976 39.7795 92 39.6995 92H38.6675C38.5875 92 38.5235 91.976 38.4755 91.928C38.4355 91.88 38.4155 91.82 38.4155 91.748V87.392L38.9075 87.476L37.1315 90.752C37.0915 90.824 37.0435 90.892 36.9875 90.956C36.9315 91.012 36.8515 91.04 36.7475 91.04H36.3515C36.2555 91.04 36.1795 91.012 36.1235 90.956C36.0675 90.9 36.0195 90.832 35.9795 90.752L34.2395 87.608L34.6955 87.536V91.748C34.6955 91.82 34.6715 91.88 34.6235 91.928C34.5755 91.976 34.5155 92 34.4435 92H33.4115ZM41.393 92C41.305 92 41.233 91.972 41.177 91.916C41.121 91.86 41.093 91.788 41.093 91.7V90.956C41.093 90.78 41.185 90.684 41.369 90.668C41.609 90.652 41.801 90.54 41.945 90.332C42.089 90.124 42.193 89.804 42.257 89.372C42.321 88.932 42.353 88.364 42.353 87.668V86.048C42.353 85.968 42.381 85.9 42.437 85.844C42.493 85.788 42.565 85.76 42.653 85.76H46.913C46.993 85.76 47.061 85.788 47.117 85.844C47.173 85.9 47.201 85.968 47.201 86.048V91.712C47.201 91.792 47.173 91.86 47.117 91.916C47.061 91.972 46.993 92 46.913 92H45.917C45.829 92 45.757 91.972 45.701 91.916C45.653 91.86 45.629 91.792 45.629 91.712V87.032H43.865V87.836C43.865 88.604 43.821 89.256 43.733 89.792C43.653 90.32 43.513 90.748 43.313 91.076C43.121 91.396 42.865 91.632 42.545 91.784C42.233 91.928 41.849 92 41.393 92ZM49.1034 92C49.0234 92 48.9554 91.972 48.8994 91.916C48.8434 91.86 48.8154 91.792 48.8154 91.712V86.048C48.8154 85.968 48.8434 85.9 48.8994 85.844C48.9554 85.788 49.0234 85.76 49.1034 85.76H50.0994C50.1874 85.76 50.2554 85.788 50.3034 85.844C50.3594 85.9 50.3874 85.968 50.3874 86.048V88.196H53.0994V86.048C53.0994 85.968 53.1274 85.9 53.1834 85.844C53.2394 85.788 53.3074 85.76 53.3874 85.76H54.3834C54.4634 85.76 54.5314 85.788 54.5874 85.844C54.6434 85.9 54.6714 85.968 54.6714 86.048V91.712C54.6714 91.792 54.6434 91.86 54.5874 91.916C54.5314 91.972 54.4634 92 54.3834 92H53.3874C53.3074 92 53.2394 91.972 53.1834 91.916C53.1274 91.86 53.0994 91.792 53.0994 91.712V89.456H50.3874V91.712C50.3874 91.792 50.3594 91.86 50.3034 91.916C50.2554 91.972 50.1874 92 50.0994 92H49.1034ZM59.3342 94.28C59.2542 94.28 59.1862 94.252 59.1302 94.196C59.0742 94.14 59.0462 94.072 59.0462 93.992V86.048C59.0462 85.968 59.0742 85.9 59.1302 85.844C59.1862 85.788 59.2542 85.76 59.3342 85.76H60.2822C60.3702 85.76 60.4382 85.788 60.4862 85.844C60.5422 85.9 60.5702 85.968 60.5702 86.048V86.528C60.7622 86.272 61.0142 86.06 61.3262 85.892C61.6382 85.724 62.0262 85.64 62.4902 85.64C62.9142 85.64 63.2822 85.708 63.5942 85.844C63.9062 85.98 64.1662 86.176 64.3742 86.432C64.5822 86.68 64.7422 86.976 64.8542 87.32C64.9662 87.664 65.0302 88.044 65.0462 88.46C65.0542 88.596 65.0582 88.736 65.0582 88.88C65.0582 89.024 65.0542 89.168 65.0462 89.312C65.0382 89.712 64.9782 90.084 64.8662 90.428C64.7542 90.764 64.5902 91.06 64.3742 91.316C64.1662 91.564 63.9062 91.76 63.5942 91.904C63.2822 92.048 62.9142 92.12 62.4902 92.12C62.0582 92.12 61.6902 92.044 61.3862 91.892C61.0822 91.732 60.8342 91.524 60.6422 91.268V93.992C60.6422 94.072 60.6142 94.14 60.5582 94.196C60.5102 94.252 60.4422 94.28 60.3542 94.28H59.3342ZM62.0462 90.836C62.3902 90.836 62.6582 90.764 62.8502 90.62C63.0422 90.468 63.1782 90.272 63.2582 90.032C63.3462 89.792 63.3982 89.528 63.4142 89.24C63.4302 89 63.4302 88.76 63.4142 88.52C63.3982 88.232 63.3462 87.968 63.2582 87.728C63.1782 87.488 63.0422 87.296 62.8502 87.152C62.6582 87 62.3902 86.924 62.0462 86.924C61.7182 86.924 61.4502 87 61.2422 87.152C61.0422 87.304 60.8942 87.5 60.7982 87.74C60.7102 87.972 60.6582 88.212 60.6422 88.46C60.6342 88.604 60.6302 88.756 60.6302 88.916C60.6302 89.076 60.6342 89.232 60.6422 89.384C60.6502 89.624 60.7062 89.856 60.8102 90.08C60.9142 90.296 61.0662 90.476 61.2662 90.62C61.4662 90.764 61.7262 90.836 62.0462 90.836ZM66.8493 94.28C66.7693 94.28 66.7013 94.252 66.6453 94.196C66.5893 94.148 66.5613 94.08 66.5613 93.992V93.308C66.5613 93.22 66.5893 93.148 66.6453 93.092C66.7013 93.044 66.7693 93.02 66.8493 93.02H67.2213C67.3813 93.02 67.5133 92.988 67.6173 92.924C67.7213 92.86 67.8173 92.752 67.9053 92.6C67.9933 92.456 68.0893 92.256 68.1933 92L70.6893 85.988C70.7213 85.924 70.7613 85.872 70.8093 85.832C70.8573 85.784 70.9293 85.76 71.0253 85.76H71.9373C72.0013 85.76 72.0573 85.784 72.1053 85.832C72.1613 85.88 72.1893 85.936 72.1893 86C72.1893 86.032 72.1853 86.06 72.1773 86.084C72.1773 86.108 72.1653 86.144 72.1413 86.192L69.8613 91.64C69.7253 91.984 69.5773 92.312 69.4173 92.624C69.2653 92.944 69.0933 93.228 68.9013 93.476C68.7173 93.732 68.5013 93.928 68.2533 94.064C68.0053 94.208 67.7133 94.28 67.3773 94.28H66.8493ZM68.3973 91.844L65.9613 86.192C65.9293 86.112 65.9133 86.056 65.9133 86.024C65.9213 85.952 65.9493 85.892 65.9973 85.844C66.0453 85.788 66.1053 85.76 66.1773 85.76H67.1373C67.2333 85.76 67.3013 85.784 67.3413 85.832C67.3893 85.88 67.4253 85.932 67.4493 85.988L69.3093 90.572L68.3973 91.844ZM76.069 92.12C75.405 92.12 74.853 92.004 74.413 91.772C73.981 91.532 73.657 91.184 73.441 90.728C73.225 90.272 73.101 89.716 73.069 89.06C73.069 88.828 73.069 88.588 73.069 88.34C73.069 88.092 73.069 87.852 73.069 87.62C73.085 86.916 73.153 86.332 73.273 85.868C73.401 85.396 73.589 85.008 73.837 84.704C74.085 84.392 74.405 84.136 74.797 83.936C75.189 83.728 75.653 83.548 76.189 83.396C76.725 83.244 77.345 83.084 78.049 82.916C78.129 82.9 78.201 82.912 78.265 82.952C78.337 82.992 78.377 83.056 78.385 83.144L78.541 83.936C78.557 84.016 78.545 84.088 78.505 84.152C78.465 84.208 78.409 84.244 78.337 84.26C77.729 84.396 77.205 84.52 76.765 84.632C76.325 84.736 75.961 84.856 75.673 84.992C75.385 85.128 75.157 85.308 74.989 85.532C74.829 85.748 74.717 86.032 74.653 86.384C74.589 86.736 74.569 87.188 74.593 87.74L74.317 87.512C74.365 87.264 74.489 87.036 74.689 86.828C74.889 86.62 75.133 86.456 75.421 86.336C75.717 86.208 76.029 86.144 76.357 86.144C76.933 86.144 77.417 86.252 77.809 86.468C78.201 86.684 78.501 86.988 78.709 87.38C78.925 87.764 79.045 88.216 79.069 88.736C79.085 89.024 79.085 89.288 79.069 89.528C79.045 90.04 78.917 90.492 78.685 90.884C78.453 91.276 78.121 91.58 77.689 91.796C77.257 92.012 76.717 92.12 76.069 92.12ZM76.069 91.016C76.501 91.016 76.833 90.884 77.065 90.62C77.297 90.356 77.421 89.972 77.437 89.468C77.445 89.38 77.449 89.276 77.449 89.156C77.449 89.028 77.445 88.908 77.437 88.796C77.421 88.292 77.297 87.908 77.065 87.644C76.841 87.38 76.541 87.248 76.165 87.248C75.733 87.248 75.385 87.38 75.121 87.644C74.865 87.908 74.729 88.292 74.713 88.796C74.705 88.908 74.701 89.028 74.701 89.156C74.701 89.276 74.705 89.38 74.713 89.468C74.729 89.972 74.853 90.356 75.085 90.62C75.317 90.884 75.645 91.016 76.069 91.016ZM80.6252 92C80.5452 92 80.4772 91.972 80.4212 91.916C80.3652 91.86 80.3372 91.792 80.3372 91.712V90.524C80.3372 90.436 80.3652 90.364 80.4212 90.308C80.4772 90.252 80.5452 90.224 80.6252 90.224H81.8252C81.9052 90.224 81.9732 90.252 82.0292 90.308C82.0852 90.364 82.1132 90.436 82.1132 90.524V91.712C82.1132 91.792 82.0852 91.86 82.0292 91.916C81.9732 91.972 81.9052 92 81.8252 92H80.6252Z" fill="#070707"/>
<circle cx="173.5" cy="58" r="4.5" fill="#E2DCF7" stroke="white"/>
<path d="M138.331 78.12C137.603 78.12 137.007 77.98 136.543 77.7C136.087 77.412 135.747 77.024 135.523 76.536C135.299 76.048 135.175 75.492 135.151 74.868C135.143 74.54 135.139 74.188 135.139 73.812C135.139 73.436 135.143 73.076 135.151 72.732C135.175 72.108 135.299 71.552 135.523 71.064C135.747 70.568 136.087 70.18 136.543 69.9C137.007 69.62 137.603 69.48 138.331 69.48C138.899 69.48 139.383 69.56 139.783 69.72C140.183 69.88 140.507 70.092 140.755 70.356C141.011 70.612 141.199 70.892 141.319 71.196C141.447 71.492 141.519 71.784 141.535 72.072C141.543 72.144 141.519 72.204 141.463 72.252C141.415 72.292 141.355 72.312 141.283 72.312H141.043C140.979 72.312 140.923 72.296 140.875 72.264C140.827 72.224 140.795 72.156 140.779 72.06C140.627 71.348 140.339 70.86 139.915 70.596C139.499 70.332 138.971 70.2 138.331 70.2C137.603 70.2 137.023 70.408 136.591 70.824C136.167 71.232 135.939 71.888 135.907 72.792C135.883 73.448 135.883 74.12 135.907 74.808C135.939 75.712 136.167 76.372 136.591 76.788C137.023 77.196 137.603 77.4 138.331 77.4C138.971 77.4 139.499 77.268 139.915 77.004C140.339 76.74 140.627 76.252 140.779 75.54C140.795 75.444 140.827 75.38 140.875 75.348C140.923 75.308 140.979 75.288 141.043 75.288H141.283C141.355 75.288 141.415 75.312 141.463 75.36C141.519 75.4 141.543 75.456 141.535 75.528C141.519 75.816 141.447 76.112 141.319 76.416C141.199 76.712 141.011 76.992 140.755 77.256C140.507 77.512 140.183 77.72 139.783 77.88C139.383 78.04 138.899 78.12 138.331 78.12ZM143.424 80.28C143.344 80.28 143.28 80.256 143.232 80.208C143.184 80.16 143.16 80.096 143.16 80.016V72.024C143.16 71.944 143.184 71.88 143.232 71.832C143.28 71.784 143.344 71.76 143.424 71.76H143.628C143.708 71.76 143.772 71.784 143.82 71.832C143.868 71.88 143.892 71.944 143.892 72.024V72.588C144.092 72.316 144.352 72.092 144.672 71.916C145 71.732 145.412 71.64 145.908 71.64C146.38 71.64 146.776 71.724 147.096 71.892C147.416 72.052 147.676 72.268 147.876 72.54C148.076 72.812 148.224 73.116 148.32 73.452C148.416 73.788 148.468 74.132 148.476 74.484C148.484 74.604 148.488 74.736 148.488 74.88C148.488 75.024 148.484 75.156 148.476 75.276C148.468 75.628 148.416 75.972 148.32 76.308C148.224 76.644 148.076 76.948 147.876 77.22C147.676 77.492 147.416 77.712 147.096 77.88C146.776 78.04 146.38 78.12 145.908 78.12C145.412 78.12 145 78.028 144.672 77.844C144.352 77.66 144.092 77.436 143.892 77.172V80.016C143.892 80.096 143.868 80.16 143.82 80.208C143.772 80.256 143.708 80.28 143.628 80.28H143.424ZM145.836 77.424C146.308 77.424 146.68 77.32 146.952 77.112C147.224 76.904 147.42 76.632 147.54 76.296C147.66 75.96 147.728 75.6 147.744 75.216C147.752 74.992 147.752 74.768 147.744 74.544C147.728 74.16 147.66 73.8 147.54 73.464C147.42 73.128 147.224 72.856 146.952 72.648C146.68 72.44 146.308 72.336 145.836 72.336C145.38 72.336 145.012 72.444 144.732 72.66C144.452 72.876 144.244 73.148 144.108 73.476C143.98 73.796 143.908 74.12 143.892 74.448C143.884 74.568 143.88 74.724 143.88 74.916C143.88 75.108 143.884 75.264 143.892 75.384C143.9 75.704 143.972 76.02 144.108 76.332C144.252 76.644 144.464 76.904 144.744 77.112C145.032 77.32 145.396 77.424 145.836 77.424ZM152.436 78.12C151.66 78.12 151.044 77.868 150.588 77.364C150.132 76.852 149.872 76.184 149.808 75.36C149.8 75.24 149.796 75.08 149.796 74.88C149.796 74.68 149.8 74.52 149.808 74.4C149.848 73.856 149.976 73.376 150.192 72.96C150.408 72.544 150.704 72.22 151.08 71.988C151.464 71.756 151.916 71.64 152.436 71.64C152.996 71.64 153.472 71.764 153.864 72.012C154.256 72.26 154.556 72.616 154.764 73.08C154.98 73.544 155.088 74.096 155.088 74.736V74.916C155.088 74.996 155.06 75.06 155.004 75.108C154.956 75.156 154.892 75.18 154.812 75.18H150.54C150.54 75.18 150.54 75.196 150.54 75.228C150.54 75.26 150.54 75.284 150.54 75.3C150.556 75.66 150.64 76.004 150.792 76.332C150.944 76.652 151.16 76.916 151.44 77.124C151.72 77.324 152.052 77.424 152.436 77.424C152.78 77.424 153.064 77.372 153.288 77.268C153.52 77.164 153.704 77.052 153.84 76.932C153.976 76.804 154.064 76.708 154.104 76.644C154.176 76.54 154.232 76.48 154.272 76.464C154.312 76.44 154.376 76.428 154.464 76.428H154.656C154.728 76.428 154.788 76.452 154.836 76.5C154.892 76.54 154.916 76.596 154.908 76.668C154.9 76.78 154.836 76.92 154.716 77.088C154.604 77.248 154.44 77.408 154.224 77.568C154.016 77.728 153.76 77.86 153.456 77.964C153.152 78.068 152.812 78.12 152.436 78.12ZM150.54 74.508H154.356V74.46C154.356 74.06 154.28 73.7 154.128 73.38C153.976 73.06 153.756 72.808 153.468 72.624C153.18 72.432 152.836 72.336 152.436 72.336C152.036 72.336 151.692 72.432 151.404 72.624C151.124 72.808 150.908 73.06 150.756 73.38C150.612 73.7 150.54 74.06 150.54 74.46V74.508ZM156.203 79.32C156.123 79.32 156.059 79.296 156.011 79.248C155.963 79.2 155.939 79.136 155.939 79.056V77.568C155.939 77.488 155.963 77.424 156.011 77.376C156.059 77.328 156.123 77.304 156.203 77.304H156.239C156.463 77.296 156.659 77.168 156.827 76.92C156.995 76.672 157.123 76.272 157.211 75.72C157.307 75.16 157.355 74.42 157.355 73.5V72.024C157.355 71.944 157.379 71.88 157.427 71.832C157.475 71.784 157.539 71.76 157.619 71.76H161.075C161.155 71.76 161.219 71.784 161.267 71.832C161.315 71.88 161.339 71.944 161.339 72.024V77.28H161.927C162.007 77.28 162.071 77.304 162.119 77.352C162.167 77.4 162.191 77.464 162.191 77.544V79.056C162.191 79.136 162.167 79.2 162.119 79.248C162.071 79.296 162.007 79.32 161.927 79.32H161.723C161.643 79.32 161.579 79.296 161.531 79.248C161.483 79.2 161.459 79.136 161.459 79.056V78H156.671V79.056C156.671 79.136 156.647 79.2 156.599 79.248C156.551 79.296 156.487 79.32 156.407 79.32H156.203ZM157.295 77.304L160.607 77.28V72.456H158.087V73.584C158.087 74.544 158.019 75.324 157.883 75.924C157.747 76.524 157.551 76.984 157.295 77.304ZM163.849 78C163.769 78 163.705 77.976 163.657 77.928C163.609 77.88 163.585 77.816 163.585 77.736V72.024C163.585 71.944 163.609 71.88 163.657 71.832C163.705 71.784 163.769 71.76 163.849 71.76H164.053C164.133 71.76 164.197 71.784 164.245 71.832C164.293 71.88 164.317 71.944 164.317 72.024V74.46H168.061V72.024C168.061 71.944 168.085 71.88 168.133 71.832C168.181 71.784 168.245 71.76 168.325 71.76H168.529C168.609 71.76 168.673 71.784 168.721 71.832C168.769 71.88 168.793 71.944 168.793 72.024V77.736C168.793 77.816 168.769 77.88 168.721 77.928C168.673 77.976 168.609 78 168.529 78H168.325C168.245 78 168.181 77.976 168.133 77.928C168.085 77.88 168.061 77.816 168.061 77.736V75.156H164.317V77.736C164.317 77.816 164.293 77.88 164.245 77.928C164.197 77.976 164.133 78 164.053 78H163.849ZM174.55 78C174.47 78 174.406 77.976 174.358 77.928C174.31 77.88 174.286 77.816 174.286 77.736V75.672H172.75V75.612C172.038 75.612 171.518 75.428 171.19 75.06C170.862 74.684 170.698 74.22 170.698 73.668C170.698 73.004 170.886 72.52 171.262 72.216C171.638 71.912 172.226 71.76 173.026 71.76H174.754C174.834 71.76 174.898 71.784 174.946 71.832C174.994 71.88 175.018 71.944 175.018 72.024V77.736C175.018 77.816 174.994 77.88 174.946 77.928C174.898 77.976 174.834 78 174.754 78H174.55ZM170.782 78C170.718 78 170.662 77.976 170.614 77.928C170.566 77.88 170.542 77.824 170.542 77.76C170.542 77.728 170.546 77.692 170.554 77.652C170.57 77.612 170.598 77.568 170.638 77.52L172.114 75.408H173.014L171.322 77.82C171.29 77.86 171.242 77.9 171.178 77.94C171.122 77.98 171.062 78 170.998 78H170.782ZM172.798 74.976H174.286V72.456H172.918C172.406 72.456 172.03 72.544 171.79 72.72C171.55 72.896 171.43 73.212 171.43 73.668C171.43 74.044 171.538 74.356 171.754 74.604C171.978 74.852 172.326 74.976 172.798 74.976ZM180.772 78C180.692 78 180.628 77.976 180.58 77.928C180.532 77.88 180.508 77.816 180.508 77.736V75.672H178.972V75.612C178.26 75.612 177.74 75.428 177.412 75.06C177.084 74.684 176.92 74.22 176.92 73.668C176.92 73.004 177.108 72.52 177.484 72.216C177.86 71.912 178.448 71.76 179.248 71.76H180.976C181.056 71.76 181.12 71.784 181.168 71.832C181.216 71.88 181.24 71.944 181.24 72.024V77.736C181.24 77.816 181.216 77.88 181.168 77.928C181.12 77.976 181.056 78 180.976 78H180.772ZM177.004 78C176.94 78 176.884 77.976 176.836 77.928C176.788 77.88 176.764 77.824 176.764 77.76C176.764 77.728 176.768 77.692 176.776 77.652C176.792 77.612 176.82 77.568 176.86 77.52L178.336 75.408H179.236L177.544 77.82C177.512 77.86 177.464 77.9 177.4 77.94C177.344 77.98 177.284 78 177.22 78H177.004ZM179.02 74.976H180.508V72.456H179.14C178.628 72.456 178.252 72.544 178.012 72.72C177.772 72.896 177.652 73.212 177.652 73.668C177.652 74.044 177.76 74.356 177.976 74.604C178.2 74.852 178.548 74.976 179.02 74.976ZM191.625 79.56C191.545 79.56 191.481 79.536 191.433 79.488C191.385 79.44 191.361 79.376 191.361 79.296V78H186.537C186.457 78 186.393 77.976 186.345 77.928C186.297 77.88 186.273 77.816 186.273 77.736V72.024C186.273 71.944 186.297 71.88 186.345 71.832C186.393 71.784 186.457 71.76 186.537 71.76H186.741C186.821 71.76 186.885 71.784 186.933 71.832C186.981 71.88 187.005 71.944 187.005 72.024V77.304H190.509V72.024C190.509 71.944 190.533 71.88 190.581 71.832C190.629 71.784 190.693 71.76 190.773 71.76H190.977C191.057 71.76 191.121 71.784 191.169 71.832C191.217 71.88 191.241 71.944 191.241 72.024L191.229 77.304H191.829C191.909 77.304 191.973 77.328 192.021 77.376C192.069 77.424 192.093 77.488 192.093 77.568V79.296C192.093 79.376 192.069 79.44 192.021 79.488C191.973 79.536 191.909 79.56 191.829 79.56H191.625ZM195.796 78.12C195.02 78.12 194.404 77.868 193.948 77.364C193.492 76.852 193.232 76.184 193.168 75.36C193.16 75.24 193.156 75.08 193.156 74.88C193.156 74.68 193.16 74.52 193.168 74.4C193.208 73.856 193.336 73.376 193.552 72.96C193.768 72.544 194.064 72.22 194.44 71.988C194.824 71.756 195.276 71.64 195.796 71.64C196.356 71.64 196.832 71.764 197.224 72.012C197.616 72.26 197.916 72.616 198.124 73.08C198.34 73.544 198.448 74.096 198.448 74.736V74.916C198.448 74.996 198.42 75.06 198.364 75.108C198.316 75.156 198.252 75.18 198.172 75.18H193.9C193.9 75.18 193.9 75.196 193.9 75.228C193.9 75.26 193.9 75.284 193.9 75.3C193.916 75.66 194 76.004 194.152 76.332C194.304 76.652 194.52 76.916 194.8 77.124C195.08 77.324 195.412 77.424 195.796 77.424C196.14 77.424 196.424 77.372 196.648 77.268C196.88 77.164 197.064 77.052 197.2 76.932C197.336 76.804 197.424 76.708 197.464 76.644C197.536 76.54 197.592 76.48 197.632 76.464C197.672 76.44 197.736 76.428 197.824 76.428H198.016C198.088 76.428 198.148 76.452 198.196 76.5C198.252 76.54 198.276 76.596 198.268 76.668C198.26 76.78 198.196 76.92 198.076 77.088C197.964 77.248 197.8 77.408 197.584 77.568C197.376 77.728 197.12 77.86 196.816 77.964C196.512 78.068 196.172 78.12 195.796 78.12ZM193.9 74.508H197.716V74.46C197.716 74.06 197.64 73.7 197.488 73.38C197.336 73.06 197.116 72.808 196.828 72.624C196.54 72.432 196.196 72.336 195.796 72.336C195.396 72.336 195.052 72.432 194.764 72.624C194.484 72.808 194.268 73.06 194.116 73.38C193.972 73.7 193.9 74.06 193.9 74.46V74.508ZM200.295 78C200.215 78 200.151 77.976 200.103 77.928C200.055 77.88 200.031 77.816 200.031 77.736V72.024C200.031 71.944 200.055 71.88 200.103 71.832C200.151 71.784 200.215 71.76 200.295 71.76H200.499C200.579 71.76 200.643 71.784 200.691 71.832C200.739 71.88 200.763 71.944 200.763 72.024V74.46H204.507V72.024C204.507 71.944 204.531 71.88 204.579 71.832C204.627 71.784 204.691 71.76 204.771 71.76H204.975C205.055 71.76 205.119 71.784 205.167 71.832C205.215 71.88 205.239 71.944 205.239 72.024V77.736C205.239 77.816 205.215 77.88 205.167 77.928C205.119 77.976 205.055 78 204.975 78H204.771C204.691 78 204.627 77.976 204.579 77.928C204.531 77.88 204.507 77.816 204.507 77.736V75.156H200.763V77.736C200.763 77.816 200.739 77.88 200.691 77.928C200.643 77.976 200.579 78 200.499 78H200.295ZM208.859 78.12C208.475 78.12 208.119 78.04 207.791 77.88C207.471 77.72 207.211 77.508 207.011 77.244C206.811 76.972 206.711 76.668 206.711 76.332C206.711 75.788 206.931 75.352 207.371 75.024C207.811 74.696 208.383 74.484 209.087 74.388L210.983 74.124V73.704C210.983 73.28 210.851 72.948 210.587 72.708C210.331 72.46 209.919 72.336 209.351 72.336C208.935 72.336 208.599 72.42 208.343 72.588C208.087 72.748 207.911 72.96 207.815 73.224C207.775 73.344 207.699 73.404 207.587 73.404H207.395C207.299 73.404 207.231 73.38 207.191 73.332C207.151 73.276 207.131 73.212 207.131 73.14C207.131 73.028 207.171 72.888 207.251 72.72C207.339 72.552 207.471 72.388 207.647 72.228C207.823 72.06 208.051 71.92 208.331 71.808C208.611 71.696 208.951 71.64 209.351 71.64C209.823 71.64 210.211 71.704 210.515 71.832C210.827 71.96 211.067 72.128 211.235 72.336C211.411 72.536 211.535 72.76 211.607 73.008C211.679 73.256 211.715 73.5 211.715 73.74V77.736C211.715 77.816 211.691 77.88 211.643 77.928C211.595 77.976 211.531 78 211.451 78H211.247C211.167 78 211.103 77.976 211.055 77.928C211.007 77.88 210.983 77.816 210.983 77.736V77.172C210.887 77.316 210.751 77.46 210.575 77.604C210.399 77.748 210.171 77.872 209.891 77.976C209.619 78.072 209.275 78.12 208.859 78.12ZM208.979 77.424C209.347 77.424 209.683 77.344 209.987 77.184C210.291 77.024 210.531 76.78 210.707 76.452C210.891 76.116 210.983 75.696 210.983 75.192V74.784L209.435 75C208.779 75.088 208.283 75.24 207.947 75.456C207.611 75.672 207.443 75.944 207.443 76.272C207.443 76.536 207.519 76.752 207.671 76.92C207.823 77.088 208.015 77.216 208.247 77.304C208.487 77.384 208.731 77.424 208.979 77.424ZM143.525 92C143.437 92 143.365 91.972 143.309 91.916C143.261 91.86 143.237 91.792 143.237 91.712V85.496L141.413 86.9C141.341 86.948 141.269 86.968 141.197 86.96C141.125 86.944 141.061 86.9 141.005 86.828L140.501 86.18C140.453 86.108 140.433 86.032 140.441 85.952C140.457 85.872 140.501 85.808 140.573 85.76L143.261 83.684C143.309 83.644 143.357 83.62 143.405 83.612C143.453 83.604 143.505 83.6 143.561 83.6H144.617C144.697 83.6 144.765 83.628 144.821 83.684C144.877 83.74 144.905 83.808 144.905 83.888V91.712C144.905 91.792 144.877 91.86 144.821 91.916C144.765 91.972 144.697 92 144.617 92H143.525ZM150.496 92C150.416 92 150.348 91.972 150.292 91.916C150.236 91.86 150.208 91.792 150.208 91.712V90.176H146.404C146.316 90.176 146.244 90.148 146.188 90.092C146.14 90.036 146.116 89.968 146.116 89.888V89.072C146.116 89.024 146.124 88.968 146.14 88.904C146.164 88.832 146.2 88.768 146.248 88.712L149.788 83.804C149.892 83.668 150.04 83.6 150.232 83.6H151.54C151.62 83.6 151.688 83.628 151.744 83.684C151.8 83.74 151.828 83.808 151.828 83.888V88.76H152.896C152.992 88.76 153.064 88.788 153.112 88.844C153.168 88.892 153.196 88.96 153.196 89.048V89.888C153.196 89.968 153.168 90.036 153.112 90.092C153.056 90.148 152.988 90.176 152.908 90.176H151.828V91.712C151.828 91.792 151.8 91.86 151.744 91.916C151.688 91.972 151.62 92 151.54 92H150.496ZM147.784 88.808H150.244V85.34L147.784 88.808ZM157.382 92C157.302 92 157.238 91.976 157.19 91.928C157.142 91.88 157.118 91.82 157.118 91.748V85.988C157.118 85.924 157.142 85.872 157.19 85.832C157.246 85.784 157.302 85.76 157.358 85.76H158.366C158.502 85.76 158.606 85.828 158.678 85.964L160.526 89.324L162.374 85.964C162.446 85.828 162.55 85.76 162.686 85.76H163.682C163.754 85.76 163.814 85.784 163.862 85.832C163.91 85.872 163.934 85.924 163.934 85.988V91.748C163.934 91.82 163.91 91.88 163.862 91.928C163.814 91.976 163.75 92 163.67 92H162.638C162.558 92 162.494 91.976 162.446 91.928C162.406 91.88 162.386 91.82 162.386 91.748V87.392L162.878 87.476L161.102 90.752C161.062 90.824 161.014 90.892 160.958 90.956C160.902 91.012 160.822 91.04 160.718 91.04H160.322C160.226 91.04 160.15 91.012 160.094 90.956C160.038 90.9 159.99 90.832 159.95 90.752L158.21 87.608L158.666 87.536V91.748C158.666 91.82 158.642 91.88 158.594 91.928C158.546 91.976 158.486 92 158.414 92H157.382ZM165.364 92C165.276 92 165.204 91.972 165.148 91.916C165.092 91.86 165.064 91.788 165.064 91.7V90.956C165.064 90.78 165.156 90.684 165.34 90.668C165.58 90.652 165.772 90.54 165.916 90.332C166.06 90.124 166.164 89.804 166.228 89.372C166.292 88.932 166.324 88.364 166.324 87.668V86.048C166.324 85.968 166.352 85.9 166.408 85.844C166.464 85.788 166.536 85.76 166.624 85.76H170.884C170.964 85.76 171.032 85.788 171.088 85.844C171.144 85.9 171.172 85.968 171.172 86.048V91.712C171.172 91.792 171.144 91.86 171.088 91.916C171.032 91.972 170.964 92 170.884 92H169.888C169.8 92 169.728 91.972 169.672 91.916C169.624 91.86 169.6 91.792 169.6 91.712V87.032H167.836V87.836C167.836 88.604 167.792 89.256 167.704 89.792C167.624 90.32 167.484 90.748 167.284 91.076C167.092 91.396 166.836 91.632 166.516 91.784C166.204 91.928 165.82 92 165.364 92ZM173.074 92C172.994 92 172.926 91.972 172.87 91.916C172.814 91.86 172.786 91.792 172.786 91.712V86.048C172.786 85.968 172.814 85.9 172.87 85.844C172.926 85.788 172.994 85.76 173.074 85.76H174.07C174.158 85.76 174.226 85.788 174.274 85.844C174.33 85.9 174.358 85.968 174.358 86.048V88.196H177.07V86.048C177.07 85.968 177.098 85.9 177.154 85.844C177.21 85.788 177.278 85.76 177.358 85.76H178.354C178.434 85.76 178.502 85.788 178.558 85.844C178.614 85.9 178.642 85.968 178.642 86.048V91.712C178.642 91.792 178.614 91.86 178.558 91.916C178.502 91.972 178.434 92 178.354 92H177.358C177.278 92 177.21 91.972 177.154 91.916C177.098 91.86 177.07 91.792 177.07 91.712V89.456H174.358V91.712C174.358 91.792 174.33 91.86 174.274 91.916C174.226 91.972 174.158 92 174.07 92H173.074ZM183.305 94.28C183.225 94.28 183.157 94.252 183.101 94.196C183.045 94.14 183.017 94.072 183.017 93.992V86.048C183.017 85.968 183.045 85.9 183.101 85.844C183.157 85.788 183.225 85.76 183.305 85.76H184.253C184.341 85.76 184.409 85.788 184.457 85.844C184.513 85.9 184.541 85.968 184.541 86.048V86.528C184.733 86.272 184.985 86.06 185.297 85.892C185.609 85.724 185.997 85.64 186.461 85.64C186.885 85.64 187.253 85.708 187.565 85.844C187.877 85.98 188.137 86.176 188.345 86.432C188.553 86.68 188.713 86.976 188.825 87.32C188.937 87.664 189.001 88.044 189.017 88.46C189.025 88.596 189.029 88.736 189.029 88.88C189.029 89.024 189.025 89.168 189.017 89.312C189.009 89.712 188.949 90.084 188.837 90.428C188.725 90.764 188.561 91.06 188.345 91.316C188.137 91.564 187.877 91.76 187.565 91.904C187.253 92.048 186.885 92.12 186.461 92.12C186.029 92.12 185.661 92.044 185.357 91.892C185.053 91.732 184.805 91.524 184.613 91.268V93.992C184.613 94.072 184.585 94.14 184.529 94.196C184.481 94.252 184.413 94.28 184.325 94.28H183.305ZM186.017 90.836C186.361 90.836 186.629 90.764 186.821 90.62C187.013 90.468 187.149 90.272 187.229 90.032C187.317 89.792 187.369 89.528 187.385 89.24C187.401 89 187.401 88.76 187.385 88.52C187.369 88.232 187.317 87.968 187.229 87.728C187.149 87.488 187.013 87.296 186.821 87.152C186.629 87 186.361 86.924 186.017 86.924C185.689 86.924 185.421 87 185.213 87.152C185.013 87.304 184.865 87.5 184.769 87.74C184.681 87.972 184.629 88.212 184.613 88.46C184.605 88.604 184.601 88.756 184.601 88.916C184.601 89.076 184.605 89.232 184.613 89.384C184.621 89.624 184.677 89.856 184.781 90.08C184.885 90.296 185.037 90.476 185.237 90.62C185.437 90.764 185.697 90.836 186.017 90.836ZM190.82 94.28C190.74 94.28 190.672 94.252 190.616 94.196C190.56 94.148 190.532 94.08 190.532 93.992V93.308C190.532 93.22 190.56 93.148 190.616 93.092C190.672 93.044 190.74 93.02 190.82 93.02H191.192C191.352 93.02 191.484 92.988 191.588 92.924C191.692 92.86 191.788 92.752 191.876 92.6C191.964 92.456 192.06 92.256 192.164 92L194.66 85.988C194.692 85.924 194.732 85.872 194.78 85.832C194.828 85.784 194.9 85.76 194.996 85.76H195.908C195.972 85.76 196.028 85.784 196.076 85.832C196.132 85.88 196.16 85.936 196.16 86C196.16 86.032 196.156 86.06 196.148 86.084C196.148 86.108 196.136 86.144 196.112 86.192L193.832 91.64C193.696 91.984 193.548 92.312 193.388 92.624C193.236 92.944 193.064 93.228 192.872 93.476C192.688 93.732 192.472 93.928 192.224 94.064C191.976 94.208 191.684 94.28 191.348 94.28H190.82ZM192.368 91.844L189.932 86.192C189.9 86.112 189.884 86.056 189.884 86.024C189.892 85.952 189.92 85.892 189.968 85.844C190.016 85.788 190.076 85.76 190.148 85.76H191.108C191.204 85.76 191.272 85.784 191.312 85.832C191.36 85.88 191.396 85.932 191.42 85.988L193.28 90.572L192.368 91.844ZM200.04 92.12C199.376 92.12 198.824 92.004 198.384 91.772C197.952 91.532 197.628 91.184 197.412 90.728C197.196 90.272 197.072 89.716 197.04 89.06C197.04 88.828 197.04 88.588 197.04 88.34C197.04 88.092 197.04 87.852 197.04 87.62C197.056 86.916 197.124 86.332 197.244 85.868C197.372 85.396 197.56 85.008 197.808 84.704C198.056 84.392 198.376 84.136 198.768 83.936C199.16 83.728 199.624 83.548 200.16 83.396C200.696 83.244 201.316 83.084 202.02 82.916C202.1 82.9 202.172 82.912 202.236 82.952C202.308 82.992 202.348 83.056 202.356 83.144L202.512 83.936C202.528 84.016 202.516 84.088 202.476 84.152C202.436 84.208 202.38 84.244 202.308 84.26C201.7 84.396 201.176 84.52 200.736 84.632C200.296 84.736 199.932 84.856 199.644 84.992C199.356 85.128 199.128 85.308 198.96 85.532C198.8 85.748 198.688 86.032 198.624 86.384C198.56 86.736 198.54 87.188 198.564 87.74L198.288 87.512C198.336 87.264 198.46 87.036 198.66 86.828C198.86 86.62 199.104 86.456 199.392 86.336C199.688 86.208 200 86.144 200.328 86.144C200.904 86.144 201.388 86.252 201.78 86.468C202.172 86.684 202.472 86.988 202.68 87.38C202.896 87.764 203.016 88.216 203.04 88.736C203.056 89.024 203.056 89.288 203.04 89.528C203.016 90.04 202.888 90.492 202.656 90.884C202.424 91.276 202.092 91.58 201.66 91.796C201.228 92.012 200.688 92.12 200.04 92.12ZM200.04 91.016C200.472 91.016 200.804 90.884 201.036 90.62C201.268 90.356 201.392 89.972 201.408 89.468C201.416 89.38 201.42 89.276 201.42 89.156C201.42 89.028 201.416 88.908 201.408 88.796C201.392 88.292 201.268 87.908 201.036 87.644C200.812 87.38 200.512 87.248 200.136 87.248C199.704 87.248 199.356 87.38 199.092 87.644C198.836 87.908 198.7 88.292 198.684 88.796C198.676 88.908 198.672 89.028 198.672 89.156C198.672 89.276 198.676 89.38 198.684 89.468C198.7 89.972 198.824 90.356 199.056 90.62C199.288 90.884 199.616 91.016 200.04 91.016ZM204.596 92C204.516 92 204.448 91.972 204.392 91.916C204.336 91.86 204.308 91.792 204.308 91.712V90.524C204.308 90.436 204.336 90.364 204.392 90.308C204.448 90.252 204.516 90.224 204.596 90.224H205.796C205.876 90.224 205.944 90.252 206 90.308C206.056 90.364 206.084 90.436 206.084 90.524V91.712C206.084 91.792 206.056 91.86 206 91.916C205.944 91.972 205.876 92 205.796 92H204.596Z" fill="#070707"/>
<circle cx="297.5" cy="58" r="4.5" fill="#6A4ED4" stroke="white"/>
<path d="M259.874 78C259.794 78 259.73 77.976 259.682 77.928C259.634 77.88 259.61 77.816 259.61 77.736V69.876C259.61 69.788 259.634 69.72 259.682 69.672C259.73 69.624 259.794 69.6 259.874 69.6H263.006C263.566 69.6 264.022 69.7 264.374 69.9C264.734 70.1 264.998 70.364 265.166 70.692C265.334 71.012 265.418 71.364 265.418 71.748C265.418 72.092 265.362 72.388 265.25 72.636C265.146 72.876 265.01 73.072 264.842 73.224C264.682 73.376 264.522 73.492 264.362 73.572C264.682 73.732 264.966 73.988 265.214 74.34C265.462 74.692 265.586 75.12 265.586 75.624C265.586 76.024 265.49 76.408 265.298 76.776C265.114 77.136 264.834 77.432 264.458 77.664C264.09 77.888 263.634 78 263.09 78H259.874ZM260.366 77.28H262.97C263.562 77.28 264.018 77.124 264.338 76.812C264.666 76.5 264.83 76.104 264.83 75.624C264.83 75.136 264.666 74.74 264.338 74.436C264.018 74.124 263.562 73.968 262.97 73.968H260.366V77.28ZM260.366 73.248H262.85C263.442 73.248 263.89 73.116 264.194 72.852C264.506 72.588 264.662 72.22 264.662 71.748C264.662 71.276 264.506 70.92 264.194 70.68C263.89 70.44 263.442 70.32 262.85 70.32H260.366V73.248ZM267.558 78C267.478 78 267.414 77.976 267.366 77.928C267.318 77.88 267.294 77.816 267.294 77.736V72.024C267.294 71.944 267.318 71.88 267.366 71.832C267.414 71.784 267.478 71.76 267.558 71.76H267.762C267.842 71.76 267.906 71.784 267.954 71.832C268.002 71.88 268.026 71.944 268.026 72.024V73.848H269.346C270.162 73.848 270.742 74.04 271.086 74.424C271.438 74.808 271.614 75.324 271.614 75.972C271.614 76.676 271.414 77.192 271.014 77.52C270.622 77.84 270.006 78 269.166 78H267.558ZM268.026 77.304H269.274C269.834 77.304 270.242 77.208 270.498 77.016C270.754 76.816 270.882 76.468 270.882 75.972C270.882 75.492 270.758 75.136 270.51 74.904C270.262 74.664 269.85 74.544 269.274 74.544H268.026V77.304ZM272.79 78C272.71 78 272.646 77.976 272.598 77.928C272.55 77.88 272.526 77.816 272.526 77.736V72.024C272.526 71.944 272.55 71.88 272.598 71.832C272.646 71.784 272.71 71.76 272.79 71.76H272.994C273.074 71.76 273.138 71.784 273.186 71.832C273.234 71.88 273.258 71.944 273.258 72.024V77.736C273.258 77.816 273.234 77.88 273.186 77.928C273.138 77.976 273.074 78 272.994 78H272.79ZM277.568 78.12C277.008 78.12 276.532 78.012 276.14 77.796C275.748 77.572 275.448 77.252 275.24 76.836C275.04 76.42 274.932 75.928 274.916 75.36C274.908 75.24 274.904 75.08 274.904 74.88C274.904 74.68 274.908 74.52 274.916 74.4C274.932 73.824 275.04 73.332 275.24 72.924C275.448 72.508 275.748 72.192 276.14 71.976C276.532 71.752 277.008 71.64 277.568 71.64C277.992 71.64 278.356 71.7 278.66 71.82C278.972 71.932 279.228 72.084 279.428 72.276C279.628 72.46 279.78 72.664 279.884 72.888C279.988 73.112 280.044 73.332 280.052 73.548C280.06 73.628 280.036 73.692 279.98 73.74C279.924 73.788 279.86 73.812 279.788 73.812H279.62C279.54 73.812 279.48 73.796 279.44 73.764C279.408 73.724 279.372 73.656 279.332 73.56C279.164 73.104 278.932 72.788 278.636 72.612C278.348 72.428 277.992 72.336 277.568 72.336C277.024 72.336 276.572 72.504 276.212 72.84C275.86 73.168 275.672 73.708 275.648 74.46C275.632 74.74 275.632 75.02 275.648 75.3C275.672 76.052 275.86 76.596 276.212 76.932C276.572 77.26 277.024 77.424 277.568 77.424C277.992 77.424 278.348 77.336 278.636 77.16C278.932 76.976 279.164 76.656 279.332 76.2C279.372 76.104 279.408 76.04 279.44 76.008C279.48 75.968 279.54 75.948 279.62 75.948H279.788C279.86 75.948 279.924 75.972 279.98 76.02C280.036 76.068 280.06 76.132 280.052 76.212C280.044 76.388 280.008 76.564 279.944 76.74C279.88 76.916 279.78 77.088 279.644 77.256C279.516 77.424 279.356 77.572 279.164 77.7C278.972 77.828 278.74 77.928 278.468 78C278.204 78.08 277.904 78.12 277.568 78.12ZM284.014 78.12C283.438 78.12 282.954 78 282.562 77.76C282.178 77.52 281.882 77.192 281.674 76.776C281.474 76.36 281.366 75.896 281.35 75.384C281.342 75.264 281.338 75.096 281.338 74.88C281.338 74.664 281.342 74.496 281.35 74.376C281.366 73.856 281.474 73.392 281.674 72.984C281.882 72.568 282.178 72.24 282.562 72C282.954 71.76 283.438 71.64 284.014 71.64C284.59 71.64 285.07 71.76 285.454 72C285.846 72.24 286.142 72.568 286.342 72.984C286.55 73.392 286.662 73.856 286.678 74.376C286.686 74.496 286.69 74.664 286.69 74.88C286.69 75.096 286.686 75.264 286.678 75.384C286.662 75.896 286.55 76.36 286.342 76.776C286.142 77.192 285.846 77.52 285.454 77.76C285.07 78 284.59 78.12 284.014 78.12ZM284.014 77.424C284.574 77.424 285.03 77.244 285.382 76.884C285.734 76.524 285.922 76.004 285.946 75.324C285.954 75.204 285.958 75.056 285.958 74.88C285.958 74.704 285.954 74.556 285.946 74.436C285.922 73.748 285.734 73.228 285.382 72.876C285.03 72.516 284.574 72.336 284.014 72.336C283.454 72.336 282.998 72.516 282.646 72.876C282.294 73.228 282.106 73.748 282.082 74.436C282.074 74.556 282.07 74.704 282.07 74.88C282.07 75.056 282.074 75.204 282.082 75.324C282.106 76.004 282.294 76.524 282.646 76.884C282.998 77.244 283.454 77.424 284.014 77.424ZM288.593 78C288.513 78 288.449 77.976 288.401 77.928C288.353 77.88 288.329 77.816 288.329 77.736V72.024C288.329 71.944 288.353 71.88 288.401 71.832C288.449 71.784 288.513 71.76 288.593 71.76H288.797C288.877 71.76 288.941 71.784 288.989 71.832C289.037 71.88 289.061 71.944 289.061 72.024V74.46H290.345L292.109 71.94C292.149 71.876 292.193 71.832 292.241 71.808C292.289 71.776 292.349 71.76 292.421 71.76H292.661C292.733 71.76 292.789 71.776 292.829 71.808C292.877 71.832 292.901 71.872 292.901 71.928C292.901 71.944 292.893 71.964 292.877 71.988C292.869 72.012 292.857 72.04 292.841 72.072L290.981 74.736L293.069 77.676C293.109 77.724 293.129 77.776 293.129 77.832C293.129 77.888 293.109 77.932 293.069 77.964C293.029 77.988 292.973 78 292.901 78H292.589C292.517 78 292.457 77.988 292.409 77.964C292.361 77.932 292.317 77.888 292.277 77.832L290.381 75.18H289.061V77.736C289.061 77.816 289.037 77.88 288.989 77.928C288.941 77.976 288.877 78 288.797 78H288.593ZM296.08 78.12C295.696 78.12 295.34 78.04 295.012 77.88C294.692 77.72 294.432 77.508 294.232 77.244C294.032 76.972 293.932 76.668 293.932 76.332C293.932 75.788 294.152 75.352 294.592 75.024C295.032 74.696 295.604 74.484 296.308 74.388L298.204 74.124V73.704C298.204 73.28 298.072 72.948 297.808 72.708C297.552 72.46 297.14 72.336 296.572 72.336C296.156 72.336 295.82 72.42 295.564 72.588C295.308 72.748 295.132 72.96 295.036 73.224C294.996 73.344 294.92 73.404 294.808 73.404H294.616C294.52 73.404 294.452 73.38 294.412 73.332C294.372 73.276 294.352 73.212 294.352 73.14C294.352 73.028 294.392 72.888 294.472 72.72C294.56 72.552 294.692 72.388 294.868 72.228C295.044 72.06 295.272 71.92 295.552 71.808C295.832 71.696 296.172 71.64 296.572 71.64C297.044 71.64 297.432 71.704 297.736 71.832C298.048 71.96 298.288 72.128 298.456 72.336C298.632 72.536 298.756 72.76 298.828 73.008C298.9 73.256 298.936 73.5 298.936 73.74V77.736C298.936 77.816 298.912 77.88 298.864 77.928C298.816 77.976 298.752 78 298.672 78H298.468C298.388 78 298.324 77.976 298.276 77.928C298.228 77.88 298.204 77.816 298.204 77.736V77.172C298.108 77.316 297.972 77.46 297.796 77.604C297.62 77.748 297.392 77.872 297.112 77.976C296.84 78.072 296.496 78.12 296.08 78.12ZM296.2 77.424C296.568 77.424 296.904 77.344 297.208 77.184C297.512 77.024 297.752 76.78 297.928 76.452C298.112 76.116 298.204 75.696 298.204 75.192V74.784L296.656 75C296 75.088 295.504 75.24 295.168 75.456C294.832 75.672 294.664 75.944 294.664 76.272C294.664 76.536 294.74 76.752 294.892 76.92C295.044 77.088 295.236 77.216 295.468 77.304C295.708 77.384 295.952 77.424 296.2 77.424ZM304.649 78C304.569 78 304.505 77.976 304.457 77.928C304.409 77.88 304.385 77.816 304.385 77.736V75.672H302.849V75.612C302.137 75.612 301.617 75.428 301.289 75.06C300.961 74.684 300.797 74.22 300.797 73.668C300.797 73.004 300.985 72.52 301.361 72.216C301.737 71.912 302.325 71.76 303.125 71.76H304.853C304.933 71.76 304.997 71.784 305.045 71.832C305.093 71.88 305.117 71.944 305.117 72.024V77.736C305.117 77.816 305.093 77.88 305.045 77.928C304.997 77.976 304.933 78 304.853 78H304.649ZM300.881 78C300.817 78 300.761 77.976 300.713 77.928C300.665 77.88 300.641 77.824 300.641 77.76C300.641 77.728 300.645 77.692 300.653 77.652C300.669 77.612 300.697 77.568 300.737 77.52L302.213 75.408H303.113L301.421 77.82C301.389 77.86 301.341 77.9 301.277 77.94C301.221 77.98 301.161 78 301.097 78H300.881ZM302.897 74.976H304.385V72.456H303.017C302.505 72.456 302.129 72.544 301.889 72.72C301.649 72.896 301.529 73.212 301.529 73.668C301.529 74.044 301.637 74.356 301.853 74.604C302.077 74.852 302.425 74.976 302.897 74.976ZM315.502 79.56C315.422 79.56 315.358 79.536 315.31 79.488C315.262 79.44 315.238 79.376 315.238 79.296V78H310.414C310.334 78 310.27 77.976 310.222 77.928C310.174 77.88 310.15 77.816 310.15 77.736V72.024C310.15 71.944 310.174 71.88 310.222 71.832C310.27 71.784 310.334 71.76 310.414 71.76H310.618C310.698 71.76 310.762 71.784 310.81 71.832C310.858 71.88 310.882 71.944 310.882 72.024V77.304H314.386V72.024C314.386 71.944 314.41 71.88 314.458 71.832C314.506 71.784 314.57 71.76 314.65 71.76H314.854C314.934 71.76 314.998 71.784 315.046 71.832C315.094 71.88 315.118 71.944 315.118 72.024L315.106 77.304H315.706C315.786 77.304 315.85 77.328 315.898 77.376C315.946 77.424 315.97 77.488 315.97 77.568V79.296C315.97 79.376 315.946 79.44 315.898 79.488C315.85 79.536 315.786 79.56 315.706 79.56H315.502ZM319.673 78.12C318.897 78.12 318.281 77.868 317.825 77.364C317.369 76.852 317.109 76.184 317.045 75.36C317.037 75.24 317.033 75.08 317.033 74.88C317.033 74.68 317.037 74.52 317.045 74.4C317.085 73.856 317.213 73.376 317.429 72.96C317.645 72.544 317.941 72.22 318.317 71.988C318.701 71.756 319.153 71.64 319.673 71.64C320.233 71.64 320.709 71.764 321.101 72.012C321.493 72.26 321.793 72.616 322.001 73.08C322.217 73.544 322.325 74.096 322.325 74.736V74.916C322.325 74.996 322.297 75.06 322.241 75.108C322.193 75.156 322.129 75.18 322.049 75.18H317.777C317.777 75.18 317.777 75.196 317.777 75.228C317.777 75.26 317.777 75.284 317.777 75.3C317.793 75.66 317.877 76.004 318.029 76.332C318.181 76.652 318.397 76.916 318.677 77.124C318.957 77.324 319.289 77.424 319.673 77.424C320.017 77.424 320.301 77.372 320.525 77.268C320.757 77.164 320.941 77.052 321.077 76.932C321.213 76.804 321.301 76.708 321.341 76.644C321.413 76.54 321.469 76.48 321.509 76.464C321.549 76.44 321.613 76.428 321.701 76.428H321.893C321.965 76.428 322.025 76.452 322.073 76.5C322.129 76.54 322.153 76.596 322.145 76.668C322.137 76.78 322.073 76.92 321.953 77.088C321.841 77.248 321.677 77.408 321.461 77.568C321.253 77.728 320.997 77.86 320.693 77.964C320.389 78.068 320.049 78.12 319.673 78.12ZM317.777 74.508H321.593V74.46C321.593 74.06 321.517 73.7 321.365 73.38C321.213 73.06 320.993 72.808 320.705 72.624C320.417 72.432 320.073 72.336 319.673 72.336C319.273 72.336 318.929 72.432 318.641 72.624C318.361 72.808 318.145 73.06 317.993 73.38C317.849 73.7 317.777 74.06 317.777 74.46V74.508ZM324.172 78C324.092 78 324.028 77.976 323.98 77.928C323.932 77.88 323.908 77.816 323.908 77.736V72.024C323.908 71.944 323.932 71.88 323.98 71.832C324.028 71.784 324.092 71.76 324.172 71.76H324.376C324.456 71.76 324.52 71.784 324.568 71.832C324.616 71.88 324.64 71.944 324.64 72.024V74.46H328.384V72.024C328.384 71.944 328.408 71.88 328.456 71.832C328.504 71.784 328.568 71.76 328.648 71.76H328.852C328.932 71.76 328.996 71.784 329.044 71.832C329.092 71.88 329.116 71.944 329.116 72.024V77.736C329.116 77.816 329.092 77.88 329.044 77.928C328.996 77.976 328.932 78 328.852 78H328.648C328.568 78 328.504 77.976 328.456 77.928C328.408 77.88 328.384 77.816 328.384 77.736V75.156H324.64V77.736C324.64 77.816 324.616 77.88 324.568 77.928C324.52 77.976 324.456 78 324.376 78H324.172ZM332.736 78.12C332.352 78.12 331.996 78.04 331.668 77.88C331.348 77.72 331.088 77.508 330.888 77.244C330.688 76.972 330.588 76.668 330.588 76.332C330.588 75.788 330.808 75.352 331.248 75.024C331.688 74.696 332.26 74.484 332.964 74.388L334.86 74.124V73.704C334.86 73.28 334.728 72.948 334.464 72.708C334.208 72.46 333.796 72.336 333.228 72.336C332.812 72.336 332.476 72.42 332.22 72.588C331.964 72.748 331.788 72.96 331.692 73.224C331.652 73.344 331.576 73.404 331.464 73.404H331.272C331.176 73.404 331.108 73.38 331.068 73.332C331.028 73.276 331.008 73.212 331.008 73.14C331.008 73.028 331.048 72.888 331.128 72.72C331.216 72.552 331.348 72.388 331.524 72.228C331.7 72.06 331.928 71.92 332.208 71.808C332.488 71.696 332.828 71.64 333.228 71.64C333.7 71.64 334.088 71.704 334.392 71.832C334.704 71.96 334.944 72.128 335.112 72.336C335.288 72.536 335.412 72.76 335.484 73.008C335.556 73.256 335.592 73.5 335.592 73.74V77.736C335.592 77.816 335.568 77.88 335.52 77.928C335.472 77.976 335.408 78 335.328 78H335.124C335.044 78 334.98 77.976 334.932 77.928C334.884 77.88 334.86 77.816 334.86 77.736V77.172C334.764 77.316 334.628 77.46 334.452 77.604C334.276 77.748 334.048 77.872 333.768 77.976C333.496 78.072 333.152 78.12 332.736 78.12ZM332.856 77.424C333.224 77.424 333.56 77.344 333.864 77.184C334.168 77.024 334.408 76.78 334.584 76.452C334.768 76.116 334.86 75.696 334.86 75.192V74.784L333.312 75C332.656 75.088 332.16 75.24 331.824 75.456C331.488 75.672 331.32 75.944 331.32 76.272C331.32 76.536 331.396 76.752 331.548 76.92C331.7 77.088 331.892 77.216 332.124 77.304C332.364 77.384 332.608 77.424 332.856 77.424ZM267.502 92C267.414 92 267.342 91.972 267.286 91.916C267.238 91.86 267.214 91.792 267.214 91.712V85.496L265.39 86.9C265.318 86.948 265.246 86.968 265.174 86.96C265.102 86.944 265.038 86.9 264.982 86.828L264.478 86.18C264.43 86.108 264.41 86.032 264.418 85.952C264.434 85.872 264.478 85.808 264.55 85.76L267.238 83.684C267.286 83.644 267.334 83.62 267.382 83.612C267.43 83.604 267.482 83.6 267.538 83.6H268.594C268.674 83.6 268.742 83.628 268.798 83.684C268.854 83.74 268.882 83.808 268.882 83.888V91.712C268.882 91.792 268.854 91.86 268.798 91.916C268.742 91.972 268.674 92 268.594 92H267.502ZM273.668 92.12C273.14 92.12 272.668 92.056 272.252 91.928C271.836 91.8 271.484 91.62 271.196 91.388C270.916 91.156 270.7 90.884 270.548 90.572C270.404 90.26 270.332 89.912 270.332 89.528C270.332 89.064 270.444 88.664 270.668 88.328C270.9 87.984 271.2 87.72 271.568 87.536C271.272 87.352 271.04 87.116 270.872 86.828C270.712 86.54 270.632 86.204 270.632 85.82C270.632 85.356 270.748 84.952 270.98 84.608C271.22 84.256 271.564 83.98 272.012 83.78C272.468 83.58 273.02 83.48 273.668 83.48C274.316 83.48 274.864 83.58 275.312 83.78C275.76 83.972 276.1 84.244 276.332 84.596C276.564 84.94 276.68 85.344 276.68 85.808C276.68 86.192 276.6 86.528 276.44 86.816C276.28 87.104 276.056 87.344 275.768 87.536C276.144 87.712 276.444 87.976 276.668 88.328C276.892 88.672 277.004 89.076 277.004 89.54C277.004 90.044 276.872 90.492 276.608 90.884C276.352 91.268 275.972 91.572 275.468 91.796C274.972 92.012 274.372 92.12 273.668 92.12ZM273.668 90.872C273.98 90.872 274.26 90.82 274.508 90.716C274.764 90.604 274.964 90.448 275.108 90.248C275.26 90.048 275.336 89.812 275.336 89.54C275.336 89.26 275.26 89.024 275.108 88.832C274.964 88.632 274.764 88.48 274.508 88.376C274.26 88.264 273.98 88.208 273.668 88.208C273.356 88.208 273.072 88.264 272.816 88.376C272.568 88.48 272.368 88.632 272.216 88.832C272.072 89.024 272 89.26 272 89.54C272 89.812 272.072 90.048 272.216 90.248C272.368 90.448 272.568 90.604 272.816 90.716C273.072 90.82 273.356 90.872 273.668 90.872ZM273.668 87.02C273.932 87.012 274.172 86.96 274.388 86.864C274.612 86.768 274.788 86.64 274.916 86.48C275.052 86.312 275.12 86.112 275.12 85.88C275.12 85.648 275.056 85.448 274.928 85.28C274.808 85.104 274.636 84.968 274.412 84.872C274.196 84.776 273.948 84.728 273.668 84.728C273.388 84.728 273.136 84.776 272.912 84.872C272.696 84.968 272.524 85.104 272.396 85.28C272.276 85.448 272.216 85.648 272.216 85.88C272.216 86.112 272.276 86.312 272.396 86.48C272.524 86.648 272.696 86.78 272.912 86.876C273.136 86.972 273.388 87.02 273.668 87.02ZM281.406 92C281.326 92 281.262 91.976 281.214 91.928C281.166 91.88 281.142 91.82 281.142 91.748V85.988C281.142 85.924 281.166 85.872 281.214 85.832C281.27 85.784 281.326 85.76 281.382 85.76H282.39C282.526 85.76 282.63 85.828 282.702 85.964L284.55 89.324L286.398 85.964C286.47 85.828 286.574 85.76 286.71 85.76H287.706C287.778 85.76 287.838 85.784 287.886 85.832C287.934 85.872 287.958 85.924 287.958 85.988V91.748C287.958 91.82 287.934 91.88 287.886 91.928C287.838 91.976 287.774 92 287.694 92H286.662C286.582 92 286.518 91.976 286.47 91.928C286.43 91.88 286.41 91.82 286.41 91.748V87.392L286.902 87.476L285.126 90.752C285.086 90.824 285.038 90.892 284.982 90.956C284.926 91.012 284.846 91.04 284.742 91.04H284.346C284.25 91.04 284.174 91.012 284.118 90.956C284.062 90.9 284.014 90.832 283.974 90.752L282.234 87.608L282.69 87.536V91.748C282.69 91.82 282.666 91.88 282.618 91.928C282.57 91.976 282.51 92 282.438 92H281.406ZM289.387 92C289.299 92 289.227 91.972 289.171 91.916C289.115 91.86 289.087 91.788 289.087 91.7V90.956C289.087 90.78 289.179 90.684 289.363 90.668C289.603 90.652 289.795 90.54 289.939 90.332C290.083 90.124 290.187 89.804 290.251 89.372C290.315 88.932 290.347 88.364 290.347 87.668V86.048C290.347 85.968 290.375 85.9 290.431 85.844C290.487 85.788 290.559 85.76 290.647 85.76H294.907C294.987 85.76 295.055 85.788 295.111 85.844C295.167 85.9 295.195 85.968 295.195 86.048V91.712C295.195 91.792 295.167 91.86 295.111 91.916C295.055 91.972 294.987 92 294.907 92H293.911C293.823 92 293.751 91.972 293.695 91.916C293.647 91.86 293.623 91.792 293.623 91.712V87.032H291.859V87.836C291.859 88.604 291.815 89.256 291.727 89.792C291.647 90.32 291.507 90.748 291.307 91.076C291.115 91.396 290.859 91.632 290.539 91.784C290.227 91.928 289.843 92 289.387 92ZM297.098 92C297.018 92 296.95 91.972 296.894 91.916C296.838 91.86 296.81 91.792 296.81 91.712V86.048C296.81 85.968 296.838 85.9 296.894 85.844C296.95 85.788 297.018 85.76 297.098 85.76H298.094C298.182 85.76 298.25 85.788 298.298 85.844C298.354 85.9 298.382 85.968 298.382 86.048V88.196H301.094V86.048C301.094 85.968 301.122 85.9 301.178 85.844C301.234 85.788 301.302 85.76 301.382 85.76H302.378C302.458 85.76 302.526 85.788 302.582 85.844C302.638 85.9 302.666 85.968 302.666 86.048V91.712C302.666 91.792 302.638 91.86 302.582 91.916C302.526 91.972 302.458 92 302.378 92H301.382C301.302 92 301.234 91.972 301.178 91.916C301.122 91.86 301.094 91.792 301.094 91.712V89.456H298.382V91.712C298.382 91.792 298.354 91.86 298.298 91.916C298.25 91.972 298.182 92 298.094 92H297.098ZM307.328 94.28C307.248 94.28 307.18 94.252 307.124 94.196C307.068 94.14 307.04 94.072 307.04 93.992V86.048C307.04 85.968 307.068 85.9 307.124 85.844C307.18 85.788 307.248 85.76 307.328 85.76H308.276C308.364 85.76 308.432 85.788 308.48 85.844C308.536 85.9 308.564 85.968 308.564 86.048V86.528C308.756 86.272 309.008 86.06 309.32 85.892C309.632 85.724 310.02 85.64 310.484 85.64C310.908 85.64 311.276 85.708 311.588 85.844C311.9 85.98 312.16 86.176 312.368 86.432C312.576 86.68 312.736 86.976 312.848 87.32C312.96 87.664 313.024 88.044 313.04 88.46C313.048 88.596 313.052 88.736 313.052 88.88C313.052 89.024 313.048 89.168 313.04 89.312C313.032 89.712 312.972 90.084 312.86 90.428C312.748 90.764 312.584 91.06 312.368 91.316C312.16 91.564 311.9 91.76 311.588 91.904C311.276 92.048 310.908 92.12 310.484 92.12C310.052 92.12 309.684 92.044 309.38 91.892C309.076 91.732 308.828 91.524 308.636 91.268V93.992C308.636 94.072 308.608 94.14 308.552 94.196C308.504 94.252 308.436 94.28 308.348 94.28H307.328ZM310.04 90.836C310.384 90.836 310.652 90.764 310.844 90.62C311.036 90.468 311.172 90.272 311.252 90.032C311.34 89.792 311.392 89.528 311.408 89.24C311.424 89 311.424 88.76 311.408 88.52C311.392 88.232 311.34 87.968 311.252 87.728C311.172 87.488 311.036 87.296 310.844 87.152C310.652 87 310.384 86.924 310.04 86.924C309.712 86.924 309.444 87 309.236 87.152C309.036 87.304 308.888 87.5 308.792 87.74C308.704 87.972 308.652 88.212 308.636 88.46C308.628 88.604 308.624 88.756 308.624 88.916C308.624 89.076 308.628 89.232 308.636 89.384C308.644 89.624 308.7 89.856 308.804 90.08C308.908 90.296 309.06 90.476 309.26 90.62C309.46 90.764 309.72 90.836 310.04 90.836ZM314.843 94.28C314.763 94.28 314.695 94.252 314.639 94.196C314.583 94.148 314.555 94.08 314.555 93.992V93.308C314.555 93.22 314.583 93.148 314.639 93.092C314.695 93.044 314.763 93.02 314.843 93.02H315.215C315.375 93.02 315.507 92.988 315.611 92.924C315.715 92.86 315.811 92.752 315.899 92.6C315.987 92.456 316.083 92.256 316.187 92L318.683 85.988C318.715 85.924 318.755 85.872 318.803 85.832C318.851 85.784 318.923 85.76 319.019 85.76H319.931C319.995 85.76 320.051 85.784 320.099 85.832C320.155 85.88 320.183 85.936 320.183 86C320.183 86.032 320.179 86.06 320.171 86.084C320.171 86.108 320.159 86.144 320.135 86.192L317.855 91.64C317.719 91.984 317.571 92.312 317.411 92.624C317.259 92.944 317.087 93.228 316.895 93.476C316.711 93.732 316.495 93.928 316.247 94.064C315.999 94.208 315.707 94.28 315.371 94.28H314.843ZM316.391 91.844L313.955 86.192C313.923 86.112 313.907 86.056 313.907 86.024C313.915 85.952 313.943 85.892 313.991 85.844C314.039 85.788 314.099 85.76 314.171 85.76H315.131C315.227 85.76 315.295 85.784 315.335 85.832C315.383 85.88 315.419 85.932 315.443 85.988L317.303 90.572L316.391 91.844ZM324.063 92.12C323.399 92.12 322.847 92.004 322.407 91.772C321.975 91.532 321.651 91.184 321.435 90.728C321.219 90.272 321.095 89.716 321.063 89.06C321.063 88.828 321.063 88.588 321.063 88.34C321.063 88.092 321.063 87.852 321.063 87.62C321.079 86.916 321.147 86.332 321.267 85.868C321.395 85.396 321.583 85.008 321.831 84.704C322.079 84.392 322.399 84.136 322.791 83.936C323.183 83.728 323.647 83.548 324.183 83.396C324.719 83.244 325.339 83.084 326.043 82.916C326.123 82.9 326.195 82.912 326.259 82.952C326.331 82.992 326.371 83.056 326.379 83.144L326.535 83.936C326.551 84.016 326.539 84.088 326.499 84.152C326.459 84.208 326.403 84.244 326.331 84.26C325.723 84.396 325.199 84.52 324.759 84.632C324.319 84.736 323.955 84.856 323.667 84.992C323.379 85.128 323.151 85.308 322.983 85.532C322.823 85.748 322.711 86.032 322.647 86.384C322.583 86.736 322.563 87.188 322.587 87.74L322.311 87.512C322.359 87.264 322.483 87.036 322.683 86.828C322.883 86.62 323.127 86.456 323.415 86.336C323.711 86.208 324.023 86.144 324.351 86.144C324.927 86.144 325.411 86.252 325.803 86.468C326.195 86.684 326.495 86.988 326.703 87.38C326.919 87.764 327.039 88.216 327.063 88.736C327.079 89.024 327.079 89.288 327.063 89.528C327.039 90.04 326.911 90.492 326.679 90.884C326.447 91.276 326.115 91.58 325.683 91.796C325.251 92.012 324.711 92.12 324.063 92.12ZM324.063 91.016C324.495 91.016 324.827 90.884 325.059 90.62C325.291 90.356 325.415 89.972 325.431 89.468C325.439 89.38 325.443 89.276 325.443 89.156C325.443 89.028 325.439 88.908 325.431 88.796C325.415 88.292 325.291 87.908 325.059 87.644C324.835 87.38 324.535 87.248 324.159 87.248C323.727 87.248 323.379 87.38 323.115 87.644C322.859 87.908 322.723 88.292 322.707 88.796C322.699 88.908 322.695 89.028 322.695 89.156C322.695 89.276 322.699 89.38 322.707 89.468C322.723 89.972 322.847 90.356 323.079 90.62C323.311 90.884 323.639 91.016 324.063 91.016ZM328.619 92C328.539 92 328.471 91.972 328.415 91.916C328.359 91.86 328.331 91.792 328.331 91.712V90.524C328.331 90.436 328.359 90.364 328.415 90.308C328.471 90.252 328.539 90.224 328.619 90.224H329.819C329.899 90.224 329.967 90.252 330.023 90.308C330.079 90.364 330.107 90.436 330.107 90.524V91.712C330.107 91.792 330.079 91.86 330.023 91.916C329.967 91.972 329.899 92 329.819 92H328.619Z" fill="#070707"/>
<defs>
<linearGradient id="paint0_linear_901_9225" x1="337" y1="58" x2="0" y2="58" gradientUnits="userSpaceOnUse">
<stop offset="0.346065" stop-color="#6A4ED4"/>
<stop offset="0.346165" stop-color="#E2DCF7"/>
<stop offset="0.590857" stop-color="#E2DCF7"/>
<stop offset="0.590957" stop-color="#DEDEDE"/>
</linearGradient>
</defs>
</svg>
