<svg width="762" height="214" viewBox="0 0 762 214" fill="none" xmlns="http://www.w3.org/2000/svg">
<path d="M4.14 15C4.04 15 3.955 14.97 3.885 14.91C3.825 14.84 3.795 14.755 3.795 14.655V6.255L1.305 8.175C1.225 8.235 1.14 8.26 1.05 8.25C0.96 8.24 0.885 8.195 0.825 8.115L0.435 7.62C0.375 7.53 0.35 7.44 0.36 7.35C0.38 7.26 0.43 7.185 0.51 7.125L3.78 4.605C3.85 4.555 3.915 4.525 3.975 4.515C4.035 4.505 4.1 4.5 4.17 4.5H4.935C5.035 4.5 5.115 4.535 5.175 4.605C5.235 4.665 5.265 4.745 5.265 4.845V14.655C5.265 14.755 5.235 14.84 5.175 14.91C5.115 14.97 5.035 15 4.935 15H4.14ZM8.65102 15C8.56102 15 8.48602 14.97 8.42602 14.91C8.37602 14.84 8.35102 14.76 8.35102 14.67C8.35102 14.64 8.36102 14.595 8.38102 14.535L12.116 5.805H7.19602C7.09602 5.805 7.01102 5.775 6.94102 5.715C6.88102 5.645 6.85102 5.56 6.85102 5.46V4.86C6.85102 4.75 6.88102 4.665 6.94102 4.605C7.01102 4.535 7.09602 4.5 7.19602 4.5H13.346C13.456 4.5 13.541 4.535 13.601 4.605C13.671 4.665 13.706 4.75 13.706 4.86V5.415C13.706 5.545 13.696 5.65 13.676 5.73C13.656 5.81 13.626 5.9 13.586 6L9.88102 14.625C9.85102 14.705 9.80102 14.79 9.73102 14.88C9.67102 14.96 9.58102 15 9.46102 15H8.65102ZM19.2232 15C19.1232 15 19.0432 14.97 18.9832 14.91C18.9232 14.85 18.8932 14.77 18.8932 14.67V7.485C18.8932 7.405 18.9232 7.34 18.9832 7.29C19.0532 7.23 19.1232 7.2 19.1932 7.2H19.9582C20.1182 7.2 20.2432 7.28 20.3332 7.44L22.8832 12.21L25.4482 7.44C25.5382 7.28 25.6632 7.2 25.8232 7.2H26.5732C26.6532 7.2 26.7232 7.23 26.7832 7.29C26.8432 7.34 26.8732 7.405 26.8732 7.485V14.67C26.8732 14.77 26.8432 14.85 26.7832 14.91C26.7232 14.97 26.6482 15 26.5582 15H25.8232C25.7232 15 25.6432 14.97 25.5832 14.91C25.5232 14.85 25.4932 14.77 25.4932 14.67V8.685L26.0182 8.745L23.5732 13.365C23.5232 13.465 23.4632 13.555 23.3932 13.635C23.3232 13.715 23.2182 13.755 23.0782 13.755H22.6882C22.5582 13.755 22.4582 13.715 22.3882 13.635C22.3182 13.555 22.2532 13.465 22.1932 13.365L19.8232 8.97L20.2882 8.925V14.67C20.2882 14.77 20.2582 14.85 20.1982 14.91C20.1382 14.97 20.0582 15 19.9582 15H19.2232ZM28.7428 15C28.6428 15 28.5578 14.965 28.4878 14.895C28.4178 14.825 28.3828 14.74 28.3828 14.64V14.085C28.3828 13.875 28.4878 13.765 28.6978 13.755C29.0078 13.745 29.2678 13.6 29.4778 13.32C29.6878 13.03 29.8478 12.575 29.9578 11.955C30.0678 11.325 30.1228 10.495 30.1228 9.465V7.545C30.1228 7.445 30.1528 7.365 30.2128 7.305C30.2828 7.235 30.3678 7.2 30.4678 7.2H35.2378C35.3378 7.2 35.4178 7.235 35.4778 7.305C35.5478 7.365 35.5828 7.445 35.5828 7.545V14.655C35.5828 14.755 35.5478 14.84 35.4778 14.91C35.4178 14.97 35.3378 15 35.2378 15H34.5178C34.4178 15 34.3378 14.97 34.2778 14.91C34.2178 14.84 34.1878 14.755 34.1878 14.655V8.4H31.4878V9.63C31.4878 10.59 31.4328 11.415 31.3228 12.105C31.2128 12.785 31.0428 13.34 30.8128 13.77C30.5928 14.19 30.3078 14.5 29.9578 14.7C29.6178 14.9 29.2128 15 28.7428 15ZM38.164 15C38.064 15 37.979 14.97 37.909 14.91C37.849 14.84 37.819 14.755 37.819 14.655V7.545C37.819 7.445 37.849 7.365 37.909 7.305C37.979 7.235 38.064 7.2 38.164 7.2H38.884C38.984 7.2 39.064 7.235 39.124 7.305C39.184 7.365 39.214 7.445 39.214 7.545V10.425H43.309V7.545C43.309 7.445 43.339 7.365 43.399 7.305C43.469 7.235 43.554 7.2 43.654 7.2H44.359C44.459 7.2 44.539 7.235 44.599 7.305C44.669 7.365 44.704 7.445 44.704 7.545V14.655C44.704 14.755 44.669 14.84 44.599 14.91C44.539 14.97 44.459 15 44.359 15H43.654C43.554 15 43.469 14.97 43.399 14.91C43.339 14.84 43.309 14.755 43.309 14.655V11.625H39.214V14.655C39.214 14.755 39.184 14.84 39.124 14.91C39.064 14.97 38.984 15 38.884 15H38.164Z" fill="#070707" fill-opacity="0.55"/>
<path d="M4.14 53C4.04 53 3.955 52.97 3.885 52.91C3.825 52.84 3.795 52.755 3.795 52.655V44.255L1.305 46.175C1.225 46.235 1.14 46.26 1.05 46.25C0.96 46.24 0.885 46.195 0.825 46.115L0.435 45.62C0.375 45.53 0.35 45.44 0.36 45.35C0.38 45.26 0.43 45.185 0.51 45.125L3.78 42.605C3.85 42.555 3.915 42.525 3.975 42.515C4.035 42.505 4.1 42.5 4.17 42.5H4.935C5.035 42.5 5.115 42.535 5.175 42.605C5.235 42.665 5.265 42.745 5.265 42.845V52.655C5.265 52.755 5.235 52.84 5.175 52.91C5.115 52.97 5.035 53 4.935 53H4.14ZM11.036 53.15C10.206 53.15 9.50102 52.985 8.92102 52.655C8.34102 52.315 7.89602 51.875 7.58602 51.335C7.28602 50.785 7.13602 50.19 7.13602 49.55C7.13602 49.25 7.17102 48.965 7.24102 48.695C7.32102 48.415 7.41602 48.155 7.52602 47.915C7.64602 47.665 7.76102 47.445 7.87102 47.255C7.99102 47.055 8.09602 46.895 8.18602 46.775L11.036 42.8C11.086 42.75 11.146 42.69 11.216 42.62C11.286 42.54 11.391 42.5 11.531 42.5H12.326C12.416 42.5 12.486 42.535 12.536 42.605C12.596 42.665 12.626 42.74 12.626 42.83C12.626 42.87 12.621 42.91 12.611 42.95C12.601 42.98 12.586 43.005 12.566 43.025L10.376 46.085C10.496 46.045 10.631 46.02 10.781 46.01C10.941 45.99 11.091 45.98 11.231 45.98C11.781 45.99 12.281 46.09 12.731 46.28C13.181 46.47 13.566 46.73 13.886 47.06C14.216 47.38 14.466 47.755 14.636 48.185C14.806 48.605 14.891 49.055 14.891 49.535C14.891 50.165 14.741 50.755 14.441 51.305C14.141 51.855 13.701 52.3 13.121 52.64C12.551 52.98 11.856 53.15 11.036 53.15ZM11.021 51.875C11.441 51.875 11.831 51.785 12.191 51.605C12.551 51.425 12.841 51.165 13.061 50.825C13.291 50.475 13.406 50.05 13.406 49.55C13.406 49.04 13.296 48.615 13.076 48.275C12.856 47.925 12.561 47.665 12.191 47.495C11.831 47.315 11.441 47.225 11.021 47.225C10.601 47.225 10.211 47.315 9.85102 47.495C9.49102 47.665 9.19602 47.925 8.96602 48.275C8.74602 48.615 8.63602 49.04 8.63602 49.55C8.63602 50.05 8.74602 50.475 8.96602 50.825C9.19602 51.165 9.49102 51.425 9.85102 51.605C10.211 51.785 10.601 51.875 11.021 51.875ZM20.5709 53C20.4709 53 20.3909 52.97 20.3309 52.91C20.2709 52.85 20.2409 52.77 20.2409 52.67V45.485C20.2409 45.405 20.2709 45.34 20.3309 45.29C20.4009 45.23 20.4709 45.2 20.5409 45.2H21.3059C21.4659 45.2 21.5909 45.28 21.6809 45.44L24.2309 50.21L26.7959 45.44C26.8859 45.28 27.0109 45.2 27.1709 45.2H27.9209C28.0009 45.2 28.0709 45.23 28.1309 45.29C28.1909 45.34 28.2209 45.405 28.2209 45.485V52.67C28.2209 52.77 28.1909 52.85 28.1309 52.91C28.0709 52.97 27.9959 53 27.9059 53H27.1709C27.0709 53 26.9909 52.97 26.9309 52.91C26.8709 52.85 26.8409 52.77 26.8409 52.67V46.685L27.3659 46.745L24.9209 51.365C24.8709 51.465 24.8109 51.555 24.7409 51.635C24.6709 51.715 24.5659 51.755 24.4259 51.755H24.0359C23.9059 51.755 23.8059 51.715 23.7359 51.635C23.6659 51.555 23.6009 51.465 23.5409 51.365L21.1709 46.97L21.6359 46.925V52.67C21.6359 52.77 21.6059 52.85 21.5459 52.91C21.4859 52.97 21.4059 53 21.3059 53H20.5709ZM30.0905 53C29.9905 53 29.9055 52.965 29.8355 52.895C29.7655 52.825 29.7305 52.74 29.7305 52.64V52.085C29.7305 51.875 29.8355 51.765 30.0455 51.755C30.3555 51.745 30.6155 51.6 30.8255 51.32C31.0355 51.03 31.1955 50.575 31.3055 49.955C31.4155 49.325 31.4705 48.495 31.4705 47.465V45.545C31.4705 45.445 31.5005 45.365 31.5605 45.305C31.6305 45.235 31.7155 45.2 31.8155 45.2H36.5855C36.6855 45.2 36.7655 45.235 36.8255 45.305C36.8955 45.365 36.9305 45.445 36.9305 45.545V52.655C36.9305 52.755 36.8955 52.84 36.8255 52.91C36.7655 52.97 36.6855 53 36.5855 53H35.8655C35.7655 53 35.6855 52.97 35.6255 52.91C35.5655 52.84 35.5355 52.755 35.5355 52.655V46.4H32.8355V47.63C32.8355 48.59 32.7805 49.415 32.6705 50.105C32.5605 50.785 32.3905 51.34 32.1605 51.77C31.9405 52.19 31.6555 52.5 31.3055 52.7C30.9655 52.9 30.5605 53 30.0905 53ZM39.5116 53C39.4116 53 39.3266 52.97 39.2566 52.91C39.1966 52.84 39.1666 52.755 39.1666 52.655V45.545C39.1666 45.445 39.1966 45.365 39.2566 45.305C39.3266 45.235 39.4116 45.2 39.5116 45.2H40.2316C40.3316 45.2 40.4116 45.235 40.4716 45.305C40.5316 45.365 40.5616 45.445 40.5616 45.545V48.425H44.6566V45.545C44.6566 45.445 44.6866 45.365 44.7466 45.305C44.8166 45.235 44.9016 45.2 45.0016 45.2H45.7066C45.8066 45.2 45.8866 45.235 45.9466 45.305C46.0166 45.365 46.0516 45.445 46.0516 45.545V52.655C46.0516 52.755 46.0166 52.84 45.9466 52.91C45.8866 52.97 45.8066 53 45.7066 53H45.0016C44.9016 53 44.8166 52.97 44.7466 52.91C44.6866 52.84 44.6566 52.755 44.6566 52.655V49.625H40.5616V52.655C40.5616 52.755 40.5316 52.84 40.4716 52.91C40.4116 52.97 40.3316 53 40.2316 53H39.5116Z" fill="#070707" fill-opacity="0.55"/>
<path d="M4.14 91C4.04 91 3.955 90.97 3.885 90.91C3.825 90.84 3.795 90.755 3.795 90.655V82.255L1.305 84.175C1.225 84.235 1.14 84.26 1.05 84.25C0.96 84.24 0.885 84.195 0.825 84.115L0.435 83.62C0.375 83.53 0.35 83.44 0.36 83.35C0.38 83.26 0.43 83.185 0.51 83.125L3.78 80.605C3.85 80.555 3.915 80.525 3.975 80.515C4.035 80.505 4.1 80.5 4.17 80.5H4.935C5.035 80.5 5.115 80.535 5.175 80.605C5.235 80.665 5.265 80.745 5.265 80.845V90.655C5.265 90.755 5.235 90.84 5.175 90.91C5.115 90.97 5.035 91 4.935 91H4.14ZM10.796 91.15C10.006 91.15 9.33602 91.015 8.78602 90.745C8.24602 90.465 7.83102 90.105 7.54102 89.665C7.26102 89.225 7.11102 88.76 7.09102 88.27C7.08102 88.18 7.10602 88.11 7.16602 88.06C7.22602 88.01 7.30102 87.985 7.39102 87.985H8.20102C8.29102 87.985 8.37102 88.005 8.44102 88.045C8.51102 88.085 8.56602 88.17 8.60602 88.3C8.70602 88.67 8.86602 88.975 9.08602 89.215C9.31602 89.445 9.57602 89.615 9.86602 89.725C10.166 89.825 10.476 89.875 10.796 89.875C11.226 89.875 11.616 89.79 11.966 89.62C12.326 89.44 12.611 89.18 12.821 88.84C13.031 88.49 13.136 88.07 13.136 87.58C13.136 87.13 13.031 86.745 12.821 86.425C12.621 86.095 12.341 85.845 11.981 85.675C11.631 85.495 11.236 85.405 10.796 85.405C10.466 85.405 10.196 85.445 9.98602 85.525C9.77602 85.605 9.59602 85.7 9.44602 85.81C9.30602 85.92 9.17602 86.015 9.05602 86.095C8.94602 86.175 8.82102 86.215 8.68102 86.215H7.90102C7.81102 86.215 7.73102 86.185 7.66102 86.125C7.59102 86.055 7.56102 85.975 7.57102 85.885L8.05102 80.875C8.06102 80.755 8.09602 80.665 8.15602 80.605C8.22602 80.535 8.31602 80.5 8.42602 80.5H13.661C13.761 80.5 13.841 80.535 13.901 80.605C13.971 80.665 14.006 80.745 14.006 80.845V81.43C14.006 81.54 13.971 81.625 13.901 81.685C13.841 81.745 13.761 81.775 13.661 81.775H9.34102L9.05602 84.73C9.19602 84.64 9.42102 84.535 9.73102 84.415C10.041 84.285 10.466 84.22 11.006 84.22C11.496 84.22 11.956 84.295 12.386 84.445C12.826 84.595 13.216 84.815 13.556 85.105C13.896 85.395 14.161 85.75 14.351 86.17C14.541 86.58 14.636 87.055 14.636 87.595C14.636 88.355 14.466 89 14.126 89.53C13.796 90.06 13.341 90.465 12.761 90.745C12.191 91.015 11.536 91.15 10.796 91.15ZM20.439 91C20.339 91 20.259 90.97 20.199 90.91C20.139 90.85 20.109 90.77 20.109 90.67V83.485C20.109 83.405 20.139 83.34 20.199 83.29C20.269 83.23 20.339 83.2 20.409 83.2H21.174C21.334 83.2 21.459 83.28 21.549 83.44L24.099 88.21L26.664 83.44C26.754 83.28 26.879 83.2 27.039 83.2H27.789C27.869 83.2 27.939 83.23 27.999 83.29C28.059 83.34 28.089 83.405 28.089 83.485V90.67C28.089 90.77 28.059 90.85 27.999 90.91C27.939 90.97 27.864 91 27.774 91H27.039C26.939 91 26.859 90.97 26.799 90.91C26.739 90.85 26.709 90.77 26.709 90.67V84.685L27.234 84.745L24.789 89.365C24.739 89.465 24.679 89.555 24.609 89.635C24.539 89.715 24.434 89.755 24.294 89.755H23.904C23.774 89.755 23.674 89.715 23.604 89.635C23.534 89.555 23.469 89.465 23.409 89.365L21.039 84.97L21.504 84.925V90.67C21.504 90.77 21.474 90.85 21.414 90.91C21.354 90.97 21.274 91 21.174 91H20.439ZM29.9586 91C29.8586 91 29.7736 90.965 29.7036 90.895C29.6336 90.825 29.5986 90.74 29.5986 90.64V90.085C29.5986 89.875 29.7036 89.765 29.9136 89.755C30.2236 89.745 30.4836 89.6 30.6936 89.32C30.9036 89.03 31.0636 88.575 31.1736 87.955C31.2836 87.325 31.3386 86.495 31.3386 85.465V83.545C31.3386 83.445 31.3686 83.365 31.4286 83.305C31.4986 83.235 31.5836 83.2 31.6836 83.2H36.4536C36.5536 83.2 36.6336 83.235 36.6936 83.305C36.7636 83.365 36.7986 83.445 36.7986 83.545V90.655C36.7986 90.755 36.7636 90.84 36.6936 90.91C36.6336 90.97 36.5536 91 36.4536 91H35.7336C35.6336 91 35.5536 90.97 35.4936 90.91C35.4336 90.84 35.4036 90.755 35.4036 90.655V84.4H32.7036V85.63C32.7036 86.59 32.6486 87.415 32.5386 88.105C32.4286 88.785 32.2586 89.34 32.0286 89.77C31.8086 90.19 31.5236 90.5 31.1736 90.7C30.8336 90.9 30.4286 91 29.9586 91ZM39.3798 91C39.2798 91 39.1948 90.97 39.1248 90.91C39.0648 90.84 39.0348 90.755 39.0348 90.655V83.545C39.0348 83.445 39.0648 83.365 39.1248 83.305C39.1948 83.235 39.2798 83.2 39.3798 83.2H40.0998C40.1998 83.2 40.2798 83.235 40.3398 83.305C40.3998 83.365 40.4298 83.445 40.4298 83.545V86.425H44.5248V83.545C44.5248 83.445 44.5548 83.365 44.6148 83.305C44.6848 83.235 44.7698 83.2 44.8698 83.2H45.5748C45.6748 83.2 45.7548 83.235 45.8148 83.305C45.8848 83.365 45.9198 83.445 45.9198 83.545V90.655C45.9198 90.755 45.8848 90.84 45.8148 90.91C45.7548 90.97 45.6748 91 45.5748 91H44.8698C44.7698 91 44.6848 90.97 44.6148 90.91C44.5548 90.84 44.5248 90.755 44.5248 90.655V87.625H40.4298V90.655C40.4298 90.755 40.3998 90.84 40.3398 90.91C40.2798 90.97 40.1998 91 40.0998 91H39.3798Z" fill="#070707" fill-opacity="0.55"/>
<path d="M4.14 129C4.04 129 3.955 128.97 3.885 128.91C3.825 128.84 3.795 128.755 3.795 128.655V120.255L1.305 122.175C1.225 122.235 1.14 122.26 1.05 122.25C0.96 122.24 0.885 122.195 0.825 122.115L0.435 121.62C0.375 121.53 0.35 121.44 0.36 121.35C0.38 121.26 0.43 121.185 0.51 121.125L3.78 118.605C3.85 118.555 3.915 118.525 3.975 118.515C4.035 118.505 4.1 118.5 4.17 118.5H4.935C5.035 118.5 5.115 118.535 5.175 118.605C5.235 118.665 5.265 118.745 5.265 118.845V128.655C5.265 128.755 5.235 128.84 5.175 128.91C5.115 128.97 5.035 129 4.935 129H4.14ZM12.431 129C12.331 129 12.246 128.97 12.176 128.91C12.116 128.84 12.086 128.755 12.086 128.655V126.495H7.22602C7.12602 126.495 7.04102 126.465 6.97102 126.405C6.91102 126.335 6.88102 126.25 6.88102 126.15V125.55C6.88102 125.51 6.89102 125.45 6.91102 125.37C6.94102 125.28 6.98602 125.19 7.04602 125.1L11.546 118.755C11.666 118.585 11.851 118.5 12.101 118.5H13.181C13.281 118.5 13.361 118.535 13.421 118.605C13.491 118.665 13.526 118.745 13.526 118.845V125.19H14.876C14.986 125.19 15.071 125.225 15.131 125.295C15.201 125.355 15.236 125.435 15.236 125.535V126.15C15.236 126.25 15.201 126.335 15.131 126.405C15.071 126.465 14.991 126.495 14.891 126.495H13.526V128.655C13.526 128.755 13.491 128.84 13.421 128.91C13.361 128.97 13.281 129 13.181 129H12.431ZM8.48602 125.22H12.101V120.075L8.48602 125.22ZM20.8492 129C20.7492 129 20.6692 128.97 20.6092 128.91C20.5492 128.85 20.5192 128.77 20.5192 128.67V121.485C20.5192 121.405 20.5492 121.34 20.6092 121.29C20.6792 121.23 20.7492 121.2 20.8192 121.2H21.5842C21.7442 121.2 21.8692 121.28 21.9592 121.44L24.5092 126.21L27.0742 121.44C27.1642 121.28 27.2892 121.2 27.4492 121.2H28.1992C28.2792 121.2 28.3492 121.23 28.4092 121.29C28.4692 121.34 28.4992 121.405 28.4992 121.485V128.67C28.4992 128.77 28.4692 128.85 28.4092 128.91C28.3492 128.97 28.2742 129 28.1842 129H27.4492C27.3492 129 27.2692 128.97 27.2092 128.91C27.1492 128.85 27.1192 128.77 27.1192 128.67V122.685L27.6442 122.745L25.1992 127.365C25.1492 127.465 25.0892 127.555 25.0192 127.635C24.9492 127.715 24.8442 127.755 24.7042 127.755H24.3142C24.1842 127.755 24.0842 127.715 24.0142 127.635C23.9442 127.555 23.8792 127.465 23.8192 127.365L21.4492 122.97L21.9142 122.925V128.67C21.9142 128.77 21.8842 128.85 21.8242 128.91C21.7642 128.97 21.6842 129 21.5842 129H20.8492ZM30.3688 129C30.2688 129 30.1838 128.965 30.1138 128.895C30.0438 128.825 30.0088 128.74 30.0088 128.64V128.085C30.0088 127.875 30.1138 127.765 30.3238 127.755C30.6338 127.745 30.8938 127.6 31.1038 127.32C31.3138 127.03 31.4738 126.575 31.5838 125.955C31.6938 125.325 31.7488 124.495 31.7488 123.465V121.545C31.7488 121.445 31.7788 121.365 31.8388 121.305C31.9088 121.235 31.9938 121.2 32.0938 121.2H36.8638C36.9638 121.2 37.0438 121.235 37.1038 121.305C37.1738 121.365 37.2088 121.445 37.2088 121.545V128.655C37.2088 128.755 37.1738 128.84 37.1038 128.91C37.0438 128.97 36.9638 129 36.8638 129H36.1438C36.0438 129 35.9638 128.97 35.9038 128.91C35.8438 128.84 35.8138 128.755 35.8138 128.655V122.4H33.1138V123.63C33.1138 124.59 33.0588 125.415 32.9488 126.105C32.8388 126.785 32.6688 127.34 32.4388 127.77C32.2188 128.19 31.9338 128.5 31.5838 128.7C31.2438 128.9 30.8388 129 30.3688 129ZM39.79 129C39.69 129 39.605 128.97 39.535 128.91C39.475 128.84 39.445 128.755 39.445 128.655V121.545C39.445 121.445 39.475 121.365 39.535 121.305C39.605 121.235 39.69 121.2 39.79 121.2H40.51C40.61 121.2 40.69 121.235 40.75 121.305C40.81 121.365 40.84 121.445 40.84 121.545V124.425H44.935V121.545C44.935 121.445 44.965 121.365 45.025 121.305C45.095 121.235 45.18 121.2 45.28 121.2H45.985C46.085 121.2 46.165 121.235 46.225 121.305C46.295 121.365 46.33 121.445 46.33 121.545V128.655C46.33 128.755 46.295 128.84 46.225 128.91C46.165 128.97 46.085 129 45.985 129H45.28C45.18 129 45.095 128.97 45.025 128.91C44.965 128.84 44.935 128.755 44.935 128.655V125.625H40.84V128.655C40.84 128.755 40.81 128.84 40.75 128.91C40.69 128.97 40.61 129 40.51 129H39.79Z" fill="#070707" fill-opacity="0.55"/>
<path d="M4.14 167C4.04 167 3.955 166.97 3.885 166.91C3.825 166.84 3.795 166.755 3.795 166.655V158.255L1.305 160.175C1.225 160.235 1.14 160.26 1.05 160.25C0.96 160.24 0.885 160.195 0.825 160.115L0.435 159.62C0.375 159.53 0.35 159.44 0.36 159.35C0.38 159.26 0.43 159.185 0.51 159.125L3.78 156.605C3.85 156.555 3.915 156.525 3.975 156.515C4.035 156.505 4.1 156.5 4.17 156.5H4.935C5.035 156.5 5.115 156.535 5.175 156.605C5.235 156.665 5.265 156.745 5.265 156.845V166.655C5.265 166.755 5.235 166.84 5.175 166.91C5.115 166.97 5.035 167 4.935 167H4.14ZM10.886 167.15C10.256 167.15 9.70602 167.075 9.23602 166.925C8.76602 166.765 8.37102 166.555 8.05102 166.295C7.73102 166.035 7.48602 165.75 7.31602 165.44C7.15602 165.13 7.07102 164.81 7.06102 164.48C7.06102 164.39 7.09102 164.32 7.15102 164.27C7.21102 164.22 7.28602 164.195 7.37602 164.195H8.11102C8.20102 164.195 8.28102 164.215 8.35102 164.255C8.42102 164.295 8.48102 164.38 8.53102 164.51C8.63102 164.87 8.80102 165.15 9.04102 165.35C9.29102 165.55 9.57602 165.69 9.89602 165.77C10.226 165.84 10.556 165.875 10.886 165.875C11.576 165.875 12.136 165.71 12.566 165.38C12.996 165.05 13.211 164.565 13.211 163.925C13.211 163.275 13.016 162.81 12.626 162.53C12.236 162.25 11.696 162.11 11.006 162.11H9.58102C9.48102 162.11 9.39602 162.08 9.32602 162.02C9.26602 161.96 9.23602 161.875 9.23602 161.765V161.36C9.23602 161.27 9.25102 161.195 9.28102 161.135C9.32102 161.065 9.36102 161.005 9.40102 160.955L12.311 157.775H7.88602C7.78602 157.775 7.70102 157.745 7.63102 157.685C7.57102 157.625 7.54102 157.54 7.54102 157.43V156.86C7.54102 156.75 7.57102 156.665 7.63102 156.605C7.70102 156.535 7.78602 156.5 7.88602 156.5H13.871C13.981 156.5 14.066 156.535 14.126 156.605C14.196 156.665 14.231 156.75 14.231 156.86V157.4C14.231 157.47 14.211 157.535 14.171 157.595C14.141 157.645 14.106 157.695 14.066 157.745L11.171 160.97L11.411 160.985C12.071 161.005 12.646 161.125 13.136 161.345C13.636 161.565 14.021 161.895 14.291 162.335C14.571 162.765 14.711 163.31 14.711 163.97C14.711 164.64 14.546 165.215 14.216 165.695C13.886 166.165 13.431 166.525 12.851 166.775C12.271 167.025 11.616 167.15 10.886 167.15ZM20.5416 167C20.4416 167 20.3616 166.97 20.3016 166.91C20.2416 166.85 20.2116 166.77 20.2116 166.67V159.485C20.2116 159.405 20.2416 159.34 20.3016 159.29C20.3716 159.23 20.4416 159.2 20.5116 159.2H21.2766C21.4366 159.2 21.5616 159.28 21.6516 159.44L24.2016 164.21L26.7666 159.44C26.8566 159.28 26.9816 159.2 27.1416 159.2H27.8916C27.9716 159.2 28.0416 159.23 28.1016 159.29C28.1616 159.34 28.1916 159.405 28.1916 159.485V166.67C28.1916 166.77 28.1616 166.85 28.1016 166.91C28.0416 166.97 27.9666 167 27.8766 167H27.1416C27.0416 167 26.9616 166.97 26.9016 166.91C26.8416 166.85 26.8116 166.77 26.8116 166.67V160.685L27.3366 160.745L24.8916 165.365C24.8416 165.465 24.7816 165.555 24.7116 165.635C24.6416 165.715 24.5366 165.755 24.3966 165.755H24.0066C23.8766 165.755 23.7766 165.715 23.7066 165.635C23.6366 165.555 23.5716 165.465 23.5116 165.365L21.1416 160.97L21.6066 160.925V166.67C21.6066 166.77 21.5766 166.85 21.5166 166.91C21.4566 166.97 21.3766 167 21.2766 167H20.5416ZM30.0612 167C29.9612 167 29.8762 166.965 29.8062 166.895C29.7362 166.825 29.7012 166.74 29.7012 166.64V166.085C29.7012 165.875 29.8062 165.765 30.0162 165.755C30.3262 165.745 30.5862 165.6 30.7962 165.32C31.0062 165.03 31.1662 164.575 31.2762 163.955C31.3862 163.325 31.4412 162.495 31.4412 161.465V159.545C31.4412 159.445 31.4712 159.365 31.5312 159.305C31.6012 159.235 31.6862 159.2 31.7862 159.2H36.5562C36.6562 159.2 36.7362 159.235 36.7962 159.305C36.8662 159.365 36.9012 159.445 36.9012 159.545V166.655C36.9012 166.755 36.8662 166.84 36.7962 166.91C36.7362 166.97 36.6562 167 36.5562 167H35.8362C35.7362 167 35.6562 166.97 35.5962 166.91C35.5362 166.84 35.5062 166.755 35.5062 166.655V160.4H32.8062V161.63C32.8062 162.59 32.7512 163.415 32.6412 164.105C32.5312 164.785 32.3612 165.34 32.1312 165.77C31.9112 166.19 31.6262 166.5 31.2762 166.7C30.9362 166.9 30.5312 167 30.0612 167ZM39.4823 167C39.3823 167 39.2973 166.97 39.2273 166.91C39.1673 166.84 39.1373 166.755 39.1373 166.655V159.545C39.1373 159.445 39.1673 159.365 39.2273 159.305C39.2973 159.235 39.3823 159.2 39.4823 159.2H40.2023C40.3023 159.2 40.3823 159.235 40.4423 159.305C40.5023 159.365 40.5323 159.445 40.5323 159.545V162.425H44.6273V159.545C44.6273 159.445 44.6573 159.365 44.7173 159.305C44.7873 159.235 44.8723 159.2 44.9723 159.2H45.6773C45.7773 159.2 45.8573 159.235 45.9173 159.305C45.9873 159.365 46.0223 159.445 46.0223 159.545V166.655C46.0223 166.755 45.9873 166.84 45.9173 166.91C45.8573 166.97 45.7773 167 45.6773 167H44.9723C44.8723 167 44.7873 166.97 44.7173 166.91C44.6573 166.84 44.6273 166.755 44.6273 166.655V163.625H40.5323V166.655C40.5323 166.755 40.5023 166.84 40.4423 166.91C40.3823 166.97 40.3023 167 40.2023 167H39.4823Z" fill="#070707" fill-opacity="0.55"/>
<path d="M4.14 205C4.04 205 3.955 204.97 3.885 204.91C3.825 204.84 3.795 204.755 3.795 204.655V196.255L1.305 198.175C1.225 198.235 1.14 198.26 1.05 198.25C0.96 198.24 0.885 198.195 0.825 198.115L0.435 197.62C0.375 197.53 0.35 197.44 0.36 197.35C0.38 197.26 0.43 197.185 0.51 197.125L3.78 194.605C3.85 194.555 3.915 194.525 3.975 194.515C4.035 194.505 4.1 194.5 4.17 194.5H4.935C5.035 194.5 5.115 194.535 5.175 194.605C5.235 194.665 5.265 194.745 5.265 194.845V204.655C5.265 204.755 5.235 204.84 5.175 204.91C5.115 204.97 5.035 205 4.935 205H4.14ZM7.49602 205C7.39602 205 7.31102 204.97 7.24102 204.91C7.18102 204.84 7.15102 204.755 7.15102 204.655V204.175C7.15102 204.085 7.17602 203.985 7.22602 203.875C7.27602 203.765 7.37602 203.645 7.52602 203.515L10.706 200.335C11.216 199.905 11.616 199.54 11.906 199.24C12.206 198.93 12.416 198.635 12.536 198.355C12.666 198.075 12.731 197.785 12.731 197.485C12.731 196.915 12.571 196.465 12.251 196.135C11.931 195.795 11.456 195.625 10.826 195.625C10.426 195.625 10.081 195.71 9.79102 195.88C9.50102 196.04 9.27102 196.265 9.10102 196.555C8.94102 196.835 8.83602 197.155 8.78602 197.515C8.76602 197.645 8.71102 197.735 8.62102 197.785C8.54102 197.835 8.46602 197.86 8.39602 197.86H7.61602C7.52602 197.86 7.45102 197.835 7.39102 197.785C7.33102 197.725 7.30102 197.655 7.30102 197.575C7.31102 197.195 7.39102 196.815 7.54102 196.435C7.69102 196.045 7.91102 195.695 8.20102 195.385C8.50102 195.075 8.86602 194.825 9.29602 194.635C9.73602 194.435 10.246 194.335 10.826 194.335C11.616 194.335 12.261 194.48 12.761 194.77C13.271 195.05 13.646 195.425 13.886 195.895C14.126 196.365 14.246 196.88 14.246 197.44C14.246 197.88 14.171 198.285 14.021 198.655C13.871 199.015 13.651 199.37 13.361 199.72C13.081 200.06 12.731 200.41 12.311 200.77L9.43102 203.695H14.111C14.221 203.695 14.306 203.725 14.366 203.785C14.436 203.845 14.471 203.93 14.471 204.04V204.655C14.471 204.755 14.436 204.84 14.366 204.91C14.306 204.97 14.221 205 14.111 205H7.49602ZM20.3365 205C20.2365 205 20.1565 204.97 20.0965 204.91C20.0365 204.85 20.0065 204.77 20.0065 204.67V197.485C20.0065 197.405 20.0365 197.34 20.0965 197.29C20.1665 197.23 20.2365 197.2 20.3065 197.2H21.0715C21.2315 197.2 21.3565 197.28 21.4465 197.44L23.9965 202.21L26.5615 197.44C26.6515 197.28 26.7765 197.2 26.9365 197.2H27.6865C27.7665 197.2 27.8365 197.23 27.8965 197.29C27.9565 197.34 27.9865 197.405 27.9865 197.485V204.67C27.9865 204.77 27.9565 204.85 27.8965 204.91C27.8365 204.97 27.7615 205 27.6715 205H26.9365C26.8365 205 26.7565 204.97 26.6965 204.91C26.6365 204.85 26.6065 204.77 26.6065 204.67V198.685L27.1315 198.745L24.6865 203.365C24.6365 203.465 24.5765 203.555 24.5065 203.635C24.4365 203.715 24.3315 203.755 24.1915 203.755H23.8015C23.6715 203.755 23.5715 203.715 23.5015 203.635C23.4315 203.555 23.3665 203.465 23.3065 203.365L20.9365 198.97L21.4015 198.925V204.67C21.4015 204.77 21.3715 204.85 21.3115 204.91C21.2515 204.97 21.1715 205 21.0715 205H20.3365ZM29.8561 205C29.7561 205 29.6711 204.965 29.6011 204.895C29.5311 204.825 29.4961 204.74 29.4961 204.64V204.085C29.4961 203.875 29.6011 203.765 29.8111 203.755C30.1211 203.745 30.3811 203.6 30.5911 203.32C30.8011 203.03 30.9611 202.575 31.0711 201.955C31.1811 201.325 31.2361 200.495 31.2361 199.465V197.545C31.2361 197.445 31.2661 197.365 31.3261 197.305C31.3961 197.235 31.4811 197.2 31.5811 197.2H36.3511C36.4511 197.2 36.5311 197.235 36.5911 197.305C36.6611 197.365 36.6961 197.445 36.6961 197.545V204.655C36.6961 204.755 36.6611 204.84 36.5911 204.91C36.5311 204.97 36.4511 205 36.3511 205H35.6311C35.5311 205 35.4511 204.97 35.3911 204.91C35.3311 204.84 35.3011 204.755 35.3011 204.655V198.4H32.6011V199.63C32.6011 200.59 32.5461 201.415 32.4361 202.105C32.3261 202.785 32.1561 203.34 31.9261 203.77C31.7061 204.19 31.4211 204.5 31.0711 204.7C30.7311 204.9 30.3261 205 29.8561 205ZM39.2773 205C39.1773 205 39.0923 204.97 39.0223 204.91C38.9623 204.84 38.9323 204.755 38.9323 204.655V197.545C38.9323 197.445 38.9623 197.365 39.0223 197.305C39.0923 197.235 39.1773 197.2 39.2773 197.2H39.9973C40.0973 197.2 40.1773 197.235 40.2373 197.305C40.2973 197.365 40.3273 197.445 40.3273 197.545V200.425H44.4223V197.545C44.4223 197.445 44.4523 197.365 44.5123 197.305C44.5823 197.235 44.6673 197.2 44.7673 197.2H45.4723C45.5723 197.2 45.6523 197.235 45.7123 197.305C45.7823 197.365 45.8173 197.445 45.8173 197.545V204.655C45.8173 204.755 45.7823 204.84 45.7123 204.91C45.6523 204.97 45.5723 205 45.4723 205H44.7673C44.6673 205 44.5823 204.97 44.5123 204.91C44.4523 204.84 44.4223 204.755 44.4223 204.655V201.625H40.3273V204.655C40.3273 204.755 40.2973 204.84 40.2373 204.91C40.1773 204.97 40.0973 205 39.9973 205H39.2773Z" fill="#070707" fill-opacity="0.55"/>
<g clip-path="url(#clip0_903_9385)">
<line x1="69" y1="26.75" x2="762" y2="26.75" stroke="#070707" stroke-opacity="0.2" stroke-width="0.5"/>
<line x1="69" y1="66.75" x2="762" y2="66.75" stroke="#070707" stroke-opacity="0.2" stroke-width="0.5"/>
<line x1="69" y1="106.75" x2="762" y2="106.75" stroke="#070707" stroke-opacity="0.2" stroke-width="0.5"/>
<line x1="69" y1="146.75" x2="762" y2="146.75" stroke="#070707" stroke-opacity="0.2" stroke-width="0.5"/>
<line x1="69" y1="186.75" x2="762" y2="186.75" stroke="#070707" stroke-opacity="0.2" stroke-width="0.5"/>
<path d="M762 157.621H733.804C728.161 157.621 722.57 156.654 717.186 154.963C706.023 151.456 685.565 145.614 670.422 144.661C640.545 142.78 623.851 165.081 594.711 157.621C573.167 152.105 567.02 131.874 545.295 127.292C522.463 122.477 489.372 137.485 478.575 142.838C476.179 144.026 473.763 145.104 471.241 145.99C465.5 148.006 459.194 150.221 452.934 152.42C428.16 161.122 401.026 159.623 376.63 149.911C342.116 136.172 290.41 118.193 250.157 115.382C202.087 112.025 175.269 132.041 127.297 127.292C103.466 124.933 67 115.382 67 115.382" stroke="#6A4ED4" stroke-width="2" stroke-linecap="round" stroke-linejoin="round"/>
<line x1="482.15" y1="-6.55671e-09" x2="482.15" y2="214" stroke="#070707" stroke-width="0.3"/>
<circle cx="482" cy="142" r="6.5" fill="#6A4ED4" stroke="white"/>
<rect x="492" y="70" width="153" height="61" rx="10" fill="#E2DCF7"/>
<path d="M516.14 94C516.04 94 515.955 93.97 515.885 93.91C515.825 93.84 515.795 93.755 515.795 93.655V85.255L513.305 87.175C513.225 87.235 513.14 87.26 513.05 87.25C512.96 87.24 512.885 87.195 512.825 87.115L512.435 86.62C512.375 86.53 512.35 86.44 512.36 86.35C512.38 86.26 512.43 86.185 512.51 86.125L515.78 83.605C515.85 83.555 515.915 83.525 515.975 83.515C516.035 83.505 516.1 83.5 516.17 83.5H516.935C517.035 83.5 517.115 83.535 517.175 83.605C517.235 83.665 517.265 83.745 517.265 83.845V93.655C517.265 93.755 517.235 93.84 517.175 93.91C517.115 93.97 517.035 94 516.935 94H516.14ZM522.886 94.15C522.256 94.15 521.706 94.075 521.236 93.925C520.766 93.765 520.371 93.555 520.051 93.295C519.731 93.035 519.486 92.75 519.316 92.44C519.156 92.13 519.071 91.81 519.061 91.48C519.061 91.39 519.091 91.32 519.151 91.27C519.211 91.22 519.286 91.195 519.376 91.195H520.111C520.201 91.195 520.281 91.215 520.351 91.255C520.421 91.295 520.481 91.38 520.531 91.51C520.631 91.87 520.801 92.15 521.041 92.35C521.291 92.55 521.576 92.69 521.896 92.77C522.226 92.84 522.556 92.875 522.886 92.875C523.576 92.875 524.136 92.71 524.566 92.38C524.996 92.05 525.211 91.565 525.211 90.925C525.211 90.275 525.016 89.81 524.626 89.53C524.236 89.25 523.696 89.11 523.006 89.11H521.581C521.481 89.11 521.396 89.08 521.326 89.02C521.266 88.96 521.236 88.875 521.236 88.765V88.36C521.236 88.27 521.251 88.195 521.281 88.135C521.321 88.065 521.361 88.005 521.401 87.955L524.311 84.775H519.886C519.786 84.775 519.701 84.745 519.631 84.685C519.571 84.625 519.541 84.54 519.541 84.43V83.86C519.541 83.75 519.571 83.665 519.631 83.605C519.701 83.535 519.786 83.5 519.886 83.5H525.871C525.981 83.5 526.066 83.535 526.126 83.605C526.196 83.665 526.231 83.75 526.231 83.86V84.4C526.231 84.47 526.211 84.535 526.171 84.595C526.141 84.645 526.106 84.695 526.066 84.745L523.171 87.97L523.411 87.985C524.071 88.005 524.646 88.125 525.136 88.345C525.636 88.565 526.021 88.895 526.291 89.335C526.571 89.765 526.711 90.31 526.711 90.97C526.711 91.64 526.546 92.215 526.216 92.695C525.886 93.165 525.431 93.525 524.851 93.775C524.271 94.025 523.616 94.15 522.886 94.15ZM533.997 94C533.907 94 533.832 93.97 533.772 93.91C533.722 93.84 533.697 93.76 533.697 93.67C533.697 93.62 533.702 93.58 533.712 93.55C533.732 93.52 533.747 93.495 533.757 93.475L536.052 90.28C535.802 90.34 535.532 90.37 535.242 90.37C534.682 90.36 534.182 90.26 533.742 90.07C533.302 89.88 532.927 89.625 532.617 89.305C532.307 88.975 532.072 88.605 531.912 88.195C531.752 87.785 531.672 87.355 531.672 86.905C531.672 86.465 531.747 86.035 531.897 85.615C532.057 85.195 532.292 84.815 532.602 84.475C532.922 84.135 533.317 83.865 533.787 83.665C534.257 83.455 534.812 83.35 535.452 83.35C536.082 83.35 536.632 83.45 537.102 83.65C537.582 83.84 537.982 84.105 538.302 84.445C538.632 84.775 538.872 85.15 539.022 85.57C539.182 85.99 539.262 86.425 539.262 86.875C539.262 87.285 539.202 87.66 539.082 88C538.962 88.34 538.817 88.645 538.647 88.915C538.487 89.185 538.327 89.435 538.167 89.665L535.287 93.7C535.247 93.75 535.192 93.815 535.122 93.895C535.052 93.965 534.947 94 534.807 94H533.997ZM535.452 89.155C535.872 89.155 536.257 89.065 536.607 88.885C536.967 88.695 537.252 88.435 537.462 88.105C537.672 87.765 537.777 87.36 537.777 86.89C537.777 86.42 537.672 86.02 537.462 85.69C537.252 85.35 536.967 85.09 536.607 84.91C536.257 84.72 535.872 84.625 535.452 84.625C535.042 84.625 534.662 84.72 534.312 84.91C533.962 85.09 533.682 85.35 533.472 85.69C533.262 86.02 533.157 86.42 533.157 86.89C533.157 87.36 533.262 87.765 533.472 88.105C533.682 88.435 533.962 88.695 534.312 88.885C534.662 89.065 535.042 89.155 535.452 89.155ZM544.748 94.15C544.058 94.15 543.473 94.045 542.993 93.835C542.523 93.615 542.138 93.315 541.838 92.935C541.538 92.555 541.318 92.12 541.178 91.63C541.048 91.14 540.973 90.62 540.953 90.07C540.943 89.8 540.933 89.515 540.923 89.215C540.923 88.915 540.923 88.615 540.923 88.315C540.933 88.005 540.943 87.71 540.953 87.43C540.963 86.88 541.038 86.36 541.178 85.87C541.328 85.37 541.548 84.935 541.838 84.565C542.138 84.185 542.528 83.89 543.008 83.68C543.488 83.46 544.068 83.35 544.748 83.35C545.438 83.35 546.018 83.46 546.488 83.68C546.968 83.89 547.358 84.185 547.658 84.565C547.958 84.935 548.178 85.37 548.318 85.87C548.468 86.36 548.548 86.88 548.558 87.43C548.568 87.71 548.573 88.005 548.573 88.315C548.583 88.615 548.583 88.915 548.573 89.215C548.573 89.515 548.568 89.8 548.558 90.07C548.548 90.62 548.468 91.14 548.318 91.63C548.178 92.12 547.958 92.555 547.658 92.935C547.368 93.315 546.983 93.615 546.503 93.835C546.033 94.045 545.448 94.15 544.748 94.15ZM544.748 92.875C545.528 92.875 546.103 92.62 546.473 92.11C546.853 91.59 547.048 90.885 547.058 89.995C547.078 89.705 547.088 89.425 547.088 89.155C547.088 88.875 547.088 88.6 547.088 88.33C547.088 88.05 547.078 87.775 547.058 87.505C547.048 86.635 546.853 85.94 546.473 85.42C546.103 84.89 545.528 84.625 544.748 84.625C543.978 84.625 543.403 84.89 543.023 85.42C542.653 85.94 542.458 86.635 542.438 87.505C542.438 87.775 542.433 88.05 542.423 88.33C542.423 88.6 542.423 88.875 542.423 89.155C542.433 89.425 542.438 89.705 542.438 89.995C542.458 90.885 542.658 91.59 543.038 92.11C543.418 92.62 543.988 92.875 544.748 92.875ZM554.27 94.15C553.58 94.15 552.995 94.045 552.515 93.835C552.045 93.615 551.66 93.315 551.36 92.935C551.06 92.555 550.84 92.12 550.7 91.63C550.57 91.14 550.495 90.62 550.475 90.07C550.465 89.8 550.455 89.515 550.445 89.215C550.445 88.915 550.445 88.615 550.445 88.315C550.455 88.005 550.465 87.71 550.475 87.43C550.485 86.88 550.56 86.36 550.7 85.87C550.85 85.37 551.07 84.935 551.36 84.565C551.66 84.185 552.05 83.89 552.53 83.68C553.01 83.46 553.59 83.35 554.27 83.35C554.96 83.35 555.54 83.46 556.01 83.68C556.49 83.89 556.88 84.185 557.18 84.565C557.48 84.935 557.7 85.37 557.84 85.87C557.99 86.36 558.07 86.88 558.08 87.43C558.09 87.71 558.095 88.005 558.095 88.315C558.105 88.615 558.105 88.915 558.095 89.215C558.095 89.515 558.09 89.8 558.08 90.07C558.07 90.62 557.99 91.14 557.84 91.63C557.7 92.12 557.48 92.555 557.18 92.935C556.89 93.315 556.505 93.615 556.025 93.835C555.555 94.045 554.97 94.15 554.27 94.15ZM554.27 92.875C555.05 92.875 555.625 92.62 555.995 92.11C556.375 91.59 556.57 90.885 556.58 89.995C556.6 89.705 556.61 89.425 556.61 89.155C556.61 88.875 556.61 88.6 556.61 88.33C556.61 88.05 556.6 87.775 556.58 87.505C556.57 86.635 556.375 85.94 555.995 85.42C555.625 84.89 555.05 84.625 554.27 84.625C553.5 84.625 552.925 84.89 552.545 85.42C552.175 85.94 551.98 86.635 551.96 87.505C551.96 87.775 551.955 88.05 551.945 88.33C551.945 88.6 551.945 88.875 551.945 89.155C551.955 89.425 551.96 89.705 551.96 89.995C551.98 90.885 552.18 91.59 552.56 92.11C552.94 92.62 553.51 92.875 554.27 92.875ZM567.468 94.15C566.778 94.15 566.193 94.045 565.713 93.835C565.243 93.615 564.858 93.315 564.558 92.935C564.258 92.555 564.038 92.12 563.898 91.63C563.768 91.14 563.693 90.62 563.673 90.07C563.663 89.8 563.653 89.515 563.643 89.215C563.643 88.915 563.643 88.615 563.643 88.315C563.653 88.005 563.663 87.71 563.673 87.43C563.683 86.88 563.758 86.36 563.898 85.87C564.048 85.37 564.268 84.935 564.558 84.565C564.858 84.185 565.248 83.89 565.728 83.68C566.208 83.46 566.788 83.35 567.468 83.35C568.158 83.35 568.738 83.46 569.208 83.68C569.688 83.89 570.078 84.185 570.378 84.565C570.678 84.935 570.898 85.37 571.038 85.87C571.188 86.36 571.268 86.88 571.278 87.43C571.288 87.71 571.293 88.005 571.293 88.315C571.303 88.615 571.303 88.915 571.293 89.215C571.293 89.515 571.288 89.8 571.278 90.07C571.268 90.62 571.188 91.14 571.038 91.63C570.898 92.12 570.678 92.555 570.378 92.935C570.088 93.315 569.703 93.615 569.223 93.835C568.753 94.045 568.168 94.15 567.468 94.15ZM567.468 92.875C568.248 92.875 568.823 92.62 569.193 92.11C569.573 91.59 569.768 90.885 569.778 89.995C569.798 89.705 569.808 89.425 569.808 89.155C569.808 88.875 569.808 88.6 569.808 88.33C569.808 88.05 569.798 87.775 569.778 87.505C569.768 86.635 569.573 85.94 569.193 85.42C568.823 84.89 568.248 84.625 567.468 84.625C566.698 84.625 566.123 84.89 565.743 85.42C565.373 85.94 565.178 86.635 565.158 87.505C565.158 87.775 565.153 88.05 565.143 88.33C565.143 88.6 565.143 88.875 565.143 89.155C565.153 89.425 565.158 89.705 565.158 89.995C565.178 90.885 565.378 91.59 565.758 92.11C566.138 92.62 566.708 92.875 567.468 92.875ZM576.989 94.15C576.299 94.15 575.714 94.045 575.234 93.835C574.764 93.615 574.379 93.315 574.079 92.935C573.779 92.555 573.559 92.12 573.419 91.63C573.289 91.14 573.214 90.62 573.194 90.07C573.184 89.8 573.174 89.515 573.164 89.215C573.164 88.915 573.164 88.615 573.164 88.315C573.174 88.005 573.184 87.71 573.194 87.43C573.204 86.88 573.279 86.36 573.419 85.87C573.569 85.37 573.789 84.935 574.079 84.565C574.379 84.185 574.769 83.89 575.249 83.68C575.729 83.46 576.309 83.35 576.989 83.35C577.679 83.35 578.259 83.46 578.729 83.68C579.209 83.89 579.599 84.185 579.899 84.565C580.199 84.935 580.419 85.37 580.559 85.87C580.709 86.36 580.789 86.88 580.799 87.43C580.809 87.71 580.814 88.005 580.814 88.315C580.824 88.615 580.824 88.915 580.814 89.215C580.814 89.515 580.809 89.8 580.799 90.07C580.789 90.62 580.709 91.14 580.559 91.63C580.419 92.12 580.199 92.555 579.899 92.935C579.609 93.315 579.224 93.615 578.744 93.835C578.274 94.045 577.689 94.15 576.989 94.15ZM576.989 92.875C577.769 92.875 578.344 92.62 578.714 92.11C579.094 91.59 579.289 90.885 579.299 89.995C579.319 89.705 579.329 89.425 579.329 89.155C579.329 88.875 579.329 88.6 579.329 88.33C579.329 88.05 579.319 87.775 579.299 87.505C579.289 86.635 579.094 85.94 578.714 85.42C578.344 84.89 577.769 84.625 576.989 84.625C576.219 84.625 575.644 84.89 575.264 85.42C574.894 85.94 574.699 86.635 574.679 87.505C574.679 87.775 574.674 88.05 574.664 88.33C574.664 88.6 574.664 88.875 574.664 89.155C574.674 89.425 574.679 89.705 574.679 89.995C574.699 90.885 574.899 91.59 575.279 92.11C575.659 92.62 576.229 92.875 576.989 92.875ZM586.511 94.15C585.821 94.15 585.236 94.045 584.756 93.835C584.286 93.615 583.901 93.315 583.601 92.935C583.301 92.555 583.081 92.12 582.941 91.63C582.811 91.14 582.736 90.62 582.716 90.07C582.706 89.8 582.696 89.515 582.686 89.215C582.686 88.915 582.686 88.615 582.686 88.315C582.696 88.005 582.706 87.71 582.716 87.43C582.726 86.88 582.801 86.36 582.941 85.87C583.091 85.37 583.311 84.935 583.601 84.565C583.901 84.185 584.291 83.89 584.771 83.68C585.251 83.46 585.831 83.35 586.511 83.35C587.201 83.35 587.781 83.46 588.251 83.68C588.731 83.89 589.121 84.185 589.421 84.565C589.721 84.935 589.941 85.37 590.081 85.87C590.231 86.36 590.311 86.88 590.321 87.43C590.331 87.71 590.336 88.005 590.336 88.315C590.346 88.615 590.346 88.915 590.336 89.215C590.336 89.515 590.331 89.8 590.321 90.07C590.311 90.62 590.231 91.14 590.081 91.63C589.941 92.12 589.721 92.555 589.421 92.935C589.131 93.315 588.746 93.615 588.266 93.835C587.796 94.045 587.211 94.15 586.511 94.15ZM586.511 92.875C587.291 92.875 587.866 92.62 588.236 92.11C588.616 91.59 588.811 90.885 588.821 89.995C588.841 89.705 588.851 89.425 588.851 89.155C588.851 88.875 588.851 88.6 588.851 88.33C588.851 88.05 588.841 87.775 588.821 87.505C588.811 86.635 588.616 85.94 588.236 85.42C587.866 84.89 587.291 84.625 586.511 84.625C585.741 84.625 585.166 84.89 584.786 85.42C584.416 85.94 584.221 86.635 584.201 87.505C584.201 87.775 584.196 88.05 584.186 88.33C584.186 88.6 584.186 88.875 584.186 89.155C584.196 89.425 584.201 89.705 584.201 89.995C584.221 90.885 584.421 91.59 584.801 92.11C585.181 92.62 585.751 92.875 586.511 92.875ZM596.424 96.85C596.324 96.85 596.239 96.815 596.169 96.745C596.109 96.685 596.079 96.605 596.079 96.505V86.545C596.079 86.445 596.109 86.365 596.169 86.305C596.239 86.235 596.324 86.2 596.424 86.2H597.114C597.214 86.2 597.294 86.235 597.354 86.305C597.424 86.365 597.459 86.445 597.459 86.545V87.205C597.699 86.875 598.019 86.6 598.419 86.38C598.819 86.16 599.319 86.05 599.919 86.05C600.479 86.05 600.954 86.145 601.344 86.335C601.744 86.525 602.069 86.785 602.319 87.115C602.579 87.445 602.774 87.82 602.904 88.24C603.034 88.66 603.104 89.11 603.114 89.59C603.124 89.75 603.129 89.92 603.129 90.1C603.129 90.28 603.124 90.45 603.114 90.61C603.104 91.08 603.034 91.53 602.904 91.96C602.774 92.38 602.579 92.755 602.319 93.085C602.069 93.405 601.744 93.665 601.344 93.865C600.954 94.055 600.479 94.15 599.919 94.15C599.339 94.15 598.849 94.045 598.449 93.835C598.059 93.615 597.739 93.345 597.489 93.025V96.505C597.489 96.605 597.459 96.685 597.399 96.745C597.339 96.815 597.254 96.85 597.144 96.85H596.424ZM599.604 92.935C600.124 92.935 600.529 92.825 600.819 92.605C601.119 92.375 601.334 92.08 601.464 91.72C601.594 91.35 601.669 90.955 601.689 90.535C601.699 90.245 601.699 89.955 601.689 89.665C601.669 89.245 601.594 88.855 601.464 88.495C601.334 88.125 601.119 87.83 600.819 87.61C600.529 87.38 600.124 87.265 599.604 87.265C599.114 87.265 598.714 87.38 598.404 87.61C598.104 87.84 597.879 88.135 597.729 88.495C597.589 88.845 597.509 89.205 597.489 89.575C597.479 89.735 597.474 89.925 597.474 90.145C597.474 90.365 597.479 90.56 597.489 90.73C597.499 91.08 597.579 91.425 597.729 91.765C597.889 92.105 598.124 92.385 598.434 92.605C598.744 92.825 599.134 92.935 599.604 92.935ZM605.36 96.85C605.25 96.85 605.165 96.815 605.105 96.745C605.045 96.685 605.015 96.605 605.015 96.505V95.995C605.015 95.895 605.045 95.81 605.105 95.74C605.165 95.68 605.25 95.65 605.36 95.65H605.75C605.98 95.65 606.165 95.605 606.305 95.515C606.445 95.425 606.57 95.27 606.68 95.05C606.8 94.84 606.94 94.55 607.1 94.18L610.355 86.455C610.385 86.375 610.425 86.315 610.475 86.275C610.535 86.225 610.62 86.2 610.73 86.2H611.39C611.48 86.2 611.555 86.23 611.615 86.29C611.675 86.35 611.705 86.42 611.705 86.5C611.705 86.54 611.7 86.58 611.69 86.62C611.68 86.65 611.66 86.7 611.63 86.77L608.78 93.52C608.63 93.88 608.465 94.255 608.285 94.645C608.115 95.035 607.92 95.395 607.7 95.725C607.49 96.065 607.24 96.335 606.95 96.535C606.66 96.745 606.32 96.85 605.93 96.85H605.36ZM607.445 93.775L604.415 86.77C604.365 86.65 604.34 86.565 604.34 86.515C604.35 86.425 604.385 86.35 604.445 86.29C604.505 86.23 604.575 86.2 604.655 86.2H605.36C605.47 86.2 605.55 86.225 605.6 86.275C605.66 86.325 605.705 86.385 605.735 86.455L608.225 92.41L607.445 93.775ZM616.517 94.15C615.747 94.15 615.102 94.005 614.582 93.715C614.072 93.415 613.682 92.995 613.412 92.455C613.152 91.905 613.012 91.27 612.992 90.55C612.982 90.25 612.977 89.95 612.977 89.65C612.977 89.35 612.982 89.05 612.992 88.75C612.992 87.84 613.067 87.085 613.217 86.485C613.367 85.885 613.592 85.395 613.892 85.015C614.202 84.625 614.592 84.305 615.062 84.055C615.532 83.805 616.087 83.59 616.727 83.41C617.367 83.22 618.097 83.02 618.917 82.81C619.007 82.79 619.092 82.805 619.172 82.855C619.262 82.905 619.312 82.975 619.322 83.065L619.442 83.68C619.462 83.77 619.447 83.85 619.397 83.92C619.357 83.99 619.292 84.035 619.202 84.055C618.452 84.245 617.797 84.41 617.237 84.55C616.677 84.69 616.207 84.855 615.827 85.045C615.447 85.225 615.142 85.46 614.912 85.75C614.682 86.04 614.522 86.425 614.432 86.905C614.352 87.385 614.327 88 614.357 88.75L614.027 88.615C614.077 88.245 614.232 87.91 614.492 87.61C614.762 87.3 615.097 87.05 615.497 86.86C615.897 86.67 616.322 86.575 616.772 86.575C617.462 86.575 618.042 86.72 618.512 87.01C618.992 87.3 619.357 87.695 619.607 88.195C619.867 88.695 620.012 89.27 620.042 89.92C620.062 90.26 620.062 90.555 620.042 90.805C620.012 91.455 619.862 92.035 619.592 92.545C619.322 93.045 618.932 93.44 618.422 93.73C617.912 94.01 617.277 94.15 616.517 94.15ZM616.517 93.04C617.147 93.04 617.647 92.845 618.017 92.455C618.387 92.065 618.582 91.495 618.602 90.745C618.612 90.645 618.617 90.53 618.617 90.4C618.617 90.27 618.612 90.135 618.602 89.995C618.582 89.235 618.387 88.66 618.017 88.27C617.657 87.88 617.202 87.685 616.652 87.685C616.022 87.685 615.502 87.88 615.092 88.27C614.682 88.66 614.462 89.235 614.432 89.995C614.422 90.135 614.417 90.27 614.417 90.4C614.417 90.53 614.422 90.645 614.432 90.745C614.462 91.495 614.662 92.065 615.032 92.455C615.402 92.845 615.897 93.04 616.517 93.04ZM622.173 94C622.073 94 621.988 93.97 621.918 93.91C621.858 93.84 621.828 93.755 621.828 93.655V92.575C621.828 92.475 621.858 92.395 621.918 92.335C621.988 92.265 622.073 92.23 622.173 92.23H623.253C623.353 92.23 623.433 92.265 623.493 92.335C623.563 92.395 623.598 92.475 623.598 92.575V93.655C623.598 93.755 623.563 93.84 623.493 93.91C623.433 93.97 623.353 94 623.253 94H622.173Z" fill="#373737"/>
<path d="M516.438 117.14C515.794 117.14 515.248 117.042 514.8 116.846C514.361 116.641 514.002 116.361 513.722 116.006C513.442 115.651 513.237 115.245 513.106 114.788C512.985 114.331 512.915 113.845 512.896 113.332C512.887 113.08 512.877 112.814 512.868 112.534C512.868 112.254 512.868 111.974 512.868 111.694C512.877 111.405 512.887 111.129 512.896 110.868C512.905 110.355 512.975 109.869 513.106 109.412C513.246 108.945 513.451 108.539 513.722 108.194C514.002 107.839 514.366 107.564 514.814 107.368C515.262 107.163 515.803 107.06 516.438 107.06C517.082 107.06 517.623 107.163 518.062 107.368C518.51 107.564 518.874 107.839 519.154 108.194C519.434 108.539 519.639 108.945 519.77 109.412C519.91 109.869 519.985 110.355 519.994 110.868C520.003 111.129 520.008 111.405 520.008 111.694C520.017 111.974 520.017 112.254 520.008 112.534C520.008 112.814 520.003 113.08 519.994 113.332C519.985 113.845 519.91 114.331 519.77 114.788C519.639 115.245 519.434 115.651 519.154 116.006C518.883 116.361 518.524 116.641 518.076 116.846C517.637 117.042 517.091 117.14 516.438 117.14ZM516.438 115.95C517.166 115.95 517.703 115.712 518.048 115.236C518.403 114.751 518.585 114.093 518.594 113.262C518.613 112.991 518.622 112.73 518.622 112.478C518.622 112.217 518.622 111.96 518.622 111.708C518.622 111.447 518.613 111.19 518.594 110.938C518.585 110.126 518.403 109.477 518.048 108.992C517.703 108.497 517.166 108.25 516.438 108.25C515.719 108.25 515.183 108.497 514.828 108.992C514.483 109.477 514.301 110.126 514.282 110.938C514.282 111.19 514.277 111.447 514.268 111.708C514.268 111.96 514.268 112.217 514.268 112.478C514.277 112.73 514.282 112.991 514.282 113.262C514.301 114.093 514.487 114.751 514.842 115.236C515.197 115.712 515.729 115.95 516.438 115.95ZM524.975 117.14C524.237 117.14 523.612 117.014 523.099 116.762C522.595 116.501 522.207 116.165 521.937 115.754C521.675 115.343 521.535 114.909 521.517 114.452C521.507 114.368 521.531 114.303 521.587 114.256C521.643 114.209 521.713 114.186 521.797 114.186H522.553C522.637 114.186 522.711 114.205 522.777 114.242C522.842 114.279 522.893 114.359 522.931 114.48C523.024 114.825 523.173 115.11 523.379 115.334C523.593 115.549 523.836 115.707 524.107 115.81C524.387 115.903 524.676 115.95 524.975 115.95C525.376 115.95 525.74 115.871 526.067 115.712C526.403 115.544 526.669 115.301 526.865 114.984C527.061 114.657 527.159 114.265 527.159 113.808C527.159 113.388 527.061 113.029 526.865 112.73C526.678 112.422 526.417 112.189 526.081 112.03C525.754 111.862 525.385 111.778 524.975 111.778C524.667 111.778 524.415 111.815 524.219 111.89C524.023 111.965 523.855 112.053 523.715 112.156C523.584 112.259 523.463 112.347 523.351 112.422C523.248 112.497 523.131 112.534 523.001 112.534H522.273C522.189 112.534 522.114 112.506 522.049 112.45C521.983 112.385 521.955 112.31 521.965 112.226L522.413 107.55C522.422 107.438 522.455 107.354 522.511 107.298C522.576 107.233 522.66 107.2 522.763 107.2H527.649C527.742 107.2 527.817 107.233 527.873 107.298C527.938 107.354 527.971 107.429 527.971 107.522V108.068C527.971 108.171 527.938 108.25 527.873 108.306C527.817 108.362 527.742 108.39 527.649 108.39H523.617L523.351 111.148C523.481 111.064 523.691 110.966 523.981 110.854C524.27 110.733 524.667 110.672 525.171 110.672C525.628 110.672 526.057 110.742 526.459 110.882C526.869 111.022 527.233 111.227 527.551 111.498C527.868 111.769 528.115 112.1 528.293 112.492C528.47 112.875 528.559 113.318 528.559 113.822C528.559 114.531 528.4 115.133 528.083 115.628C527.775 116.123 527.35 116.501 526.809 116.762C526.277 117.014 525.665 117.14 524.975 117.14ZM530.336 117C530.243 117 530.164 116.972 530.098 116.916C530.042 116.851 530.014 116.771 530.014 116.678V115.67C530.014 115.577 530.042 115.502 530.098 115.446C530.164 115.381 530.243 115.348 530.336 115.348H531.344C531.438 115.348 531.512 115.381 531.568 115.446C531.634 115.502 531.666 115.577 531.666 115.67V116.678C531.666 116.771 531.634 116.851 531.568 116.916C531.512 116.972 531.438 117 531.344 117H530.336ZM535.524 117C535.431 117 535.351 116.972 535.286 116.916C535.23 116.851 535.202 116.771 535.202 116.678V108.838L532.878 110.63C532.803 110.686 532.724 110.709 532.64 110.7C532.556 110.691 532.486 110.649 532.43 110.574L532.066 110.112C532.01 110.028 531.987 109.944 531.996 109.86C532.015 109.776 532.061 109.706 532.136 109.65L535.188 107.298C535.253 107.251 535.314 107.223 535.37 107.214C535.426 107.205 535.487 107.2 535.552 107.2H536.266C536.359 107.2 536.434 107.233 536.49 107.298C536.546 107.354 536.574 107.429 536.574 107.522V116.678C536.574 116.771 536.546 116.851 536.49 116.916C536.434 116.972 536.359 117 536.266 117H535.524ZM541.512 117C541.419 117 541.34 116.972 541.274 116.916C541.218 116.851 541.19 116.771 541.19 116.678V108.838L538.866 110.63C538.792 110.686 538.712 110.709 538.628 110.7C538.544 110.691 538.474 110.649 538.418 110.574L538.054 110.112C537.998 110.028 537.975 109.944 537.984 109.86C538.003 109.776 538.05 109.706 538.124 109.65L541.176 107.298C541.242 107.251 541.302 107.223 541.358 107.214C541.414 107.205 541.475 107.2 541.54 107.2H542.254C542.348 107.2 542.422 107.233 542.478 107.298C542.534 107.354 542.562 107.429 542.562 107.522V116.678C542.562 116.771 542.534 116.851 542.478 116.916C542.422 116.972 542.348 117 542.254 117H541.512ZM544.897 117C544.803 117 544.724 116.972 544.659 116.916C544.603 116.851 544.575 116.771 544.575 116.678V115.67C544.575 115.577 544.603 115.502 544.659 115.446C544.724 115.381 544.803 115.348 544.897 115.348H545.905C545.998 115.348 546.073 115.381 546.129 115.446C546.194 115.502 546.227 115.577 546.227 115.67V116.678C546.227 116.771 546.194 116.851 546.129 116.916C546.073 116.972 545.998 117 545.905 117H544.897ZM548.172 117C548.079 117 547.999 116.972 547.934 116.916C547.878 116.851 547.85 116.771 547.85 116.678V116.23C547.85 116.146 547.873 116.053 547.92 115.95C547.967 115.847 548.06 115.735 548.2 115.614L551.168 112.646C551.644 112.245 552.017 111.904 552.288 111.624C552.568 111.335 552.764 111.059 552.876 110.798C552.997 110.537 553.058 110.266 553.058 109.986C553.058 109.454 552.909 109.034 552.61 108.726C552.311 108.409 551.868 108.25 551.28 108.25C550.907 108.25 550.585 108.329 550.314 108.488C550.043 108.637 549.829 108.847 549.67 109.118C549.521 109.379 549.423 109.678 549.376 110.014C549.357 110.135 549.306 110.219 549.222 110.266C549.147 110.313 549.077 110.336 549.012 110.336H548.284C548.2 110.336 548.13 110.313 548.074 110.266C548.018 110.21 547.99 110.145 547.99 110.07C547.999 109.715 548.074 109.361 548.214 109.006C548.354 108.642 548.559 108.315 548.83 108.026C549.11 107.737 549.451 107.503 549.852 107.326C550.263 107.139 550.739 107.046 551.28 107.046C552.017 107.046 552.619 107.181 553.086 107.452C553.562 107.713 553.912 108.063 554.136 108.502C554.36 108.941 554.472 109.421 554.472 109.944C554.472 110.355 554.402 110.733 554.262 111.078C554.122 111.414 553.917 111.745 553.646 112.072C553.385 112.389 553.058 112.716 552.666 113.052L549.978 115.782H554.346C554.449 115.782 554.528 115.81 554.584 115.866C554.649 115.922 554.682 116.001 554.682 116.104V116.678C554.682 116.771 554.649 116.851 554.584 116.916C554.528 116.972 554.449 117 554.346 117H548.172ZM559.553 117.14C558.965 117.14 558.452 117.07 558.013 116.93C557.574 116.781 557.206 116.585 556.907 116.342C556.608 116.099 556.38 115.833 556.221 115.544C556.072 115.255 555.992 114.956 555.983 114.648C555.983 114.564 556.011 114.499 556.067 114.452C556.123 114.405 556.193 114.382 556.277 114.382H556.963C557.047 114.382 557.122 114.401 557.187 114.438C557.252 114.475 557.308 114.555 557.355 114.676C557.448 115.012 557.607 115.273 557.831 115.46C558.064 115.647 558.33 115.777 558.629 115.852C558.937 115.917 559.245 115.95 559.553 115.95C560.197 115.95 560.72 115.796 561.121 115.488C561.522 115.18 561.723 114.727 561.723 114.13C561.723 113.523 561.541 113.089 561.177 112.828C560.813 112.567 560.309 112.436 559.665 112.436H558.335C558.242 112.436 558.162 112.408 558.097 112.352C558.041 112.296 558.013 112.217 558.013 112.114V111.736C558.013 111.652 558.027 111.582 558.055 111.526C558.092 111.461 558.13 111.405 558.167 111.358L560.883 108.39H556.753C556.66 108.39 556.58 108.362 556.515 108.306C556.459 108.25 556.431 108.171 556.431 108.068V107.536C556.431 107.433 556.459 107.354 556.515 107.298C556.58 107.233 556.66 107.2 556.753 107.2H562.339C562.442 107.2 562.521 107.233 562.577 107.298C562.642 107.354 562.675 107.433 562.675 107.536V108.04C562.675 108.105 562.656 108.166 562.619 108.222C562.591 108.269 562.558 108.315 562.521 108.362L559.819 111.372L560.043 111.386C560.659 111.405 561.196 111.517 561.653 111.722C562.12 111.927 562.479 112.235 562.731 112.646C562.992 113.047 563.123 113.556 563.123 114.172C563.123 114.797 562.969 115.334 562.661 115.782C562.353 116.221 561.928 116.557 561.387 116.79C560.846 117.023 560.234 117.14 559.553 117.14Z" fill="#070707" fill-opacity="0.4"/>
</g>
<path d="M68 214H67.5V214.5H68V214ZM762 213.5H68V214.5H762V213.5ZM68.5 214V0H67.5V214H68.5Z" fill="#070707" mask="url(#path-7-inside-1_903_9385)"/>
<defs>
<clipPath id="clip0_903_9385">
<path d="M68 0H762V214H68V0Z" fill="white"/>
</clipPath>
</defs>
</svg>
